<?xml version="1.0" encoding="UTF-8" standalone="no"?>
<svg
   xmlns:dc="http://purl.org/dc/elements/1.1/"
   xmlns:cc="http://creativecommons.org/ns#"
   xmlns:rdf="http://www.w3.org/1999/02/22-rdf-syntax-ns#"
   xmlns:svg="http://www.w3.org/2000/svg"
   xmlns="http://www.w3.org/2000/svg"
   version="1.1"
   id="svg1652"
   xml:space="preserve"
   width="1324"
   height="457.33334"
   viewBox="0 0 1324 457.33334"><metadata
     id="metadata1658"><rdf:RDF><cc:Work
         rdf:about=""><dc:format>image/svg+xml</dc:format><dc:type
           rdf:resource="http://purl.org/dc/dcmitype/StillImage" /><dc:title></dc:title></cc:Work></rdf:RDF></metadata><defs
     id="defs1656"><clipPath
       clipPathUnits="userSpaceOnUse"
       id="clipPath1670"><path
         d="M 73.44,73.44 H 985.11 V 327.66 H 73.44 Z"
         id="path1668" /></clipPath><clipPath
       clipPathUnits="userSpaceOnUse"
       id="clipPath1782"><path
         d="M 73.44,73.44 H 985.11 V 327.66 H 73.44 Z"
         id="path1780" /></clipPath></defs><g
     id="g1660"
     transform="matrix(1.3333333,0,0,-1.3333333,0,457.33333)"><g
       id="g1662" /><g
       id="g1664"><g
         id="g1666"
         clip-path="url(#clipPath1670)"><path
           d="m 424.6,82.86 h 0.42 0.43 0.42 0.42 0.42 0.42 0.43 0.42 0.42 0.42 0.42 0.43 0.42 0.42 0.42 0.42 0.43 0.42 0.42 0.42 0.43 0.42 0.42 0.42 0.42 0.43 0.42 0.42 0.42 0.42 0.43 0.42 0.42 0.42 0.42 0.43 0.42 0.42 0.42 0.42 0.43 0.42 0.42 0.42 0.42 0.43 0.42 0.42 0.42 0.43 0.42 0.42 0.42 0.42 0.43 0.42 0.42 0.42 0.42 0.43 0.42 0.42 0.42 0.42 0.43 0.42 0.42 0.42 0.42 0.43 0.42 0.42 0.42 0.42 0.43 0.42 0.42 0.42 0.43 0.42 0.42 0.42 0.42 0.43 0.42 0.42 0.42 0.42 0.43 0.42 0.42 0.42 0.42 0.43 0.42 0.42 0.42 0.42 0.43 0.42 0.42 0.42 0.42 0.43 0.42 0.42 0.42 0.43 0.42 0.42 0.42 0.42 0.43 0.42 0.42 0.42 0.42 0.43 0.42 0.42 0.42 0.42 0.43 0.42 0.42 0.42 0.42 0.43 0.42 0.42 0.42 0.42 0.43 0.42 0.42 0.42 0.43 0.42 0.42 0.42 0.42 0.43 0.42 0.42 0.42 0.42 0.43 0.42 0.42 0.42 0.42 0.43 0.42 0.42 0.42 0.42 0.43 0.42 0.42 0.42 0.42 0.43 0.42 0.42 0.42 0.43 0.42 0.42 0.42 0.42 0.43 0.42 0.42 0.42 0.42 0.43 0.42 0.42 0.42 0.42 0.43 0.42 0.42 0.42 0.42 0.43 0.42 0.42 0.42 0.42 0.43 0.42 0.42 0.42 0.43 0.42 0.42 0.42 0.42 0.43 0.42 0.42 0.42 0.42 0.43 0.42 0.42 0.42 0.42 0.43 0.42 0.42 0.42 0.42 0.43 0.42 0.42 0.42 0.42 0.43 0.42 0.42 0.42 0.43 0.42 0.42 0.42 0.42 0.43 0.42 0.42 0.42 0.42 0.43 0.42 0.42 0.42 0.42 0.43 0.42 0.42 0.42 0.42 0.43 0.42 0.42 0.42 0.42 0.43 0.42 0.42 0.42 0.43 0.42 0.42 0.42 0.42 0.43 0.42 0.42 0.42 0.42 0.43 0.42 0.42 0.42 0.42 0.43 0.42 0.42 0.42 0.42 0.43 0.42 0.42 0.42 0.42 0.43 0.42 0.42 0.42 0.43 0.42 0.42 0.42 0.42 0.43 0.42 0.42 0.42 0.42 0.43 0.42 0.42 0.42 0.42 0.43 0.42 0.42 0.42 0.42 0.43 0.42 0.42 0.42 0.42 l 0.43,23.64 h 0.42 0.42 0.42 0.43 0.42 0.42 0.42 0.42 0.43 0.42 0.42 0.42 0.42 0.43 0.42 0.42 0.42 0.42 0.43 0.42 0.42 0.42 0.42 0.43 0.42 0.42 0.42 0.43 0.42 0.42 0.42 0.42 0.43 0.42 0.42 0.42 0.42 0.43 0.42 0.42 0.42 0.42 0.43 0.42 0.42 0.42 0.42 0.43 0.42 l 0.42,13.82 h 0.42 0.42 0.43 0.42 0.42 0.42 0.43 0.42 0.42 0.42 0.42 0.43 0.42 0.42 0.42 0.42 0.43 0.42 0.42 0.42 0.42 0.43 0.42 0.42 0.42 0.42 0.43 0.42 0.42 0.42 0.42 0.43 0.42 0.42 0.42 l 0.43,9.82 h 0.42 0.42 0.42 0.42 0.43 0.42 0.42 0.42 0.42 0.43 0.42 0.42 0.42 0.42 0.43 0.42 l 0.42,7.61 h 0.42 0.42 0.43 0.42 0.42 0.42 0.42 0.43 0.42 0.42 0.42 0.43 0.42 0.42 0.42 0.42 0.43 0.42 0.42 0.42 0.42 0.43 0.42 0.42 0.42 0.42 0.43 0.42 0.42 0.42 0.42 0.43 0.42 0.42 0.42 0.42 0.43 0.42 0.42 0.42 0.43 0.42 0.42 0.42 0.42 0.43 0.42 0.42 0.42 0.42 0.43 0.42 0.42 0.42 0.42 0.43 0.42 0.42 0.42 0.42 0.43 0.42 0.42 0.42 0.42 0.43 0.42 0.42 0.42 0.43 0.42 0.42 0.42 0.42 0.43 0.42 0.42 0.42 0.42 0.43 0.42 0.42 0.42 0.42 0.43 0.42 0.42 0.42 0.42 0.43 0.42 0.42 0.42 0.42 0.43 0.42 0.42 0.42 0.43 0.42 0.42 0.42 0.42 0.43 0.42 0.42 0.42 0.42 0.43 0.42 0.42 0.42 0.42 0.43 0.42 0.42 0.42 0.42 0.43 0.42 0.42 0.42 0.42 0.43 0.42 0.42 0.42 0.43 0.42 0.42 0.42 0.42 0.43 0.42 0.42 0.42 0.42 0.43 0.42 0.42 0.42 0.42 0.43 0.42 0.42 0.42 0.42 0.43 0.42 0.42 0.42 0.42 0.43 0.42 0.42 0.42 0.43 0.42 0.42 0.42 0.42 0.43 0.42 0.42 0.42 0.42 0.43 0.42 0.42 0.42 0.42 0.43 0.42 0.42 0.42 0.42 0.43 0.42 0.42 0.42 0.42 0.43 0.42 0.42 0.42 0.43 0.42 0.42 0.42 0.42 l 0.43,6.21 h 0.42 0.42 0.42 0.42 0.43 0.42 0.42 0.42 0.42 0.43 0.42 0.42 0.42 0.42 0.43 0.42 0.42 0.42 0.42 0.43 0.42 l 0.42,5.26 h 0.42 0.43 0.42 0.42 0.42 0.42 0.43 0.42 0.42 0.42 0.42 0.43 0.42 0.42 0.42 0.42 0.43 0.42 0.42 0.42 0.42 0.43 0.42 0.42 0.42 0.42 0.43 0.42 0.42 0.42 l 0.43,4.56 h 0.42 0.42 0.42 0.42 0.43 0.42 0.42 0.42 0.42 0.43 0.42 0.42 0.42 0.42 0.43 l 0.42,4.01 h 0.42 0.42 0.42 l 0.43,3.6 h 0.42 0.42 0.42 0.42 0.43 0.42 0.42 0.42 0.43 0.42 0.42 0.42 0.42 0.43 0.42 0.42 l 0.42,3.25 h 0.42 0.43 0.42 0.42 0.42 0.42 0.43 0.42 0.42 0.42 0.42 0.43 0.42 0.42 0.42 0.42 l 0.43,2.97 h 0.42 0.42 0.42 0.43 0.42 0.42 0.42 0.42 0.43 0.42 0.42 0.42 0.42 0.43 0.42 l 0.42,2.73 h 0.42 0.42 l 0.43,2.52 h 0.42 0.42 0.42 0.42 l 0.43,2.36 h 0.42 0.42 0.42 0.42 0.43 0.42 0.42 0.42 0.43 0.42 0.42 0.42 0.42 0.43 0.42 0.42 0.42 l 0.42,2.2 h 0.43 0.42 0.42 0.42 0.42 0.43 0.42 0.42 0.42 0.42 0.43 0.42 0.42 0.42 0.42 0.43 0.42 0.42 0.42 0.43 0.42 0.42 0.42 0.42 0.43 0.42 0.42 0.42 0.42 0.43 0.42 0.42 0.42 0.42 0.43 0.42 0.42 0.42 0.42 0.43 0.42 0.42 0.42 0.42 0.43 0.42 0.42 0.42 0.43 0.42 0.42 0.42 0.42 0.43 0.42 0.42 0.42 0.42 0.43 0.42 0.42 0.42 0.42 0.43 0.42 0.42 0.42 0.42 0.43 0.42 l 0.42,2.06 h 0.42 0.42 0.43 0.42 0.42 0.42 0.43 0.42 l 0.42,1.95 0.42,1.85 h 0.42 l 0.43,1.75 h 0.42 0.42 0.42 0.42 l 0.43,1.66 h 0.42 0.42 0.42 0.42 0.43 l 0.42,1.59 h 0.42 l 0.42,1.51 h 0.42 0.43 0.42 0.42 0.42 l 0.42,1.46 h 0.43 0.42 0.42 l 0.42,1.39 h 0.43 0.42 l 0.42,1.34 0.42,1.28 h 0.42 0.43 0.42 0.42 l 0.42,1.24 h 0.42 0.43 0.42 0.42 0.42 0.42 l 0.43,1.2 h 0.42 0.42 0.42 0.42 l 0.43,2.27 h 0.42 0.42 0.42 0.42 l 0.43,1.09 0.42,2.06 h 0.42 l 0.42,1.95 h 0.43 0.42 l 0.42,0.94 h 0.42 l 0.42,0.91 0.43,0.88 h 0.42 l 0.42,0.87 0.42,1.66 h 0.42 l 0.43,0.8 0.42,0.79 0.42,1.51 0.42,1.46 0.42,0.7 0.43,1.36 0.42,0.67 0.42,1.28 0.42,1.85 0.42,2.86 h 0.43 0.42 l 0.42,1.62 0.42,1.53 0.42,1.95 0.43,2.29 0.42,0.44 0.42,0.44 0.42,0.43 0.43,0.42 0.42,1.65 h 0.42 l 0.42,1.56 0.42,0.38 0.43,1.12 0.42,0.37 h 0.42 l 0.42,1.07 0.42,1.04 0.43,1.34 0.42,1.6 0.42,0.62 0.42,0.3 0.42,0.31 0.43,1.18 0.42,0.58 0.42,0.29 0.42,0.84 0.42,1.09 0.43,0.27 0.42,1.3 0.42,0.51 0.42,0.26 0.42,1.94 0.43,0.48 0.42,33.33 0.42,0.18 0.42,0.08 0.43,0.18 0.42,0.17 h 0.42 l 0.42,0.17 0.42,7.66 0.43,0.88 0.42,1.57 0.42,0.19 0.42,0.13 0.42,0.25 0.43,0.07 0.42,0.06 0.42,0.06 0.42,0.06 h 0.42 l 0.43,0.07 0.42,0.12 0.42,0.19 0.42,0.24 h 0.42 0.43 l 0.42,0.18 0.42,0.13 0.42,0.06 h 0.42 0.43 l 0.42,0.06 0.42,0.06 h 0.42 l 0.43,0.12 h 0.42 l 0.42,0.12 0.42,0.12 h 0.42 0.43 0.42 l 0.42,0.06 0.42,0.06 0.42,0.06 0.43,0.06 0.42,0.06 h 0.42 l 0.42,0.05 0.42,0.18 h 0.43 l 0.42,0.12 0.42,0.23 0.42,0.06 0.42,0.17 h 0.43 0.42 0.42 l 0.42,0.06 0.42,0.12 0.43,0.11 0.42,0.17 0.42,0.06 0.42,0.06 0.43,0.05 0.42,0.06 0.42,0.11 0.42,0.06 0.42,0.06 0.43,0.05 h 0.42 l 0.42,0.12 0.42,0.11 0.42,0.99 0.43,0.43 0.42,0.11 0.42,0.1 0.42,0.11 h 0.42 l 0.43,0.05 0.42,0.05 0.42,0.06 h 0.42 l 0.42,0.1 0.43,0.11 0.42,0.1 0.42,0.05 h 0.42 0.42 0.43 0.42 0.42 l 0.42,0.11 h 0.43 l 0.42,0.05 h 0.42 l 0.42,0.26 0.42,0.05 0.43,0.05 0.42,0.05 0.42,0.11 h 0.42 l 0.42,0.15 0.43,0.05 0.42,0.05 0.42,0.05 0.42,0.1 h 0.42 l 0.43,0.11 h 0.42 l 0.42,0.1 0.42,0.25 h 0.42 0.43 l 0.42,0.2 0.42,0.09 0.42,0.1 0.42,0.15 0.43,0.15 0.42,0.1 0.42,0.19 0.42,0.05 0.43,0.05 0.42,0.09 0.42,0.24 h 0.42 l 0.42,0.1 0.43,0.1 0.42,0.19 0.42,0.09 0.42,0.19 h 0.42 0.43 l 0.42,0.05 0.42,0.09 0.42,0.05 0.42,0.04 0.43,0.1 0.42,0.18 0.42,0.19 0.42,0.04 0.42,0.05 0.43,0.09 h 0.42 l 0.42,0.09 h 0.42 l 0.42,0.05 0.43,0.13 0.42,0.14 0.42,0.22 0.42,0.05 h 0.43 l 0.42,0.13 0.42,0.09 0.42,0.14 h 0.42 l 0.43,0.17 0.42,0.27 0.42,0.04 0.42,0.13 0.42,0.05 h 0.43 l 0.42,0.08 0.42,0.05 0.42,0.04 0.42,0.13 0.43,0.13 0.42,0.04 0.42,0.09 0.42,0.04 0.42,0.09 h 0.43 l 0.42,0.17 0.42,0.04 0.42,0.21 0.43,0.08 0.42,3.33 0.42,0.07 0.42,0.04 0.42,0.15 0.43,0.12 0.42,0.07 h 0.42 0.42 l 0.42,0.12 0.43,0.07 0.42,0.04 0.42,0.11 0.42,0.04 0.42,0.07 h 0.43 l 0.42,0.15 0.42,0.04 0.42,0.03 0.42,0.08 0.43,0.07 0.42,0.07 0.42,0.11 0.42,0.11 h 0.42 l 0.43,0.11 0.42,0.08 0.42,0.07 0.42,0.03 h 0.43 l 0.42,0.04 h 0.42 l 0.42,0.07 0.42,0.04 0.43,0.07 h 0.42 l 0.42,0.04 0.42,0.1 0.42,0.07 0.43,0.08 0.42,0.03 h 0.42 l 0.42,0.04 0.42,0.07 h 0.43 l 0.42,0.03 0.42,0.07 h 0.42 0.42 l 0.43,0.11 0.42,0.14 0.42,0.04 0.42,0.07 h 0.42 0.43 l 0.42,0.03 0.42,0.07 h 0.42 0.43 l 0.42,0.11 h 0.42 0.42 0.42 0.43 0.42 0.42 l 0.42,0.03 h 0.42 0.43 l 0.42,0.03 0.42,0.04 h 0.42 l 0.42,0.1 0.43,0.04 h 0.42 l 0.42,0.03 h 0.42 0.42 0.43 0.42 0.42 0.42 0.42 0.43 0.42 0.42 0.42 0.43 0.42 l 0.42,0.04 h 0.42 0.42 0.43 l 0.42,0.03 0.42,0.04 h 0.42 0.42 0.43 0.42 0.42 0.42 0.42 0.43 0.42 0.42 l 0.42,0.03 h 0.42 0.43 0.42 l 0.42,0.03 h 0.42 0.42 0.43 0.42 0.42 0.42 0.43 0.42 0.42 0.42 0.42 0.43 0.42 0.42 0.42 0.42 0.43 0.42 0.42 0.42 0.42 0.43 0.42 0.42 0.42 0.42"
           style="fill:none;stroke:#fc8d62;stroke-width:3;stroke-linecap:round;stroke-linejoin:round;stroke-miterlimit:10;stroke-dasharray:none;stroke-opacity:1"
           id="path1672" /></g></g><g
       id="g1674"><path
         d="M 73.44,82.86 V 318.45"
         style="fill:none;stroke:#000000;stroke-width:0.75;stroke-linecap:round;stroke-linejoin:round;stroke-miterlimit:10;stroke-dasharray:none;stroke-opacity:1"
         id="path1676" /><path
         d="m 73.44,82.86 h -7.2"
         style="fill:none;stroke:#000000;stroke-width:0.75;stroke-linecap:round;stroke-linejoin:round;stroke-miterlimit:10;stroke-dasharray:none;stroke-opacity:1"
         id="path1678" /><path
         d="m 73.44,137.75 h -7.2"
         style="fill:none;stroke:#000000;stroke-width:0.75;stroke-linecap:round;stroke-linejoin:round;stroke-miterlimit:10;stroke-dasharray:none;stroke-opacity:1"
         id="path1680" /><path
         d="m 73.44,161.39 h -7.2"
         style="fill:none;stroke:#000000;stroke-width:0.75;stroke-linecap:round;stroke-linejoin:round;stroke-miterlimit:10;stroke-dasharray:none;stroke-opacity:1"
         id="path1682" /><path
         d="m 73.44,216.28 h -7.2"
         style="fill:none;stroke:#000000;stroke-width:0.75;stroke-linecap:round;stroke-linejoin:round;stroke-miterlimit:10;stroke-dasharray:none;stroke-opacity:1"
         id="path1684" /><path
         d="m 73.44,239.92 h -7.2"
         style="fill:none;stroke:#000000;stroke-width:0.75;stroke-linecap:round;stroke-linejoin:round;stroke-miterlimit:10;stroke-dasharray:none;stroke-opacity:1"
         id="path1686" /><path
         d="m 73.44,294.81 h -7.2"
         style="fill:none;stroke:#000000;stroke-width:0.75;stroke-linecap:round;stroke-linejoin:round;stroke-miterlimit:10;stroke-dasharray:none;stroke-opacity:1"
         id="path1688" /><path
         d="m 73.44,318.45 h -7.2"
         style="fill:none;stroke:#000000;stroke-width:0.75;stroke-linecap:round;stroke-linejoin:round;stroke-miterlimit:10;stroke-dasharray:none;stroke-opacity:1"
         id="path1690" /><text
         transform="matrix(1,0,0,-1,51.26,77.83)"
         style="font-variant:normal;font-weight:normal;font-size:14px;font-family:Helvetica;-inkscape-font-specification:Helvetica;writing-mode:lr-tb;fill:#000000;fill-opacity:1;fill-rule:nonzero;stroke:none"
         id="text1694"><tspan
           x="0"
           y="0"
           id="tspan1692">1</tspan></text><text
         transform="matrix(1,0,0,-1,51.26,132.72)"
         style="font-variant:normal;font-weight:normal;font-size:14px;font-family:Helvetica;-inkscape-font-specification:Helvetica;writing-mode:lr-tb;fill:#000000;fill-opacity:1;fill-rule:nonzero;stroke:none"
         id="text1698"><tspan
           x="0"
           y="0"
           id="tspan1696">5</tspan></text><text
         transform="matrix(1,0,0,-1,43.47,156.36)"
         style="font-variant:normal;font-weight:normal;font-size:14px;font-family:Helvetica;-inkscape-font-specification:Helvetica;writing-mode:lr-tb;fill:#000000;fill-opacity:1;fill-rule:nonzero;stroke:none"
         id="text1702"><tspan
           x="0 7.7839999"
           y="0"
           id="tspan1700">10</tspan></text><text
         transform="matrix(1,0,0,-1,43.47,211.25)"
         style="font-variant:normal;font-weight:normal;font-size:14px;font-family:Helvetica;-inkscape-font-specification:Helvetica;writing-mode:lr-tb;fill:#000000;fill-opacity:1;fill-rule:nonzero;stroke:none"
         id="text1706"><tspan
           x="0 7.7839999"
           y="0"
           id="tspan1704">50</tspan></text><text
         transform="matrix(1,0,0,-1,35.69,234.89)"
         style="font-variant:normal;font-weight:normal;font-size:14px;font-family:Helvetica;-inkscape-font-specification:Helvetica;writing-mode:lr-tb;fill:#000000;fill-opacity:1;fill-rule:nonzero;stroke:none"
         id="text1710"><tspan
           x="0 7.7839999 15.568"
           y="0"
           id="tspan1708">100</tspan></text><text
         transform="matrix(1,0,0,-1,35.69,289.78)"
         style="font-variant:normal;font-weight:normal;font-size:14px;font-family:Helvetica;-inkscape-font-specification:Helvetica;writing-mode:lr-tb;fill:#000000;fill-opacity:1;fill-rule:nonzero;stroke:none"
         id="text1714"><tspan
           x="0 7.7839999 15.568"
           y="0"
           id="tspan1712">500</tspan></text><text
         transform="matrix(1,0,0,-1,27.9,313.42)"
         style="font-variant:normal;font-weight:normal;font-size:14px;font-family:Helvetica;-inkscape-font-specification:Helvetica;writing-mode:lr-tb;fill:#000000;fill-opacity:1;fill-rule:nonzero;stroke:none"
         id="text1718"><tspan
           x="0 7.7839999 15.568 23.351999"
           y="0"
           id="tspan1716">1000</tspan></text><path
         d="M 73.44,73.44 H 985.11 V 327.66 H 73.44 V 73.44"
         style="fill:none;stroke:#000000;stroke-width:0.75;stroke-linecap:round;stroke-linejoin:round;stroke-miterlimit:10;stroke-dasharray:none;stroke-opacity:1"
         id="path1720" /><path
         d="M 107.21,73.44 H 951.34"
         style="fill:none;stroke:#000000;stroke-width:0.75;stroke-linecap:round;stroke-linejoin:round;stroke-miterlimit:10;stroke-dasharray:none;stroke-opacity:1"
         id="path1722" /><path
         d="m 107.21,73.44 v -7.2"
         style="fill:none;stroke:#000000;stroke-width:0.75;stroke-linecap:round;stroke-linejoin:round;stroke-miterlimit:10;stroke-dasharray:none;stroke-opacity:1"
         id="path1724" /><path
         d="m 276.03,73.44 v -7.2"
         style="fill:none;stroke:#000000;stroke-width:0.75;stroke-linecap:round;stroke-linejoin:round;stroke-miterlimit:10;stroke-dasharray:none;stroke-opacity:1"
         id="path1726" /><path
         d="m 444.86,73.44 v -7.2"
         style="fill:none;stroke:#000000;stroke-width:0.75;stroke-linecap:round;stroke-linejoin:round;stroke-miterlimit:10;stroke-dasharray:none;stroke-opacity:1"
         id="path1728" /><path
         d="m 512.39,73.44 v -7.2"
         style="fill:none;stroke:#000000;stroke-width:0.75;stroke-linecap:round;stroke-linejoin:round;stroke-miterlimit:10;stroke-dasharray:none;stroke-opacity:1"
         id="path1730" /><path
         d="m 613.69,73.44 v -7.2"
         style="fill:none;stroke:#000000;stroke-width:0.75;stroke-linecap:round;stroke-linejoin:round;stroke-miterlimit:10;stroke-dasharray:none;stroke-opacity:1"
         id="path1732" /><path
         d="m 782.52,73.44 v -7.2"
         style="fill:none;stroke:#000000;stroke-width:0.75;stroke-linecap:round;stroke-linejoin:round;stroke-miterlimit:10;stroke-dasharray:none;stroke-opacity:1"
         id="path1734" /><path
         d="m 951.34,73.44 v -7.2"
         style="fill:none;stroke:#000000;stroke-width:0.75;stroke-linecap:round;stroke-linejoin:round;stroke-miterlimit:10;stroke-dasharray:none;stroke-opacity:1"
         id="path1736" /><text
         transform="matrix(1,0,0,-1,93.58,47.52)"
         style="font-variant:normal;font-weight:normal;font-size:14px;font-family:Helvetica;-inkscape-font-specification:Helvetica;writing-mode:lr-tb;fill:#000000;fill-opacity:1;fill-rule:nonzero;stroke:none"
         id="text1740"><tspan
           x="0 7.7839999 11.676 19.459999"
           y="0"
           id="tspan1738">0.00</tspan></text><text
         transform="matrix(1,0,0,-1,262.41,47.52)"
         style="font-variant:normal;font-weight:normal;font-size:14px;font-family:Helvetica;-inkscape-font-specification:Helvetica;writing-mode:lr-tb;fill:#000000;fill-opacity:1;fill-rule:nonzero;stroke:none"
         id="text1744"><tspan
           x="0 7.7839999 11.676 19.459999"
           y="0"
           id="tspan1742">0.20</tspan></text><text
         transform="matrix(1,0,0,-1,431.24,47.52)"
         style="font-variant:normal;font-weight:normal;font-size:14px;font-family:Helvetica;-inkscape-font-specification:Helvetica;writing-mode:lr-tb;fill:#000000;fill-opacity:1;fill-rule:nonzero;stroke:none"
         id="text1748"><tspan
           x="0 7.7839999 11.676 19.459999"
           y="0"
           id="tspan1746">0.40</tspan></text><text
         transform="matrix(1,0,0,-1,498.77,47.52)"
         style="font-variant:normal;font-weight:normal;font-size:14px;font-family:Helvetica;-inkscape-font-specification:Helvetica;writing-mode:lr-tb;fill:#000000;fill-opacity:1;fill-rule:nonzero;stroke:none"
         id="text1752"><tspan
           x="0 7.7839999 11.676 19.459999"
           y="0"
           id="tspan1750">0.48</tspan></text><text
         transform="matrix(1,0,0,-1,600.07,47.52)"
         style="font-variant:normal;font-weight:normal;font-size:14px;font-family:Helvetica;-inkscape-font-specification:Helvetica;writing-mode:lr-tb;fill:#000000;fill-opacity:1;fill-rule:nonzero;stroke:none"
         id="text1756"><tspan
           x="0 7.7839999 11.676 19.459999"
           y="0"
           id="tspan1754">0.60</tspan></text><text
         transform="matrix(1,0,0,-1,768.89,47.52)"
         style="font-variant:normal;font-weight:normal;font-size:14px;font-family:Helvetica;-inkscape-font-specification:Helvetica;writing-mode:lr-tb;fill:#000000;fill-opacity:1;fill-rule:nonzero;stroke:none"
         id="text1760"><tspan
           x="0 7.7839999 11.676 19.459999"
           y="0"
           id="tspan1758">0.80</tspan></text><text
         transform="matrix(1,0,0,-1,937.72,47.52)"
         style="font-variant:normal;font-weight:normal;font-size:14px;font-family:Helvetica;-inkscape-font-specification:Helvetica;writing-mode:lr-tb;fill:#000000;fill-opacity:1;fill-rule:nonzero;stroke:none"
         id="text1764"><tspan
           x="0 7.7839999 11.676 19.459999"
           y="0"
           id="tspan1762">1.00</tspan></text></g><g
       id="g1766"><text
         transform="matrix(0,1,1,0,20.16,75.63)"
         style="font-variant:normal;font-weight:normal;font-size:18px;font-family:Helvetica;-inkscape-font-specification:Helvetica;writing-mode:lr-tb;fill:#000000;fill-opacity:1;fill-rule:nonzero;stroke:none"
         id="text1770"><tspan
           x="0 12.006 18 28.007999 38.015999 42.012001 51.012001 56.015999 60.012001 70.019997 80.028 89.028 94.031998 104.04 114.048 118.044 127.782 140.778 145.782 150.786 160.79401 170.802 175.806 180.81 190.81799 196.812 206.82001 215.82001 225.828 235.836 239.832"
           y="0"
           id="tspan1768">Predictions below the threshold</tspan></text><text
         transform="matrix(1,0,0,-1,444.23,11.52)"
         style="font-variant:normal;font-weight:normal;font-size:18px;font-family:Helvetica;-inkscape-font-specification:Helvetica;writing-mode:lr-tb;fill:#000000;fill-opacity:1;fill-rule:nonzero;stroke:none"
         id="text1774"><tspan
           x="0 12.996 23.004 33.012001 38.015999 42.012001 52.02 62.028 72.036003 81.036003 91.043999 96.047997 101.052 111.06 117.054 127.062 136.062 146.07001 156.078 160.07401"
           y="0"
           id="tspan1772">Confidence threshold</tspan></text></g><g
       id="g1776"><g
         id="g1778"
         clip-path="url(#clipPath1782)"><path
           d="m 506.06,82.86 h 0.42 0.43 0.42 0.42 0.42 0.42 0.43 0.42 0.42 0.42 0.42 0.43 0.42 0.42 0.42 0.42 0.43 0.42 0.42 0.42 0.42 0.43 0.42 0.42 l 0.42,23.64 h 0.42 0.43 0.42 0.42 0.42 0.43 0.42 0.42 0.42 0.42 0.43 0.42 0.42 0.42 0.42 0.43 0.42 0.42 0.42 0.42 0.43 0.42 0.42 0.42 0.42 0.43 0.42 0.42 0.42 l 0.42,13.82 h 0.43 0.42 0.42 0.42 0.43 0.42 0.42 0.42 0.42 0.43 0.42 0.42 0.42 0.42 0.43 0.42 0.42 0.42 0.42 0.43 0.42 0.42 0.42 0.42 l 0.43,9.82 h 0.42 0.42 0.42 0.42 0.43 0.42 0.42 0.42 0.43 0.42 0.42 0.42 0.42 0.43 0.42 0.42 0.42 0.42 0.43 0.42 0.42 0.42 0.42 0.43 0.42 0.42 0.42 0.42 0.43 0.42 0.42 0.42 0.42 0.43 0.42 0.42 0.42 0.43 0.42 0.42 0.42 0.42 0.43 0.42 0.42 0.42 0.42 0.43 0.42 0.42 l 0.42,7.61 h 0.42 0.43 0.42 0.42 0.42 0.42 0.43 0.42 0.42 0.42 0.43 0.42 0.42 0.42 0.42 0.43 0.42 0.42 0.42 l 0.42,6.21 h 0.43 0.42 0.42 0.42 0.42 0.43 0.42 0.42 0.42 0.42 0.43 0.42 0.42 0.42 0.42 0.43 0.42 0.42 0.42 0.43 0.42 0.42 0.42 0.42 0.43 0.42 0.42 0.42 0.42 0.43 0.42 0.42 0.42 0.42 0.43 0.42 0.42 0.42 0.42 0.43 0.42 0.42 0.42 0.42 0.43 0.42 0.42 0.42 0.43 0.42 0.42 0.42 0.42 l 0.43,5.26 0.42,4.56 h 0.42 0.42 0.42 0.43 0.42 0.42 0.42 0.42 0.43 0.42 0.42 0.42 0.42 0.43 0.42 0.42 0.42 0.42 0.43 0.42 0.42 0.42 0.43 0.42 0.42 0.42 0.42 0.43 0.42 0.42 0.42 0.42 0.43 0.42 0.42 0.42 0.42 0.43 0.42 0.42 0.42 0.42 0.43 0.42 0.42 0.42 0.42 0.43 0.42 0.42 0.42 0.43 0.42 0.42 0.42 0.42 0.43 0.42 0.42 0.42 0.42 0.43 0.42 0.42 0.42 0.42 0.43 0.42 0.42 0.42 0.42 0.43 0.42 0.42 0.42 0.42 0.43 0.42 0.42 0.42 0.43 l 0.42,4.01 h 0.42 0.42 0.42 0.43 0.42 0.42 0.42 l 0.42,3.6 h 0.43 0.42 0.42 0.42 0.42 0.43 0.42 0.42 0.42 0.42 0.43 0.42 0.42 0.42 0.42 0.43 0.42 0.42 0.42 0.43 0.42 l 0.42,3.25 h 0.42 0.42 0.43 0.42 0.42 0.42 0.42 0.43 0.42 0.42 0.42 0.42 0.43 0.42 0.42 0.42 0.42 0.43 0.42 0.42 0.42 0.42 0.43 0.42 0.42 0.42 0.43 0.42 0.42 0.42 0.42 0.43 0.42 0.42 0.42 0.42 0.43 0.42 0.42 0.42 0.42 0.43 0.42 0.42 0.42 0.42 0.43 0.42 0.42 0.42 0.42 0.43 0.42 0.42 0.42 0.43 0.42 0.42 0.42 0.42 0.43 0.42 0.42 0.42 0.42 0.43 0.42 0.42 0.42 0.42 0.43 0.42 0.42 0.42 0.42 0.43 0.42 0.42 0.42 0.42 0.43 0.42 0.42 0.42 0.43 0.42 0.42 0.42 0.42 0.43 0.42 0.42 0.42 0.42 l 0.43,2.97 h 0.42 0.42 0.42 0.42 0.43 0.42 0.42 l 0.42,2.73 h 0.42 0.43 0.42 0.42 0.42 0.42 0.43 0.42 0.42 0.42 0.43 0.42 0.42 0.42 0.42 0.43 0.42 0.42 0.42 0.42 0.43 0.42 0.42 0.42 0.42 0.43 0.42 0.42 0.42 0.42 0.43 0.42 0.42 0.42 0.42 0.43 0.42 0.42 0.42 0.43 0.42 0.42 0.42 0.42 0.43 l 0.42,2.52 h 0.42 0.42 0.42 0.43 0.42 0.42 0.42 0.42 0.43 0.42 0.42 0.42 0.42 0.43 0.42 0.42 0.42 0.42 0.43 0.42 0.42 0.42 0.43 0.42 0.42 0.42 0.42 0.43 0.42 0.42 0.42 0.42 0.43 0.42 0.42 0.42 0.42 0.43 0.42 0.42 0.42 0.42 0.43 0.42 0.42 0.42 0.42 0.43 0.42 0.42 0.42 0.43 0.42 0.42 0.42 0.42 0.43 0.42 0.42 0.42 0.42 0.43 0.42 0.42 0.42 0.42 l 0.43,2.36 h 0.42 0.42 0.42 0.42 0.43 0.42 0.42 0.42 0.42 0.43 0.42 l 0.42,2.2 h 0.42 0.43 0.42 0.42 0.42 0.42 0.43 0.42 0.42 0.42 0.42 0.43 0.42 0.42 0.42 0.42 0.43 0.42 0.42 0.42 0.42 0.43 0.42 0.42 0.42 0.42 0.43 0.42 0.42 0.42 0.43 0.42 0.42 0.42 0.42 0.43 0.42 0.42 0.42 0.42 0.43 0.42 0.42 0.42 0.42 0.43 0.42 0.42 0.42 0.42 0.43 0.42 0.42 0.42 0.42 0.43 l 0.42,2.06 h 0.42 0.42 l 0.43,1.95 h 0.42 0.42 0.42 0.42 0.43 0.42 0.42 0.42 0.42 0.43 0.42 0.42 0.42 0.42 0.43 0.42 0.42 0.42 0.42 l 0.43,1.85 h 0.42 0.42 0.42 0.42 0.43 0.42 0.42 0.42 0.43 0.42 0.42 0.42 0.42 0.43 0.42 0.42 0.42 0.42 0.43 0.42 0.42 0.42 0.42 0.43 0.42 0.42 0.42 0.42 0.43 0.42 0.42 0.42 0.42 0.43 0.42 l 0.42,1.75 0.42,1.66 h 0.43 0.42 0.42 0.42 0.42 l 0.43,1.59 h 0.42 0.42 l 0.42,1.51 h 0.42 0.43 0.42 0.42 0.42 0.42 0.43 0.42 0.42 0.42 0.42 0.43 0.42 0.42 0.42 0.42 0.43 l 0.42,1.46 0.42,1.39 0.42,1.34 h 0.43 l 0.42,1.28 h 0.42 l 0.42,2.44 h 0.42 0.43 0.42 0.42 0.42 0.42 0.43 0.42 0.42 0.42 0.42 0.43 0.42 0.42 0.42 0.42 0.43 0.42 0.42 0.42 l 0.42,1.16 h 0.43 0.42 0.42 0.42 0.43 0.42 0.42 0.42 0.42 0.43 0.42 0.42 0.42 0.42 0.43 0.42 0.42 0.42 0.42 0.43 0.42 0.42 0.42 0.42 0.43 0.42 0.42 0.42 0.42 0.43 0.42 l 0.42,1.11 h 0.42 0.43 0.42 0.42 0.42 0.42 0.43 0.42 0.42 0.42 0.42 0.43 l 0.42,1.09 h 0.42 0.42 0.42 0.43 0.42 0.42 0.42 0.42 0.43 0.42 0.42 0.42 0.42 0.43 0.42 0.42 0.42 l 0.43,1.05 h 0.42 0.42 l 0.42,1.01 h 0.42 0.43 0.42 0.42 0.42 0.42 0.43 l 0.42,0.99 0.42,0.96 h 0.42 l 0.42,0.94 h 0.43 0.42 0.42 0.42 0.42 0.43 0.42 0.42 0.42 0.42 0.43 0.42 0.42 l 0.42,0.91 h 0.43 0.42 0.42 0.42 l 0.42,0.88 h 0.43 0.42 0.42 0.42 0.42 0.43 0.42 0.42 0.42 0.42 l 0.43,0.87 h 0.42 0.42 0.42 0.42 0.43 0.42 0.42 0.42 0.42 0.43 0.42 0.42 0.42 0.43 l 0.42,0.84 h 0.42 0.42 0.42 0.43 0.42 0.42 0.42 0.42 0.43 0.42 0.42 0.42 0.42 0.43 0.42 0.42 0.42 0.42 0.43 0.42 0.42 0.42 l 0.42,0.82 h 0.43 0.42 0.42 0.42 0.43 l 0.42,0.8 h 0.42 0.42 l 0.42,0.79 0.43,0.76 0.42,0.75 h 0.42 l 0.42,0.74 h 0.42 l 0.43,0.72 h 0.42 0.42 0.42 0.42 0.43 0.42 l 0.42,0.7 0.42,1.36 0.42,0.67 h 0.43 0.42 0.42 0.42 l 0.42,0.65 h 0.43 l 0.42,0.63 h 0.42 0.42 l 0.43,0.63 0.42,0.61 h 0.42 0.42 l 0.42,0.61 0.43,1.17 h 0.42 0.42 0.42 0.42 0.43 l 0.42,0.58 h 0.42 l 0.42,0.56 h 0.42 0.43 0.42 l 0.42,0.55 h 0.42 0.42 l 0.43,0.55 0.42,1.59 0.42,0.51 h 0.42 0.43 0.42 l 0.42,1 h 0.42 l 0.42,0.49 0.43,0.49 h 0.42 0.42 0.42 0.42 0.43 l 0.42,0.47 h 0.42 l 0.42,0.94 0.42,0.46 0.43,0.45 h 0.42 0.42 0.42 l 0.42,0.44 h 0.43 0.42 0.42 l 0.42,0.88 0.42,0.85 0.43,0.42 h 0.42 l 0.42,0.41 h 0.42 l 0.43,0.41 h 0.42 0.42 l 0.42,1.2 h 0.42 0.43 0.42 0.42 l 0.42,0.39 h 0.42 0.43 l 0.42,0.38 0.42,0.76 0.42,0.37 h 0.42 0.43 l 0.42,0.74 0.42,0.36 0.42,0.71 h 0.42 0.43 l 0.42,0.35 0.42,0.35 0.42,0.34 0.42,0.34 h 0.43 0.42 l 0.42,0.33 h 0.42 0.43 0.42 0.42 l 0.42,0.34 h 0.42 0.43 0.42 0.42 l 0.42,0.33 h 0.42 0.43 l 0.42,0.65 h 0.42 l 0.42,0.32 0.42,0.31 0.43,0.32 0.42,0.31 h 0.42 0.42 l 0.42,0.31 h 0.43 0.42 0.42 0.42 0.42 l 0.43,0.3 0.42,0.31 h 0.42 l 0.42,0.3 h 0.43 l 0.42,0.29 h 0.42 l 0.42,0.3 h 0.42 0.43 0.42 0.42 0.42 l 0.42,0.29 0.43,0.87 0.42,0.28 h 0.42 l 0.42,0.28 h 0.42 0.43 0.42 0.42 0.42 l 0.42,0.55 h 0.43 0.42 0.42 l 0.42,0.28 h 0.42 0.43 l 0.42,0.27 h 0.42 l 0.42,0.27 h 0.43 l 0.42,0.27 h 0.42 0.42 0.42 0.43 0.42 0.42 0.42 0.42 0.43 0.42 0.42 0.42 0.42 0.43 0.42 0.42 0.42 0.42"
           style="fill:none;stroke:#66c2a5;stroke-width:3;stroke-linecap:round;stroke-linejoin:round;stroke-miterlimit:10;stroke-dasharray:none;stroke-opacity:1"
           id="path1784" /><path
           d="m 506.91,82.86 h 0.42 0.42 0.42 0.42 0.43 0.42 0.42 0.42 0.42 0.43 0.42 0.42 0.42 0.42 0.43 0.42 0.42 0.42 0.42 0.43 0.42 0.42 0.42 0.42 0.43 0.42 0.42 0.42 0.43 0.42 0.42 0.42 0.42 0.43 0.42 0.42 0.42 0.42 0.43 0.42 0.42 0.42 0.42 0.43 0.42 0.42 0.42 0.42 0.43 0.42 0.42 0.42 0.42 0.43 0.42 0.42 0.42 0.43 0.42 0.42 0.42 0.42 0.43 0.42 0.42 0.42 0.42 0.43 0.42 0.42 0.42 0.42 0.43 0.42 0.42 0.42 0.42 0.43 0.42 0.42 0.42 0.42 0.43 0.42 0.42 0.42 0.43 0.42 0.42 0.42 0.42 0.43 0.42 0.42 0.42 0.42 0.43 0.42 0.42 0.42 0.42 0.43 0.42 0.42 0.42 0.42 0.43 0.42 0.42 0.42 0.42 0.43 0.42 0.42 0.42 0.43 0.42 0.42 0.42 0.42 0.43 0.42 0.42 0.42 0.42 0.43 0.42 0.42 0.42 0.42 0.43 0.42 0.42 0.42 0.42 0.43 0.42 0.42 0.42 0.43 0.42 0.42 0.42 0.42 0.43 0.42 0.42 0.42 0.42 0.43 0.42 0.42 0.42 0.42 0.43 0.42 0.42 0.42 0.42 0.43 0.42 0.42 0.42 0.42 0.43 0.42 0.42 0.42 0.43 0.42 0.42 0.42 0.42 0.43 0.42 0.42 0.42 0.42 0.43 0.42 0.42 0.42 0.42 0.43 0.42 0.42 0.42 0.42 0.43 0.42 0.42 0.42 0.42 0.43 0.42 0.42 0.42 0.43 0.42 0.42 0.42 0.42 0.43 0.42 0.42 0.42 0.42 0.43 0.42 0.42 0.42 0.42 0.43 0.42 0.42 0.42 0.42 0.43 0.42 0.42 0.42 0.42 0.43 0.42 0.42 0.42 0.43 0.42 0.42 0.42 0.42 0.43 0.42 0.42 0.42 0.42 0.43 0.42 0.42 0.42 0.42 0.43 0.42 0.42 0.42 0.42 0.43 0.42 0.42 0.42 0.42 0.43 0.42 0.42 0.42 0.43 0.42 0.42 0.42 0.42 0.43 0.42 0.42 0.42 0.42 0.43 0.42 0.42 0.42 0.42 0.43 0.42 0.42 0.42 0.42 l 0.43,23.64 h 0.42 0.42 0.42 0.42 0.43 0.42 0.42 0.42 0.43 0.42 0.42 0.42 0.42 0.43 0.42 0.42 0.42 0.42 0.43 0.42 0.42 0.42 0.42 0.43 0.42 0.42 0.42 0.42 0.43 0.42 0.42 0.42 0.42 0.43 0.42 0.42 0.42 0.43 0.42 0.42 0.42 0.42 0.43 0.42 0.42 0.42 0.42 0.43 0.42 0.42 0.42 0.42 0.43 0.42 0.42 0.42 0.42 0.43 0.42 0.42 0.42 0.42 0.43 0.42 0.42 0.42 0.43 0.42 0.42 0.42 0.42 0.43 0.42 0.42 0.42 0.42 0.43 0.42 0.42 0.42 0.42 0.43 0.42 0.42 0.42 0.42 0.43 0.42 0.42 0.42 0.42 0.43 0.42 0.42 l 0.42,13.82 h 0.43 0.42 0.42 0.42 0.42 0.43 0.42 0.42 0.42 0.42 0.43 0.42 0.42 0.42 0.42 0.43 0.42 0.42 0.42 0.42 0.43 0.42 0.42 0.42 0.42 0.43 0.42 0.42 0.42 0.43 0.42 0.42 0.42 0.42 0.43 0.42 0.42 0.42 0.42 0.43 0.42 0.42 0.42 0.42 0.43 l 0.42,9.82 h 0.42 0.42 0.42 0.43 0.42 0.42 0.42 0.42 0.43 0.42 0.42 0.42 0.43 0.42 0.42 0.42 0.42 0.43 0.42 0.42 0.42 0.42 0.43 0.42 0.42 0.42 0.42 0.43 0.42 0.42 0.42 0.42 0.43 0.42 0.42 0.42 0.42 0.43 0.42 0.42 0.42 0.43 0.42 0.42 0.42 0.42 0.43 0.42 0.42 0.42 0.42 0.43 0.42 0.42 0.42 0.42 0.43 0.42 0.42 0.42 0.42 0.43 0.42 0.42 0.42 0.42 0.43 0.42 0.42 0.42 0.43 0.42 0.42 0.42 0.42 0.43 0.42 0.42 0.42 0.42 0.43 0.42 0.42 0.42 0.42 0.43 0.42 0.42 0.42 l 0.42,7.61 h 0.43 0.42 0.42 0.42 0.42 0.43 0.42 0.42 0.42 0.43 0.42 0.42 l 0.42,6.21 h 0.42 0.43 0.42 0.42 0.42 0.42 0.43 0.42 0.42 0.42 0.42 l 0.43,5.26 h 0.42 0.42 0.42 0.42 0.43 0.42 0.42 0.42 0.42 0.43 0.42 0.42 0.42 0.43 0.42 0.42 0.42 0.42 0.43 0.42 0.42 0.42 0.42 0.43 0.42 0.42 0.42 0.42 0.43 0.42 0.42 0.42 0.42 0.43 0.42 0.42 0.42 l 0.42,4.56 h 0.43 0.42 0.42 0.42 0.43 0.42 0.42 0.42 0.42 0.43 l 0.42,4.01 h 0.42 0.42 0.42 0.43 0.42 0.42 0.42 0.42 0.43 0.42 0.42 0.42 0.42 0.43 0.42 0.42 0.42 0.42 0.43 0.42 0.42 0.42 0.43 0.42 0.42 0.42 0.42 0.43 0.42 0.42 0.42 0.42 0.43 0.42 0.42 0.42 0.42 0.43 0.42 0.42 0.42 0.42 0.43 0.42 0.42 0.42 0.42 0.43 0.42 0.42 0.42 0.43 0.42 0.42 0.42 0.42 0.43 0.42 0.42 0.42 0.42 0.43 0.42 0.42 0.42 0.42 0.43 0.42 0.42 0.42 0.42 0.43 0.42 0.42 0.42 0.42 l 0.43,3.6 h 0.42 0.42 0.42 0.43 0.42 0.42 0.42 0.42 0.43 0.42 0.42 0.42 0.42 0.43 0.42 0.42 0.42 0.42 0.43 0.42 0.42 0.42 0.42 0.43 0.42 0.42 0.42 0.42 0.43 0.42 0.42 0.42 0.43 0.42 0.42 0.42 0.42 0.43 0.42 0.42 0.42 0.42 0.43 0.42 0.42 0.42 0.42 0.43 0.42 0.42 0.42 0.42 0.43 0.42 0.42 0.42 0.42 0.43 0.42 0.42 0.42 0.43 0.42 0.42 0.42 0.42 0.43 0.42 0.42 0.42 0.42 0.43 0.42 0.42 0.42 0.42 0.43 0.42 0.42 0.42 0.42 0.43 0.42 0.42 0.42 0.42 0.43 0.42 0.42 0.42 0.43 0.42 0.42 0.42 0.42 0.43 0.42 0.42 0.42 0.42 0.43 0.42 0.42 0.42 0.42 0.43 0.42 0.42 0.42 0.42 0.43 0.42 0.42 0.42 0.42 0.43 0.42 0.42 0.42 0.43 0.42 0.42 0.42 0.42 0.43 0.42 0.42 0.42 0.42 0.43 0.42 0.42 0.42 0.42 0.43 0.42 0.42 0.42 0.42 0.43 0.42 0.42 0.42 0.42 0.43 0.42 0.42 0.42 0.43 0.42 0.42 0.42 0.42 0.43 0.42 l 0.42,3.25 h 0.42 0.42 0.43 0.42 0.42 0.42 0.42 0.43 0.42 0.42 0.42 0.42 0.43 0.42 0.42 0.42 0.42 0.43 0.42 0.42 0.42 0.43 0.42 0.42 0.42 0.42 0.43 0.42 0.42 0.42 0.42 0.43 0.42 0.42 0.42 0.42 0.43 0.42 0.42 0.42 0.42 0.43 0.42 0.42 0.42 0.42 0.43 0.42 0.42 0.42 0.43 0.42 0.42 0.42 0.42 0.43 0.42 0.42 0.42 0.42 0.43 0.42 0.42 0.42 0.42 0.43 0.42 0.42 0.42 l 0.42,2.97 h 0.43 0.42 0.42 0.42 0.42 l 0.43,2.73 h 0.42 0.42 0.42 0.43 l 0.42,2.52 h 0.42 0.42 0.42 0.43 l 0.42,2.36 h 0.42 0.42 0.42 0.43 0.42 0.42 0.42 0.42 0.43 0.42 0.42 0.42 0.42 l 0.43,2.2 h 0.42 0.42 0.42 0.43 0.42 0.42 0.42 0.42 0.43 0.42 0.42 0.42 0.42 0.43 0.42 0.42 0.42 0.42 0.43 0.42 0.42 0.42 0.42 0.43 0.42 0.42 0.42 0.42 0.43 0.42 0.42 0.42 0.43 0.42 0.42 0.42 0.42 0.43 0.42 0.42 0.42 0.42 0.43 0.42 l 0.42,4.01 h 0.42 0.42 0.43 0.42 0.42 0.42 0.42 l 0.43,1.85 h 0.42 0.42 0.42 0.42 0.43 0.42 0.42 0.42 0.43 0.42 0.42 0.42 0.42 0.43 0.42 0.42 0.42 0.42 0.43 l 0.42,1.75 h 0.42 0.42 0.42 0.43 0.42 0.42 0.42 0.42 0.43 0.42 0.42 0.42 0.42 0.43 0.42 0.42 0.42 l 0.43,1.66 h 0.42 0.42 0.42 0.42 0.43 l 0.42,1.59 0.42,1.51 0.42,1.46 0.42,1.39 0.43,1.34 h 0.42 0.42 0.42 0.42 0.43 0.42 0.42 0.42 l 0.42,1.28 h 0.43 0.42 l 0.42,1.24 h 0.42 0.42 0.43 0.42 l 0.42,1.2 h 0.42 0.43 0.42 0.42 0.42 0.42 0.43 0.42 0.42 0.42 0.42 0.43 0.42 0.42 0.42 0.42 0.43 0.42 0.42 0.42 0.42"
           style="fill:none;stroke:#8da0cb;stroke-width:3;stroke-linecap:round;stroke-linejoin:round;stroke-miterlimit:10;stroke-dasharray:none;stroke-opacity:1"
           id="path1786" /><path
           d="m 159.54,82.86 h 0.42 0.43 0.42 0.42 0.42 0.42 0.43 0.42 0.42 0.42 0.42 0.43 0.42 0.42 0.42 0.43 0.42 0.42 0.42 0.42 0.43 0.42 0.42 0.42 0.42 0.43 0.42 0.42 0.42 0.42 0.43 0.42 0.42 0.42 0.42 0.43 0.42 0.42 0.42 l 0.42,23.64 h 0.43 0.42 0.42 0.42 0.43 0.42 0.42 0.42 0.42 0.43 0.42 0.42 0.42 0.42 0.43 0.42 0.42 0.42 0.42 0.43 0.42 0.42 0.42 0.42 0.43 0.42 0.42 0.42 0.42 0.43 0.42 0.42 0.42 0.43 0.42 0.42 0.42 0.42 0.43 0.42 0.42 0.42 0.42 0.43 0.42 0.42 0.42 0.42 0.43 0.42 0.42 0.42 0.42 0.43 0.42 0.42 0.42 0.42 0.43 0.42 0.42 0.42 0.43 0.42 0.42 0.42 0.42 0.43 0.42 0.42 0.42 0.42 0.43 0.42 0.42 0.42 0.42 0.43 0.42 0.42 0.42 0.42 0.43 0.42 0.42 0.42 0.42 0.43 0.42 0.42 0.42 0.43 0.42 0.42 0.42 0.42 0.43 0.42 0.42 0.42 0.42 0.43 0.42 0.42 0.42 0.42 0.43 0.42 0.42 0.42 0.42 0.43 0.42 0.42 0.42 0.42 0.43 0.42 0.42 0.42 0.43 0.42 0.42 0.42 0.42 0.43 0.42 0.42 0.42 0.42 0.43 0.42 0.42 0.42 0.42 0.43 0.42 0.42 0.42 0.42 0.43 0.42 0.42 0.42 0.43 0.42 0.42 l 0.42,13.82 h 0.42 0.43 0.42 0.42 0.42 0.42 0.43 0.42 0.42 0.42 0.42 0.43 0.42 0.42 0.42 0.42 0.43 0.42 0.42 0.42 0.42 0.43 0.42 0.42 0.42 0.43 0.42 0.42 0.42 0.42 0.43 0.42 0.42 0.42 0.42 0.43 0.42 0.42 0.42 0.42 0.43 0.42 0.42 0.42 0.42 0.43 0.42 0.42 0.42 0.42 0.43 0.42 0.42 0.42 0.43 0.42 0.42 0.42 0.42 0.43 0.42 0.42 0.42 0.42 0.43 0.42 0.42 0.42 0.42 0.43 0.42 0.42 0.42 0.42 0.43 0.42 0.42 0.42 0.42 0.43 0.42 0.42 0.42 0.43 0.42 0.42 0.42 0.42 0.43 0.42 0.42 0.42 0.42 0.43 0.42 0.42 0.42 0.42 0.43 0.42 0.42 0.42 0.42 0.43 0.42 0.42 0.42 0.42 0.43 0.42 0.42 0.42 0.43 0.42 0.42 0.42 0.42 0.43 0.42 0.42 0.42 0.42 0.43 0.42 0.42 0.42 0.42 0.43 0.42 0.42 0.42 0.42 0.43 0.42 0.42 0.42 0.42 0.43 0.42 0.42 0.42 0.43 0.42 0.42 0.42 0.42 0.43 0.42 0.42 0.42 0.42 0.43 0.42 0.42 0.42 0.42 0.43 0.42 0.42 0.42 0.42 0.43 0.42 0.42 0.42 0.42 0.43 0.42 0.42 0.42 0.43 0.42 0.42 0.42 0.42 0.43 0.42 0.42 0.42 0.42 0.43 0.42 0.42 0.42 0.42 0.43 0.42 0.42 0.42 0.42 0.43 0.42 0.42 0.42 0.42 0.43 0.42 0.42 0.42 0.43 l 0.42,9.82 h 0.42 0.42 0.42 0.43 0.42 0.42 0.42 0.42 0.43 0.42 0.42 0.42 0.42 0.43 0.42 0.42 0.42 0.42 0.43 0.42 0.42 0.42 0.42 0.43 0.42 0.42 0.42 0.43 0.42 0.42 0.42 0.42 0.43 0.42 0.42 0.42 0.42 0.43 0.42 0.42 0.42 0.42 0.43 0.42 0.42 0.42 0.42 0.43 0.42 0.42 0.42 0.42 0.43 0.42 0.42 0.42 0.43 0.42 0.42 0.42 0.42 0.43 0.42 0.42 0.42 0.42 0.43 0.42 0.42 0.42 0.42 0.43 0.42 0.42 0.42 0.42 0.43 0.42 0.42 0.42 0.42 0.43 0.42 0.42 0.42 0.43 0.42 0.42 0.42 0.42 0.43 0.42 0.42 0.42 0.42 0.43 0.42 0.42 0.42 0.42 0.43 0.42 0.42 0.42 0.42 0.43 0.42 0.42 0.42 0.42 0.43 0.42 0.42 0.42 0.43 0.42 0.42 0.42 0.42 0.43 0.42 0.42 0.42 0.42 0.43 0.42 0.42 0.42 0.42 0.43 0.42 0.42 0.42 0.42 0.43 0.42 0.42 0.42 0.42 0.43 0.42 0.42 0.42 0.43 0.42 0.42 0.42 0.42 0.43 0.42 0.42 0.42 0.42 0.43 0.42 0.42 0.42 0.42 0.43 0.42 0.42 0.42 0.42 0.43 0.42 0.42 0.42 0.42 0.43 0.42 0.42 0.42 0.43 0.42 0.42 0.42 0.42 0.43 0.42 0.42 0.42 0.42 0.43 0.42 0.42 0.42 0.42 0.43 0.42 0.42 0.42 0.42 0.43 0.42 0.42 0.42 0.42 0.43 0.42 0.42 l 0.42,7.61 h 0.43 0.42 0.42 0.42 0.42 0.43 0.42 0.42 0.42 0.42 0.43 0.42 0.42 0.42 0.42 0.43 0.42 0.42 0.42 0.42 0.43 0.42 0.42 0.42 0.42 0.43 0.42 0.42 0.42 0.43 0.42 0.42 0.42 0.42 0.43 0.42 0.42 0.42 0.42 0.43 0.42 0.42 0.42 0.42 0.43 0.42 0.42 0.42 0.42 0.43 0.42 0.42 0.42 0.42 0.43 0.42 0.42 0.42 0.43 0.42 0.42 0.42 0.42 0.43 0.42 0.42 0.42 0.42 0.43 0.42 0.42 0.42 0.42 0.43 0.42 0.42 0.42 0.42 0.43 0.42 0.42 0.42 0.42 0.43 0.42 0.42 0.42 0.43 0.42 l 0.42,6.21 h 0.42 0.42 0.43 0.42 0.42 0.42 0.42 0.43 0.42 0.42 0.42 0.42 0.43 0.42 0.42 0.42 0.42 0.43 0.42 0.42 0.42 0.42 0.43 0.42 0.42 0.42 0.43 0.42 0.42 0.42 0.42 0.43 0.42 l 0.42,5.26 h 0.42 0.42 0.43 0.42 0.42 0.42 0.42 0.43 0.42 0.42 0.42 0.42 0.43 l 0.42,4.56 h 0.42 0.42 0.42 l 0.43,4.01 h 0.42 0.42 0.42 0.43 0.42 0.42 0.42 0.42 0.43 0.42 0.42 0.42 0.42 0.43 0.42 0.42 0.42 0.42 0.43 0.42 0.42 0.42 0.42 0.43 0.42 0.42 0.42 0.42 0.43 0.42 0.42 l 0.42,3.6 h 0.43 0.42 0.42 0.42 0.42 0.43 0.42 0.42 0.42 0.42 0.43 0.42 0.42 0.42 0.42 0.43 0.42 0.42 0.42 0.42 0.43 0.42 0.42 0.42 0.42 0.43 0.42 0.42 0.42 0.43 0.42 0.42 0.42 0.42 0.43 0.42 0.42 0.42 0.42 0.43 0.42 0.42 0.42 0.42 0.43 0.42 0.42 0.42 0.42 0.43 0.42 0.42 0.42 0.42 l 0.43,3.25 h 0.42 0.42 0.42 0.43 0.42 0.42 0.42 0.42 0.43 0.42 0.42 0.42 0.42 0.43 0.42 0.42 0.42 0.42 0.43 0.42 l 0.42,2.97 h 0.42 0.42 0.43 0.42 0.42 0.42 0.42 0.43 0.42 0.42 0.42 0.43 0.42 0.42 0.42 0.42 0.43 0.42 0.42 0.42 0.42 0.43 0.42 0.42 0.42 0.42 0.43 0.42 0.42 0.42 0.42 0.43 0.42 0.42 0.42 0.42 0.43 0.42 0.42 0.42 0.43 0.42 0.42 0.42 0.42 0.43 0.42 0.42 0.42 0.42 0.43 0.42 0.42 0.42 0.42 0.43 0.42 0.42 0.42 0.42 0.43 0.42 0.42 0.42 0.42 0.43 0.42 0.42 0.42 0.43 0.42 0.42 0.42 0.42 0.43 0.42 0.42 0.42 0.42 0.43 0.42 0.42 0.42 0.42 0.43 0.42 0.42 0.42 0.42 0.43 0.42 0.42 0.42 0.42 0.43 0.42 0.42 0.42 0.43 0.42 0.42 0.42 0.42 0.43 0.42 0.42 0.42 0.42 0.43 0.42 0.42 0.42 0.42 0.43 0.42 0.42 0.42 0.42 0.43 0.42 0.42 0.42 0.43 0.42 0.42 0.42 0.42 0.43 0.42 0.42 0.42 0.42 0.43 0.42 0.42 0.42 0.42 0.43 0.42 0.42 0.42 0.42 0.43 0.42 0.42 0.42 0.42 0.43 0.42 0.42 0.42 0.43 0.42 0.42 0.42 0.42 0.43 0.42 0.42 0.42 0.42 0.43 0.42 0.42 0.42 0.42 0.43 0.42 0.42 0.42 0.42 0.43 0.42 0.42 0.42 0.42 0.43 0.42 0.42 0.42 0.43 0.42 0.42 0.42 0.42 0.43 0.42 0.42 0.42 0.42 0.43 0.42 0.42 0.42 0.42 0.43 0.42 0.42 0.42 0.42 0.43 0.42 0.42 0.42 0.42 0.43 0.42 0.42 0.42 0.43 0.42 0.42 0.42 0.42 0.43 0.42 0.42 0.42 0.42 0.43 0.42 0.42 0.42 0.42 0.43 0.42 0.42 0.42 0.42 0.43 0.42 0.42 0.42 0.42 0.43 0.42 0.42 0.42 0.43 0.42 0.42 0.42 0.42 0.43 0.42 0.42 0.42 0.42 0.43 0.42 0.42 0.42 0.42 0.43 0.42 0.42 0.42 0.42 0.43 0.42 0.42 0.42 0.42 0.43 0.42 0.42 0.42 0.43 0.42 0.42 0.42 0.42 0.43 0.42 0.42 0.42 0.42 0.43 0.42 0.42 0.42 0.42 0.43 0.42 0.42 0.42 0.42 0.43 0.42 0.42 0.42 0.42 0.43 0.42 0.42 0.42 0.43 0.42 0.42 0.42 0.42 0.43 0.42 0.42 0.42 0.42 0.43 0.42 0.42 0.42 0.42 0.43 0.42 0.42 0.42 0.42 0.43 0.42 0.42 0.42 0.42 0.43 0.42 0.42 0.42 0.43 0.42 0.42 0.42 0.42 0.43 0.42 0.42 0.42 0.42 0.43 0.42 0.42 0.42 0.42 0.43 0.42 0.42 0.42 0.42 0.43 0.42 0.42 0.42 0.42 0.43 0.42 0.42 0.42 0.43 0.42 0.42 0.42 0.42 0.43 0.42 0.42 0.42 0.42 0.43 0.42 0.42 0.42 0.42 0.43 0.42 0.42 0.42 0.42 0.43 0.42 0.42 0.42 0.42 0.43 0.42 0.42 0.42 0.43 0.42 0.42 0.42 0.42 0.43 0.42 0.42 0.42 0.42 0.43 0.42 0.42 0.42 0.42 0.43 0.42 0.42 0.42 0.42 0.43 0.42 0.42 0.42 0.42 0.43 0.42 0.42 0.42 0.43 0.42 0.42 0.42 0.42 0.43 0.42 0.42 0.42 0.42 0.43 0.42 0.42 0.42 0.42 0.43 0.42 0.42 0.42 0.42 0.43 0.42 0.42 0.42 0.42 0.43 0.42 0.42 0.42 0.43 0.42 0.42 0.42 0.42 0.43 0.42 0.42 0.42 0.42 0.43 0.42 0.42 0.42 0.42 0.43 0.42 0.42 0.42 0.42 0.43 0.42 0.42 0.42 0.42 0.43 0.42 0.42 0.42 0.43 0.42 0.42 0.42 0.42 0.43 0.42 0.42 0.42 0.42 0.43 0.42 0.42 0.42 0.42 0.43 0.42 0.42 0.42 0.42 0.43 0.42 0.42 0.42 0.42 0.43 0.42 0.42 0.42 0.43 0.42 0.42 0.42 0.42 0.43 0.42 0.42 0.42 0.42 0.43 0.42 0.42 0.42 0.42 0.43 0.42 0.42 0.42 0.42 0.43 0.42 0.42 0.42 0.42 0.43 0.42 0.42 0.42 0.43 0.42 0.42 0.42 0.42 0.43 0.42 0.42 0.42 0.42 0.43 0.42 0.42 0.42 0.42 0.43 0.42 0.42 0.42 0.42 0.43 0.42 0.42 0.42 0.42 0.43 0.42 0.42 0.42 0.43 0.42 0.42 0.42 0.42 0.43 0.42 0.42 0.42 0.42 0.43 0.42 0.42 0.42 0.42 0.43 0.42 0.42 0.42 0.42 0.43 0.42 0.42 0.42 0.42 0.43 0.42 0.42 0.42 0.43 0.42 0.42 0.42 0.42 0.43 0.42 0.42 0.42 0.42 0.43 0.42 0.42 0.42 0.42 0.43 0.42 0.42 0.42 0.42 0.43 0.42 0.42 0.42 0.42 0.43 0.42 0.42 0.42 0.43 0.42 0.42 0.42 0.42 0.43 0.42 0.42 0.42 0.42 0.43 0.42 0.42 0.42 0.42 0.43 0.42 0.42 0.42 0.42 0.43 0.42 0.42 0.42 0.42 0.43 0.42 0.42 0.42 0.43 0.42 0.42 0.42 0.42 0.43 0.42 0.42 0.42 0.42 0.43 0.42 0.42 0.42 0.42 0.43 0.42 0.42 0.42 0.42 0.43 0.42 0.42 0.42 0.42 0.43 0.42 0.42 0.42 0.43 0.42 0.42 0.42 0.42 0.43 0.42 0.42 0.42 0.42 0.43 0.42 0.42 0.42 0.42 0.43 0.42 0.42 0.42 0.42 0.43 0.42 0.42 0.42 0.42 0.43 0.42 0.42 0.42 0.43 0.42 0.42 0.42 0.42 0.43 0.42 0.42 0.42 0.42 0.43 0.42 0.42 0.42 0.42 0.43 0.42 0.42 0.42 0.42 0.43 0.42 0.42 0.42 0.42 0.43 0.42 0.42 0.42 0.43 0.42 0.42 0.42 0.42 0.43 0.42 0.42 0.42 0.42 0.43 0.42 0.42 0.42 0.42 0.43 0.42 0.42 0.42 0.42 0.43 0.42 0.42 0.42 0.42 0.43 0.42 0.42 0.42 0.43 0.42 0.42 0.42 0.42 0.43 0.42 0.42 0.42 0.42 0.43 0.42 0.42 0.42 0.42 0.43 0.42 0.42 0.42 0.42 0.43 0.42 0.42 0.42 0.42 0.43 0.42 0.42 0.42 0.43 0.42 0.42 0.42 0.42 0.43 0.42 0.42 0.42 0.42 0.43 0.42 0.42 0.42 0.42 0.43 0.42 0.42 0.42 0.42 0.43 0.42 0.42 0.42 0.42 0.43 0.42 0.42 0.42 0.43 0.42 0.42 0.42 0.42 0.43 0.42 0.42 0.42 0.42 0.43 0.42 0.42 0.42 0.42 0.43 0.42 0.42 0.42 0.42 0.43 0.42 0.42 0.42 0.42 0.43 0.42 0.42 0.42 0.43 0.42 0.42 0.42 0.42 0.43 0.42 0.42 0.42 0.42 0.43 0.42 0.42 0.42 0.42 0.43 0.42 0.42 0.42 0.42 0.43 0.42 0.42 0.42 0.42 0.43 0.42 0.42 0.42 0.43 0.42 0.42 0.42 0.42 0.43 0.42 0.42 0.42 0.42 0.43 0.42 0.42 0.42 0.42 0.43 0.42 0.42 0.42 0.42 0.43 0.42 0.42 0.42 0.43 0.42 0.42 0.42 0.42 0.43 0.42 0.42 0.42 0.42 0.43 0.42 0.42 0.42 0.42 0.43 0.42 0.42 0.42 0.42 0.43 0.42 0.42 0.42 0.42 0.43 0.42 0.42 0.42 0.43 0.42 0.42 0.42 0.42 0.43 0.42 0.42 0.42 0.42 0.43 0.42 0.42 0.42 0.42 0.43 0.42 0.42 0.42 0.42 0.43 0.42 0.42 0.42 0.42 0.43 0.42 0.42 0.42 0.43 0.42 0.42 0.42 0.42 0.43 0.42 0.42 0.42 0.42 0.43 0.42 0.42 0.42 0.42 0.43 0.42 0.42 0.42 0.42 0.43 0.42 0.42 0.42 0.42 0.43 0.42 0.42 0.42 0.43 0.42 0.42 0.42 0.42 0.43 0.42 0.42 0.42 0.42 0.43 0.42 0.42 0.42 0.42 0.43 0.42 0.42 0.42 0.42 0.43 0.42 0.42 0.42 0.42 0.43 0.42 0.42 0.42 0.43 0.42 0.42 0.42 0.42 0.43 0.42 0.42 0.42 0.42 0.43 0.42 0.42 0.42 0.42 0.43 0.42 0.42 0.42 0.42"
           style="fill:none;stroke:#fc8d62;stroke-width:3;stroke-linecap:round;stroke-linejoin:round;stroke-miterlimit:10;stroke-dasharray:0, 12, 9, 12;stroke-dashoffset:0;stroke-opacity:1"
           id="path1788" /><path
           d="m 140.97,82.86 h 0.42 0.43 0.42 0.42 0.42 0.42 0.43 0.42 0.42 0.42 0.42 0.43 0.42 0.42 0.42 0.42 0.43 0.42 0.42 0.42 0.42 0.43 0.42 0.42 0.42 0.42 0.43 0.42 0.42 0.42 0.43 0.42 0.42 0.42 0.42 0.43 0.42 0.42 0.42 0.42 0.43 0.42 0.42 0.42 0.42 0.43 0.42 0.42 0.42 0.42 0.43 0.42 0.42 0.42 0.42 0.43 0.42 0.42 0.42 0.43 0.42 0.42 0.42 0.42 l 0.43,23.64 h 0.42 0.42 0.42 0.42 0.43 0.42 0.42 0.42 0.42 0.43 0.42 0.42 0.42 0.42 0.43 0.42 0.42 0.42 0.42 0.43 0.42 0.42 0.42 0.43 0.42 0.42 0.42 0.42 0.43 0.42 0.42 0.42 0.42 0.43 0.42 0.42 0.42 0.42 0.43 0.42 0.42 0.42 0.42 0.43 0.42 0.42 0.42 0.42 0.43 0.42 0.42 0.42 0.43 0.42 0.42 0.42 0.42 0.43 0.42 l 0.42,13.82 h 0.42 0.42 0.43 0.42 0.42 0.42 0.42 0.43 0.42 0.42 0.42 0.42 0.43 0.42 0.42 0.42 0.42 0.43 0.42 0.42 0.42 0.43 l 0.42,9.82 h 0.42 0.42 0.42 0.43 0.42 0.42 0.42 0.42 0.43 0.42 0.42 0.42 0.42 0.43 0.42 0.42 0.42 0.42 0.43 0.42 0.42 0.42 l 0.42,7.61 h 0.43 0.42 0.42 0.42 0.43 0.42 0.42 0.42 0.42 0.43 0.42 0.42 0.42 0.42 0.43 0.42 0.42 0.42 0.42 0.43 0.42 0.42 0.42 0.42 0.43 0.42 0.42 0.42 0.42 0.43 0.42 0.42 0.42 0.43 0.42 0.42 0.42 0.42 0.43 0.42 0.42 0.42 0.42 0.43 0.42 0.42 0.42 0.42 0.43 0.42 0.42 0.42 0.42 0.43 0.42 0.42 0.42 0.43 0.42 0.42 0.42 0.42 0.43 0.42 0.42 0.42 0.42 0.43 0.42 0.42 0.42 0.42 0.43 0.42 0.42 0.42 0.42 0.43 0.42 0.42 0.42 0.42 0.43 0.42 0.42 0.42 0.43 0.42 0.42 0.42 0.42 0.43 0.42 0.42 0.42 0.42 0.43 0.42 0.42 0.42 0.42 0.43 0.42 0.42 0.42 0.42 0.43 0.42 0.42 0.42 0.42 0.43 0.42 0.42 0.42 0.43 0.42 0.42 l 0.42,6.21 h 0.42 0.43 0.42 0.42 0.42 0.42 0.43 0.42 0.42 0.42 0.42 0.43 0.42 0.42 0.42 0.42 0.43 0.42 0.42 0.42 0.42 0.43 0.42 0.42 0.42 0.43 0.42 0.42 0.42 0.42 0.43 0.42 0.42 0.42 0.42 0.43 0.42 0.42 0.42 0.42 0.43 l 0.42,5.26 h 0.42 0.42 0.42 0.43 0.42 0.42 0.42 0.42 0.43 0.42 0.42 0.42 0.43 0.42 0.42 0.42 0.42 0.43 0.42 0.42 0.42 0.42 0.43 0.42 0.42 0.42 0.42 0.43 0.42 0.42 0.42 0.42 0.43 0.42 0.42 0.42 0.42 0.43 0.42 0.42 0.42 0.43 0.42 0.42 0.42 0.42 0.43 0.42 0.42 0.42 0.42 0.43 0.42 0.42 0.42 0.42 0.43 0.42 0.42 0.42 0.42 0.43 0.42 0.42 0.42 0.42 0.43 0.42 0.42 0.42 0.43 0.42 0.42 0.42 0.42 0.43 0.42 0.42 0.42 0.42 0.43 0.42 0.42 0.42 0.42 0.43 0.42 0.42 0.42 0.42 0.43 0.42 0.42 0.42 0.42 0.43 0.42 0.42 0.42 0.43 0.42 0.42 0.42 0.42 0.43 0.42 0.42 0.42 0.42 0.43 0.42 0.42 0.42 0.42 0.43 0.42 0.42 0.42 0.42 0.43 0.42 0.42 0.42 0.42 0.43 0.42 0.42 0.42 0.43 0.42 0.42 0.42 0.42 0.43 0.42 0.42 0.42 0.42 0.43 0.42 0.42 0.42 0.42 0.43 0.42 0.42 0.42 0.42 0.43 0.42 0.42 0.42 0.42 0.43 0.42 0.42 0.42 0.43 0.42 0.42 0.42 0.42 0.43 0.42 0.42 0.42 0.42 0.43 0.42 0.42 0.42 0.42 0.43 0.42 0.42 0.42 0.42 0.43 0.42 0.42 0.42 0.42 0.43 0.42 0.42 0.42 0.43 0.42 0.42 0.42 0.42 0.43 0.42 0.42 0.42 0.42 0.43 0.42 0.42 0.42 0.42 0.43 0.42 0.42 0.42 0.42 0.43 0.42 0.42 0.42 0.42 0.43 0.42 0.42 0.42 0.43 0.42 0.42 0.42 0.42 0.43 0.42 0.42 0.42 0.42 0.43 0.42 0.42 0.42 0.42 0.43 0.42 0.42 0.42 0.42 0.43 0.42 0.42 0.42 0.42 0.43 0.42 0.42 l 0.42,4.56 h 0.43 0.42 0.42 0.42 0.42 0.43 0.42 0.42 0.42 0.42 0.43 0.42 0.42 0.42 0.42 0.43 0.42 0.42 0.42 0.42 0.43 0.42 0.42 0.42 0.42 0.43 0.42 0.42 0.42 0.43 0.42 0.42 0.42 0.42 0.43 0.42 0.42 0.42 0.42 0.43 0.42 0.42 0.42 0.42 0.43 0.42 0.42 0.42 0.42 0.43 0.42 0.42 0.42 0.42 0.43 0.42 0.42 0.42 0.43 0.42 0.42 0.42 0.42 0.43 0.42 0.42 0.42 0.42 0.43 0.42 l 0.42,4.01 h 0.42 0.42 0.43 0.42 0.42 0.42 0.42 0.43 l 0.42,3.6 h 0.42 0.42 0.42 0.43 0.42 0.42 0.42 0.43 0.42 0.42 0.42 0.42 0.43 0.42 0.42 0.42 0.42 0.43 0.42 0.42 0.42 0.42 0.43 0.42 0.42 0.42 0.42 0.43 0.42 0.42 0.42 0.42 0.43 0.42 0.42 0.42 0.43 0.42 0.42 l 0.42,3.25 h 0.42 0.43 0.42 0.42 0.42 l 0.42,2.97 h 0.43 0.42 0.42 0.42 0.42 0.43 0.42 0.42 0.42 0.42 0.43 0.42 0.42 0.42 0.42 0.43 0.42 0.42 0.42 0.43 0.42 0.42 0.42 0.42 0.43 0.42 0.42 0.42 0.42 0.43 0.42 0.42 0.42 0.42 0.43 0.42 0.42 0.42 0.42 0.43 0.42 0.42 0.42 0.42 0.43 0.42 0.42 0.42 0.43 0.42 0.42 0.42 0.42 0.43 0.42 0.42 0.42 0.42 0.43 0.42 0.42 0.42 0.42 0.43 0.42 0.42 0.42 0.42 0.43 0.42 0.42 0.42 0.42 0.43 0.42 0.42 0.42 0.43 0.42 0.42 0.42 0.42 0.43 0.42 0.42 0.42 0.42 0.43 0.42 0.42 0.42 0.42 0.43 0.42 0.42 0.42 0.42 0.43 0.42 0.42 0.42 0.42 0.43 0.42 0.42 0.42 0.43 0.42 0.42 0.42 0.42 0.43 0.42 0.42 0.42 0.42 0.43 0.42 0.42 0.42 0.42 0.43 0.42 0.42 0.42 0.42 0.43 0.42 0.42 0.42 0.42 0.43 0.42 0.42 0.42 0.43 0.42 0.42 0.42 0.42 0.43 0.42 0.42 0.42 0.42 0.43 0.42 0.42 0.42 0.42 0.43 0.42 0.42 0.42 0.42 0.43 0.42 0.42 l 0.42,2.73 h 0.42 0.43 0.42 0.42 0.42 0.43 0.42 0.42 0.42 0.42 0.43 0.42 0.42 0.42 0.42 0.43 0.42 0.42 0.42 0.42 0.43 0.42 0.42 0.42 0.42 0.43 0.42 0.42 0.42 0.42 0.43 0.42 0.42 0.42 0.43 0.42 0.42 0.42 0.42 0.43 0.42 0.42 0.42 0.42 0.43 0.42 0.42 0.42 0.42 0.43 0.42 0.42 0.42 0.42 0.43 0.42 0.42 0.42 0.42 0.43 0.42 0.42 0.42 0.43 0.42 0.42 0.42 0.42 0.43 0.42 0.42 0.42 0.42 0.43 0.42 0.42 0.42 0.42 0.43 0.42 0.42 0.42 0.42 0.43 0.42 0.42 0.42 0.42 0.43 0.42 0.42 0.42 0.43 0.42 0.42 0.42 0.42 0.43 0.42 0.42 0.42 0.42 0.43 0.42 0.42 0.42 0.42 0.43 0.42 0.42 0.42 0.42 0.43 0.42 0.42 0.42 0.42 0.43 0.42 0.42 0.42 0.43 0.42 0.42 0.42 0.42 0.43 0.42 0.42 0.42 0.42 0.43 0.42 0.42 0.42 0.42 0.43 0.42 0.42 0.42 0.42 0.43 0.42 0.42 0.42 0.43 0.42 0.42 0.42 0.42 0.43 0.42 0.42 0.42 0.42 0.43 0.42 0.42 0.42 0.42 0.43 0.42 0.42 0.42 0.42 0.43 0.42 0.42 0.42 0.42 0.43 0.42 0.42 0.42 0.43 0.42 0.42 0.42 0.42 0.43 0.42 0.42 0.42 0.42 0.43 0.42 0.42 0.42 0.42 0.43 0.42 0.42 0.42 0.42 0.43 0.42 0.42 0.42 0.42 0.43 0.42 0.42 0.42 0.43 0.42 0.42 0.42 0.42 0.43 0.42 0.42 0.42 0.42 0.43 0.42 0.42 0.42 0.42 0.43 0.42 0.42 0.42 0.42 0.43 0.42 0.42 0.42 0.42 0.43 0.42 0.42 0.42 0.43 0.42 0.42 0.42 0.42 0.43 0.42 0.42 0.42 0.42 0.43 0.42 0.42 0.42 0.42 0.43 0.42 0.42 0.42 0.42 0.43 0.42 0.42 0.42 0.42 0.43 0.42 0.42 0.42 0.43 0.42 0.42 0.42 0.42 0.43 0.42 0.42 0.42 0.42 0.43 0.42 0.42 0.42 0.42 0.43 0.42 0.42 0.42 0.42 0.43 0.42 0.42 0.42 0.42 0.43 0.42 0.42 0.42 0.43 0.42 0.42 0.42 0.42 0.43 0.42 0.42 0.42 0.42 0.43 0.42 0.42 0.42 0.42 0.43 0.42 0.42 0.42 0.42 0.43 0.42 0.42 0.42 0.42 0.43 0.42 0.42 0.42 0.43 0.42 0.42 0.42 0.42 0.43 0.42 0.42 0.42 0.42 0.43 0.42 0.42 0.42 0.42 0.43 0.42 0.42 0.42 0.42 0.43 0.42 0.42 0.42 0.42 0.43 0.42 0.42 0.42 0.43 0.42 0.42 0.42 0.42 0.43 0.42 0.42 0.42 0.42 0.43 0.42 0.42 0.42 0.42 0.43 0.42 0.42 0.42 0.42 0.43 0.42 0.42 0.42 0.42 0.43 0.42 0.42 0.42 0.43 0.42 0.42 0.42 0.42 0.43 0.42 0.42 0.42 0.42 0.43 0.42 0.42 0.42 0.42 0.43 0.42 0.42 0.42 0.42 0.43 0.42 0.42 0.42 0.42 0.43 0.42 0.42 0.42 0.43 0.42 0.42 0.42 0.42 0.43 0.42 0.42 0.42 0.42 0.43 0.42 0.42 0.42 0.42 0.43 0.42 0.42 0.42 0.42 0.43 0.42 0.42 0.42 0.42 0.43 0.42 0.42 0.42 0.43 0.42 0.42 0.42 0.42 0.43 0.42 0.42 0.42 0.42 0.43 0.42 0.42 0.42 0.42 0.43 0.42 0.42 0.42 0.42 0.43 0.42 0.42 0.42 0.42 0.43 0.42 0.42 0.42 0.43 0.42 0.42 0.42 0.42 0.43 0.42 0.42 0.42 0.42 0.43 0.42 0.42 0.42 0.42 0.43 0.42 0.42 0.42 0.42 0.43 0.42 0.42 0.42 0.42 0.43 0.42 0.42 0.42 0.43 0.42 0.42 0.42 0.42 0.43 0.42 0.42 0.42 0.42 0.43 0.42 0.42 0.42 0.42 0.43 0.42 0.42 0.42 0.42 0.43 0.42 0.42 0.42 0.42 0.43 0.42 0.42 0.42 0.43 0.42 0.42 0.42 0.42 0.43 0.42 0.42 0.42 0.42 0.43 0.42 0.42 0.42 0.42 0.43 0.42 0.42 0.42 0.42 0.43 0.42 0.42 0.42 0.42 0.43 0.42 0.42 0.42 0.43 0.42 0.42 0.42 0.42 0.43 0.42 0.42 0.42 0.42 0.43 0.42 0.42 0.42 0.42 0.43 0.42 0.42 0.42 0.42 0.43 0.42 0.42 0.42 0.42 0.43 0.42 0.42 0.42 0.43 0.42 0.42 0.42 0.42 0.43 0.42 0.42 0.42 0.42 0.43 0.42 0.42 0.42 0.42 0.43 0.42 0.42 0.42 0.42 0.43 0.42 0.42 0.42 0.42 0.43 0.42 0.42 0.42 0.43 0.42 0.42 0.42 0.42 0.43 0.42 0.42 0.42 0.42 0.43 0.42 0.42 0.42 0.42 0.43 0.42 0.42 0.42 0.42 0.43 0.42 0.42 0.42 0.42 0.43 0.42 0.42 0.42 0.43 0.42 0.42 0.42 0.42 0.43 0.42 0.42 0.42 0.42 0.43 0.42 0.42 0.42 0.42 0.43 0.42 0.42 0.42 0.42 0.43 0.42 0.42 0.42 0.42 0.43 0.42 0.42 0.42 0.43 0.42 0.42 0.42 0.42 0.43 0.42 0.42 0.42 0.42 0.43 0.42 0.42 0.42 0.42 0.43 0.42 0.42 0.42 0.42 0.43 0.42 0.42 0.42 0.42 0.43 0.42 0.42 0.42 0.43 0.42 0.42 0.42 0.42 0.43 0.42 0.42 0.42 0.42 0.43 0.42 0.42 0.42 0.42 0.43 0.42 0.42 0.42 0.42 0.43 0.42 0.42 0.42 0.42 0.43 0.42 0.42 0.42 0.43 0.42 0.42 0.42 0.42 0.43 0.42 0.42 0.42 0.42 0.43 0.42 0.42 0.42 0.42 0.43 0.42 0.42 0.42 0.42 0.43 0.42 0.42 0.42 0.42 0.43 0.42 0.42 0.42 0.43 0.42 0.42 0.42 0.42 0.43 0.42 0.42 0.42 0.42 0.43 0.42 0.42 0.42 0.42 0.43 0.42 0.42 0.42 0.42 0.43 0.42 0.42 0.42 0.42 0.43 0.42 0.42 0.42 0.43 0.42 0.42 0.42 0.42 0.43 0.42 0.42 0.42 0.42 0.43 0.42 0.42 0.42 0.42 0.43 0.42 0.42 0.42 0.42 0.43 0.42 0.42 0.42 0.42 0.43 0.42 0.42 0.42 0.43 0.42 0.42 0.42 0.42 0.43 0.42 0.42 0.42 0.42 0.43 0.42 0.42 0.42 0.42 0.43 0.42 0.42 0.42 0.42 0.43 0.42 0.42 0.42 0.42 0.43 0.42 0.42 0.42 0.43 0.42 0.42 0.42 0.42 0.43 0.42 0.42 0.42 0.42 0.43 0.42 0.42 0.42 0.42 0.43 0.42 0.42 0.42 0.42 0.43 0.42 0.42 0.42 0.42 0.43 0.42 0.42 0.42 0.43 0.42 0.42 0.42 0.42 0.43 0.42 0.42 0.42 0.42 0.43 0.42 0.42 0.42 0.42 0.43 0.42 0.42 0.42 0.42 0.43 0.42 0.42 0.42 0.42 0.43 0.42 0.42 0.42 0.43 0.42 0.42 0.42 0.42 0.43 0.42 0.42 0.42 0.42 0.43 0.42 0.42 0.42 0.42 0.43 0.42 0.42 0.42 0.42 0.43 0.42 0.42 0.42 0.43 0.42 0.42 0.42 0.42 0.43 0.42 0.42 0.42 0.42 0.43 0.42 0.42 0.42 0.42 0.43 0.42 0.42 0.42 0.42 0.43 0.42 0.42 0.42 0.42 0.43 0.42 0.42 0.42 0.43 0.42 0.42 0.42 0.42 0.43 0.42 0.42 0.42 0.42 0.43 0.42 0.42 0.42 0.42 0.43 0.42 0.42 0.42 0.42 0.43 0.42 0.42 0.42 0.42 0.43 0.42 0.42 0.42 0.43 0.42 0.42 0.42 0.42 0.43 0.42 0.42 0.42 0.42 0.43 0.42 0.42 0.42 0.42 0.43 0.42 0.42 0.42 0.42 0.43 0.42 0.42 0.42 0.42 0.43 0.42 0.42 0.42 0.43 0.42 0.42 0.42 0.42 0.43 0.42 0.42 0.42 0.42 0.43 0.42 0.42 0.42 0.42 0.43 0.42 0.42 0.42 0.42 0.43 0.42 0.42 0.42 0.42 0.43 0.42 0.42 0.42 0.43 0.42 0.42 0.42 0.42 0.43 0.42 0.42 0.42 0.42 0.43 0.42 0.42 0.42 0.42 0.43 0.42 0.42 0.42 0.42"
           style="fill:none;stroke:#66c2a5;stroke-width:3;stroke-linecap:round;stroke-linejoin:round;stroke-miterlimit:10;stroke-dasharray:0, 12, 9, 12;stroke-dashoffset:0;stroke-opacity:1"
           id="path1790" /><path
           d="m 129.58,82.86 h 0.42 0.42 0.42 0.42 0.43 0.42 0.42 0.42 0.42 0.43 0.42 0.42 0.42 0.42 0.43 0.42 0.42 0.42 0.42 0.43 0.42 0.42 0.42 0.42 0.43 0.42 0.42 0.42 0.43 0.42 0.42 0.42 0.42 0.43 0.42 0.42 0.42 0.42 0.43 0.42 0.42 0.42 0.42 0.43 0.42 0.42 0.42 0.42 0.43 0.42 0.42 0.42 0.42 0.43 0.42 0.42 0.42 0.43 0.42 0.42 0.42 0.42 0.43 0.42 0.42 0.42 0.42 0.43 0.42 0.42 0.42 0.42 0.43 0.42 0.42 0.42 0.42 0.43 0.42 0.42 0.42 0.42 0.43 0.42 0.42 0.42 0.43 0.42 0.42 0.42 0.42 0.43 0.42 0.42 0.42 0.42 0.43 0.42 0.42 0.42 0.42 0.43 0.42 0.42 0.42 0.42 0.43 0.42 0.42 0.42 0.42 0.43 0.42 0.42 0.42 0.43 0.42 0.42 0.42 0.42 0.43 0.42 0.42 0.42 0.42 0.43 0.42 0.42 0.42 0.42 0.43 0.42 0.42 0.42 0.42 0.43 0.42 0.42 0.42 0.42 0.43 0.42 0.42 0.42 0.43 0.42 0.42 0.42 0.42 0.43 0.42 0.42 0.42 0.42 0.43 0.42 0.42 0.42 0.42 0.43 0.42 0.42 0.42 0.42 0.43 0.42 0.42 0.42 0.42 0.43 0.42 0.42 0.42 0.43 0.42 0.42 0.42 0.42 0.43 0.42 0.42 0.42 0.42 0.43 0.42 0.42 0.42 0.42 0.43 0.42 0.42 0.42 0.42 0.43 0.42 0.42 0.42 0.42 0.43 0.42 0.42 0.42 0.43 0.42 0.42 0.42 0.42 0.43 0.42 0.42 0.42 0.42 0.43 0.42 0.42 0.42 0.42 0.43 0.42 0.42 0.42 0.42 0.43 0.42 0.42 0.42 0.42 0.43 0.42 0.42 0.42 0.43 0.42 0.42 0.42 0.42 0.43 0.42 0.42 0.42 0.42 0.43 0.42 0.42 0.42 0.42 0.43 0.42 0.42 0.42 0.42 0.43 0.42 0.42 0.42 0.43 0.42 0.42 0.42 0.42 l 0.43,23.64 h 0.42 0.42 0.42 0.42 0.43 0.42 0.42 0.42 0.42 0.43 0.42 0.42 0.42 0.42 0.43 0.42 0.42 0.42 0.42 0.43 0.42 0.42 0.42 0.43 0.42 0.42 0.42 0.42 0.43 0.42 0.42 0.42 0.42 0.43 0.42 0.42 0.42 0.42 0.43 0.42 0.42 0.42 0.42 0.43 0.42 0.42 0.42 0.42 0.43 0.42 0.42 0.42 0.43 0.42 0.42 0.42 0.42 0.43 0.42 0.42 0.42 0.42 0.43 0.42 0.42 0.42 0.42 0.43 0.42 0.42 0.42 0.42 0.43 0.42 0.42 0.42 0.42 0.43 0.42 0.42 0.42 0.43 0.42 0.42 0.42 0.42 0.43 0.42 0.42 0.42 0.42 0.43 0.42 0.42 0.42 0.42 0.43 0.42 0.42 0.42 0.42 0.43 0.42 0.42 0.42 0.42 0.43 0.42 0.42 0.42 0.43 0.42 0.42 0.42 0.42 0.43 0.42 0.42 0.42 0.42 0.43 0.42 0.42 0.42 0.42 0.43 0.42 0.42 0.42 0.42 0.43 0.42 0.42 0.42 0.42 0.43 0.42 0.42 0.42 0.43 0.42 0.42 0.42 0.42 0.43 0.42 0.42 0.42 0.42 0.43 0.42 0.42 0.42 0.42 0.43 0.42 0.42 0.42 0.42 0.43 0.42 0.42 0.42 0.42 0.43 0.42 0.42 0.42 0.43 0.42 0.42 0.42 0.42 0.43 0.42 0.42 0.42 0.42 0.43 0.42 0.42 0.42 0.42 0.43 0.42 0.42 0.42 0.42 0.43 0.42 0.42 0.42 0.42 0.43 0.42 0.42 0.42 0.43 0.42 0.42 0.42 0.42 0.43 0.42 0.42 0.42 0.42 0.43 0.42 0.42 0.42 0.42 0.43 0.42 0.42 0.42 0.42 0.43 0.42 0.42 0.42 0.42 0.43 0.42 0.42 0.42 0.43 0.42 0.42 0.42 0.42 0.43 0.42 0.42 0.42 0.42 0.43 0.42 0.42 0.42 0.42 0.43 0.42 0.42 0.42 0.42 0.43 0.42 0.42 0.42 0.42 0.43 0.42 0.42 0.42 0.43 0.42 0.42 0.42 0.42 0.43 0.42 0.42 0.42 0.42 0.43 0.42 0.42 0.42 0.42 0.43 0.42 0.42 0.42 0.42 0.43 0.42 0.42 0.42 0.42 0.43 0.42 0.42 0.42 0.43 0.42 0.42 0.42 0.42 0.43 0.42 0.42 0.42 0.42 0.43 0.42 0.42 0.42 0.42 0.43 0.42 0.42 0.42 0.42 0.43 0.42 0.42 0.42 0.42 0.43 0.42 0.42 0.42 0.43 0.42 0.42 0.42 0.42 0.43 0.42 0.42 0.42 0.42 0.43 0.42 0.42 0.42 0.42 0.43 0.42 0.42 0.42 0.42 0.43 0.42 0.42 0.42 0.42 0.43 0.42 0.42 0.42 0.43 0.42 0.42 0.42 0.42 0.43 0.42 0.42 0.42 0.42 0.43 0.42 0.42 0.42 0.42 0.43 0.42 0.42 0.42 0.42 0.43 0.42 0.42 0.42 0.42 0.43 0.42 0.42 0.42 0.43 0.42 0.42 0.42 0.42 0.43 0.42 0.42 0.42 0.42 0.43 0.42 0.42 0.42 0.42 0.43 0.42 0.42 0.42 0.42 0.43 0.42 0.42 0.42 0.42 0.43 0.42 0.42 0.42 0.43 0.42 0.42 0.42 0.42 0.43 0.42 0.42 0.42 0.42 0.43 0.42 0.42 0.42 0.42 0.43 0.42 0.42 0.42 0.42 0.43 0.42 0.42 0.42 0.42 0.43 0.42 0.42 0.42 0.43 0.42 0.42 0.42 0.42 0.43 0.42 0.42 0.42 0.42 0.43 0.42 0.42 0.42 0.42 0.43 0.42 0.42 0.42 0.42 0.43 0.42 0.42 0.42 0.42 0.43 0.42 0.42 0.42 0.43 0.42 0.42 0.42 0.42 0.43 0.42 0.42 0.42 0.42 0.43 0.42 0.42 0.42 0.42 0.43 0.42 0.42 0.42 0.42 0.43 0.42 0.42 0.42 0.42 0.43 0.42 0.42 0.42 0.43 0.42 0.42 0.42 0.42 0.43 0.42 0.42 0.42 0.42 0.43 0.42 0.42 0.42 0.42 0.43 0.42 0.42 0.42 0.42 0.43 0.42 0.42 0.42 0.42 0.43 0.42 0.42 0.42 0.43 0.42 0.42 0.42 0.42 0.43 0.42 0.42 0.42 0.42 0.43 0.42 0.42 0.42 0.42 0.43 0.42 0.42 0.42 0.42 0.43 0.42 0.42 0.42 0.42 0.43 0.42 0.42 0.42 0.43 0.42 0.42 0.42 0.42 0.43 0.42 0.42 0.42 0.42 0.43 0.42 0.42 0.42 0.42 0.43 0.42 0.42 0.42 0.42 0.43 0.42 0.42 0.42 0.42 0.43 0.42 0.42 0.42 0.43 0.42 0.42 0.42 0.42 0.43 0.42 0.42 0.42 0.42 0.43 0.42 0.42 0.42 0.42 0.43 0.42 0.42 0.42 0.42 0.43 0.42 0.42 0.42 0.42 0.43 0.42 0.42 0.42 0.43 0.42 0.42 0.42 0.42 0.43 0.42 0.42 0.42 0.42 0.43 l 0.42,13.82 h 0.42 0.42 0.42 0.43 0.42 0.42 0.42 0.42 0.43 0.42 0.42 0.42 0.42 0.43 0.42 0.42 0.42 0.43 0.42 0.42 0.42 0.42 0.43 0.42 0.42 0.42 0.42 0.43 0.42 0.42 0.42 0.42 0.43 0.42 0.42 0.42 0.42 0.43 0.42 0.42 0.42 0.42 0.43 0.42 0.42 0.42 0.43 0.42 0.42 0.42 0.42 0.43 0.42 0.42 0.42 0.42 0.43 0.42 0.42 0.42 0.42 0.43 0.42 0.42 0.42 0.42 0.43 0.42 0.42 0.42 0.42 0.43 0.42 0.42 0.42 0.43 0.42 0.42 0.42 0.42 0.43 0.42 0.42 0.42 0.42 0.43 0.42 0.42 0.42 0.42 0.43 0.42 0.42 0.42 0.42 0.43 0.42 0.42 0.42 0.42 0.43 0.42 0.42 0.42 0.43 0.42 0.42 0.42 0.42 0.43 0.42 0.42 0.42 0.42 0.43 0.42 0.42 0.42 0.42 0.43 0.42 0.42 0.42 0.42 0.43 0.42 0.42 0.42 0.42 0.43 0.42 0.42 0.42 0.43 0.42 0.42 0.42 0.42 0.43 0.42 0.42 0.42 0.42 0.43 0.42 0.42 0.42 0.42 0.43 0.42 0.42 0.42 0.42 0.43 0.42 0.42 0.42 0.43 0.42 0.42 0.42 0.42 0.43 0.42 0.42 0.42 0.42 0.43 0.42 0.42 0.42 0.42 0.43 0.42 0.42 0.42 0.42 0.43 0.42 0.42 0.42 0.42 0.43 0.42 0.42 0.42 0.43 0.42 0.42 0.42 0.42 0.43 0.42 0.42 0.42 0.42 0.43 0.42 0.42 0.42 0.42 0.43 0.42 0.42 0.42 0.42 0.43 0.42 0.42 0.42 0.42 0.43 0.42 0.42 0.42 0.43 0.42 0.42 0.42 0.42 0.43 0.42 0.42 0.42 0.42 0.43 0.42 0.42 0.42 0.42 0.43 0.42 0.42 0.42 0.42 0.43 0.42 0.42 0.42 0.42 0.43 0.42 0.42 0.42 0.43 0.42 0.42 0.42 0.42 0.43 0.42 0.42 0.42 0.42 0.43 0.42 0.42 0.42 0.42 0.43 0.42 0.42 0.42 0.42 0.43 0.42 0.42 0.42 0.42 0.43 0.42 0.42 0.42 0.43 0.42 0.42 0.42 0.42 0.43 0.42 0.42 0.42 0.42 0.43 0.42 0.42 0.42 0.42 0.43 0.42 0.42 0.42 0.42 0.43 0.42 0.42 0.42 0.42 0.43 0.42 0.42 0.42 0.43 0.42 0.42 0.42 0.42 0.43 0.42 0.42 0.42 0.42 0.43 0.42 0.42 0.42 0.42 0.43 0.42 0.42 0.42 0.42 0.43 0.42 0.42 0.42 0.42 0.43 0.42 0.42 0.42 0.43 0.42 0.42 0.42 0.42 0.43 0.42 0.42 0.42 0.42 0.43 0.42 0.42 0.42 0.42 0.43 0.42 0.42 0.42 0.42 0.43 0.42 0.42 0.42 0.42 0.43 0.42 0.42 0.42 0.43 0.42 0.42 0.42 0.42 0.43 0.42 0.42 0.42 0.42 0.43 0.42 0.42 0.42 0.42 0.43 0.42 0.42 0.42 0.42 0.43 0.42 0.42 0.42 0.42 0.43 0.42 0.42 0.42 0.43 0.42 0.42 0.42 0.42 0.43 0.42 0.42 0.42 0.42 0.43 0.42 0.42 0.42 0.42 0.43 0.42 0.42 0.42 0.42 0.43 0.42 0.42 0.42 0.42 0.43 0.42 0.42 0.42 0.43 0.42 0.42 0.42 0.42 0.43 0.42 0.42 0.42 0.42 0.43 0.42 0.42 0.42 0.42 0.43 0.42 0.42 0.42 0.42 0.43 0.42 0.42 0.42 0.42 0.43 0.42 0.42 0.42 0.43 0.42 0.42 0.42 0.42 0.43 0.42 0.42 0.42 0.42 0.43 0.42 0.42 0.42 0.42 0.43 0.42 0.42 0.42 0.42 0.43 0.42 0.42 0.42 0.42 0.43 0.42 0.42 0.42 0.43 0.42 0.42 0.42 0.42 0.43 0.42 0.42 0.42 0.42 0.43 0.42 0.42 0.42 0.42 0.43 0.42 0.42 0.42 0.42 0.43 0.42 0.42 0.42 0.42 0.43 0.42 0.42 0.42 0.43 0.42 0.42 0.42 0.42 0.43 0.42 0.42 0.42 0.42 0.43 0.42 0.42 0.42 0.42 0.43 0.42 0.42 0.42 0.42 0.43 0.42 0.42 0.42 0.42 0.43 0.42 0.42 0.42 0.43 0.42 0.42 0.42 0.42 0.43 0.42 0.42 0.42 0.42 0.43 0.42 0.42 0.42 0.42 0.43 0.42 0.42 0.42 0.42 0.43 0.42 0.42 0.42 0.42 0.43 0.42 0.42 0.42 0.43 0.42 0.42 0.42 0.42 0.43 0.42 0.42 0.42 0.42 0.43 0.42 0.42 0.42 0.42 0.43 0.42 0.42 0.42 0.42 0.43 0.42 0.42 0.42 0.42 0.43 0.42 0.42 0.42 0.43 0.42 0.42 0.42 0.42 0.43 0.42 0.42 0.42 0.42 0.43 0.42 0.42 0.42 0.42 0.43 0.42 0.42 0.42 0.42 0.43 0.42 0.42 0.42 0.42 0.43 0.42 0.42 0.42 0.43 0.42 0.42 0.42 0.42 0.43 0.42 0.42 0.42 0.42 0.43 0.42 0.42 0.42 0.42 0.43 0.42 0.42 0.42 0.42 0.43 0.42 0.42 0.42 0.42 0.43 0.42 0.42 0.42 0.43 0.42 0.42 0.42 0.42 0.43 0.42 0.42 0.42 0.42 0.43 0.42 0.42 0.42 0.42 0.43 0.42 0.42 0.42 0.42 0.43 0.42 0.42 0.42 0.42 0.43 0.42 0.42 0.42 0.43 0.42 0.42 0.42 0.42 0.43 0.42 0.42 0.42 0.42 0.43 0.42 0.42 0.42 0.42 0.43 0.42 0.42 0.42 0.42 0.43 0.42 0.42 0.42 0.42 0.43 0.42 0.42 0.42 0.43 0.42 0.42 0.42 0.42 0.43 0.42 0.42 0.42 0.42 0.43 0.42 0.42 0.42 0.42 0.43 0.42 0.42 0.42 0.42 0.43 0.42 0.42 0.42 0.42 0.43 0.42 0.42 0.42 0.43 0.42 0.42 0.42 0.42 0.43 0.42 0.42 0.42 0.42 0.43 0.42 0.42 0.42 0.42 0.43 0.42 0.42 0.42 0.42 0.43 0.42 0.42 0.42 0.42 0.43 0.42 0.42 0.42 0.43 0.42 0.42 0.42 0.42 0.43 0.42 0.42 0.42 0.42 0.43 0.42 0.42 0.42 0.42 0.43 0.42 0.42 0.42 0.42 0.43 0.42 0.42 0.42 0.42 0.43 0.42 0.42 0.42 0.43 0.42 0.42 0.42 0.42 0.43 0.42 0.42 0.42 0.42 0.43 0.42 0.42 0.42 0.42 0.43 0.42 0.42 0.42 0.42 0.43 0.42 0.42 0.42 0.42 0.43 0.42 0.42 0.42 0.43 0.42 0.42 0.42 0.42 0.43 0.42 0.42 0.42 0.42 0.43 0.42 0.42 0.42 0.42 0.43 0.42 0.42 0.42 0.42 0.43 0.42 0.42 0.42 0.42 0.43 0.42 0.42 0.42 0.43 0.42 0.42 0.42 0.42 0.43 0.42 0.42 0.42 0.42 0.43 0.42 0.42 0.42 0.42 0.43 0.42 0.42 0.42 0.42 0.43 0.42 0.42 0.42 0.42 0.43 0.42 0.42 0.42 0.43 0.42 0.42 0.42 0.42 0.43 0.42 0.42 0.42 0.42 0.43 0.42 0.42 0.42 0.42 0.43 0.42 0.42 0.42 0.42 0.43 0.42 0.42 0.42 0.42 0.43 0.42 0.42 0.42 0.43 0.42 0.42 0.42 0.42 0.43 0.42 0.42 0.42 0.42 0.43 0.42 0.42 0.42 0.42 0.43 0.42 0.42 0.42 0.42 0.43 0.42 0.42 0.42 0.43 0.42 0.42 0.42 0.42 0.43 0.42 0.42 0.42 0.42 0.43 0.42 0.42 0.42 0.42 0.43 0.42 0.42 0.42 0.42 0.43 0.42 0.42 0.42 0.42 0.43 0.42 0.42 0.42 0.43 0.42 0.42 0.42 0.42 0.43 0.42 0.42 0.42 0.42 0.43 0.42 0.42 0.42 0.42 0.43 0.42 0.42 0.42 0.42 0.43 0.42 0.42 0.42 0.42 0.43 0.42 0.42 0.42 0.43 0.42 0.42 0.42 0.42 0.43 0.42 0.42 0.42 0.42 0.43 0.42 0.42 0.42 0.42 0.43 0.42 0.42 0.42 0.42 0.43 0.42 0.42 0.42 0.42 0.43 0.42 0.42 0.42 0.43 0.42 0.42 0.42 0.42 0.43 0.42 0.42 0.42 0.42 0.43 0.42 0.42 0.42 0.42 0.43 0.42 0.42 0.42 0.42 0.43 0.42 0.42 0.42 0.42 0.43 0.42 0.42 0.42 0.43 0.42 0.42 0.42 0.42 0.43 0.42 0.42 0.42 0.42 0.43 0.42 0.42 0.42 0.42 0.43 0.42 0.42 0.42 0.42"
           style="fill:none;stroke:#8da0cb;stroke-width:3;stroke-linecap:round;stroke-linejoin:round;stroke-miterlimit:10;stroke-dasharray:0, 12, 9, 12;stroke-dashoffset:0;stroke-opacity:1"
           id="path1792" /><path
           d="M 512.39,73.44 V 327.66"
           style="fill:none;stroke:#838b8b;stroke-width:3.75;stroke-linecap:round;stroke-linejoin:round;stroke-miterlimit:10;stroke-dasharray:0, 15;stroke-dashoffset:0;stroke-opacity:1"
           id="path1794" /><path
           d="m 81.88,216.95 h 185.71 v 101.5 H 81.88 Z"
           style="fill:#ffffff;fill-opacity:1;fill-rule:nonzero;stroke:#000000;stroke-width:0.75;stroke-linecap:round;stroke-linejoin:round;stroke-miterlimit:10;stroke-dasharray:none;stroke-opacity:1"
           id="path1796" /><text
           transform="matrix(1,0,0,-1,103.72,300.64)"
           style="font-variant:normal;font-weight:normal;font-size:18px;font-family:Helvetica;-inkscape-font-specification:Helvetica;writing-mode:lr-tb;fill:#000000;fill-opacity:1;fill-rule:nonzero;stroke:none"
           id="text1800"><tspan
             x="0 5.0040002 19.997999 30.006001 40.014 50.021999 59.021999 64.026001 77.022003 81.017998 91.026001 100.026 109.026 113.022 118.026 122.022 132.03"
             y="0"
             id="tspan1798">Images Classified</tspan></text><path
           d="m 97.37,263.5 h 25.92"
           style="fill:none;stroke:#fc8d62;stroke-width:2.25;stroke-linecap:round;stroke-linejoin:round;stroke-miterlimit:10;stroke-dasharray:none;stroke-opacity:1"
           id="path1802" /><path
           d="m 97.37,246.22 h 25.92"
           style="fill:none;stroke:#66c2a5;stroke-width:2.25;stroke-linecap:round;stroke-linejoin:round;stroke-miterlimit:10;stroke-dasharray:none;stroke-opacity:1"
           id="path1804" /><path
           d="m 97.37,228.94 h 25.92"
           style="fill:none;stroke:#8da0cb;stroke-width:2.25;stroke-linecap:round;stroke-linejoin:round;stroke-miterlimit:10;stroke-dasharray:none;stroke-opacity:1"
           id="path1806" /><text
           transform="matrix(1,0,0,-1,102.82,280.78)"
           style="font-variant:normal;font-weight:normal;font-size:14px;font-family:Helvetica;-inkscape-font-specification:Helvetica;writing-mode:lr-tb;fill:#000000;fill-opacity:1;fill-rule:nonzero;stroke:none"
           id="text1810"><tspan
             x="0 10.108 17.892 22.554001 27.216 35 42 45.891998 49"
             y="0"
             id="tspan1808">Correctly</tspan></text><text
           transform="matrix(1,0,0,-1,136.25,258.47)"
           style="font-variant:normal;font-weight:normal;font-size:14px;font-family:Helvetica;-inkscape-font-specification:Helvetica;writing-mode:lr-tb;fill:#000000;fill-opacity:1;fill-rule:nonzero;stroke:none"
           id="text1814"><tspan
             x="0 9.3380003 17.122"
             y="0"
             id="tspan1812">Bad</tspan></text><text
           transform="matrix(1,0,0,-1,136.25,241.19)"
           style="font-variant:normal;font-weight:normal;font-size:14px;font-family:Helvetica;-inkscape-font-specification:Helvetica;writing-mode:lr-tb;fill:#000000;fill-opacity:1;fill-rule:nonzero;stroke:none"
           id="text1818"><tspan
             x="0 9.3380003 17.122 22.344 26.236"
             y="0"
             id="tspan1816">Earth</tspan></text><text
           transform="matrix(1,0,0,-1,136.25,223.91)"
           style="font-variant:normal;font-weight:normal;font-size:14px;font-family:Helvetica;-inkscape-font-specification:Helvetica;writing-mode:lr-tb;fill:#000000;fill-opacity:1;fill-rule:nonzero;stroke:none"
           id="text1822"><tspan
             x="0 9.3380003 17.122 24.906"
             y="0"
             id="tspan1820">Edge</tspan></text><path
           d="m 179.26,263.5 h 25.92"
           style="fill:none;stroke:#fc8d62;stroke-width:2.25;stroke-linecap:round;stroke-linejoin:round;stroke-miterlimit:10;stroke-dasharray:0, 9, 6.75, 9;stroke-dashoffset:0;stroke-opacity:1"
           id="path1824" /><path
           d="m 179.26,246.22 h 25.92"
           style="fill:none;stroke:#66c2a5;stroke-width:2.25;stroke-linecap:round;stroke-linejoin:round;stroke-miterlimit:10;stroke-dasharray:0, 9, 6.75, 9;stroke-dashoffset:0;stroke-opacity:1"
           id="path1826" /><path
           d="m 179.26,228.94 h 25.92"
           style="fill:none;stroke:#8da0cb;stroke-width:2.25;stroke-linecap:round;stroke-linejoin:round;stroke-miterlimit:10;stroke-dasharray:0, 9, 6.75, 9;stroke-dashoffset:0;stroke-opacity:1"
           id="path1828" /><text
           transform="matrix(1,0,0,-1,180.42,280.78)"
           style="font-variant:normal;font-weight:normal;font-size:14px;font-family:Helvetica;-inkscape-font-specification:Helvetica;writing-mode:lr-tb;fill:#000000;fill-opacity:1;fill-rule:nonzero;stroke:none"
           id="text1832"><tspan
             x="0 3.892 11.676 18.676001 26.459999 31.122 35.784 43.568001 50.568001 54.459999 57.568001"
             y="0"
             id="tspan1830">Incorrectly</tspan></text><text
           transform="matrix(1,0,0,-1,218.14,258.47)"
           style="font-variant:normal;font-weight:normal;font-size:14px;font-family:Helvetica;-inkscape-font-specification:Helvetica;writing-mode:lr-tb;fill:#000000;fill-opacity:1;fill-rule:nonzero;stroke:none"
           id="text1836"><tspan
             x="0 9.3380003 17.122"
             y="0"
             id="tspan1834">Bad</tspan></text><text
           transform="matrix(1,0,0,-1,218.14,241.19)"
           style="font-variant:normal;font-weight:normal;font-size:14px;font-family:Helvetica;-inkscape-font-specification:Helvetica;writing-mode:lr-tb;fill:#000000;fill-opacity:1;fill-rule:nonzero;stroke:none"
           id="text1840"><tspan
             x="0 9.3380003 17.122 22.344 26.236"
             y="0"
             id="tspan1838">Earth</tspan></text><text
           transform="matrix(1,0,0,-1,218.14,223.91)"
           style="font-variant:normal;font-weight:normal;font-size:14px;font-family:Helvetica;-inkscape-font-specification:Helvetica;writing-mode:lr-tb;fill:#000000;fill-opacity:1;fill-rule:nonzero;stroke:none"
           id="text1844"><tspan
             x="0 9.3380003 17.122 24.906"
             y="0"
             id="tspan1842">Edge</tspan></text></g></g></g></svg>
