<?xml version="1.0" encoding="UTF-8" standalone="no"?>
<svg
   xmlns:dc="http://purl.org/dc/elements/1.1/"
   xmlns:cc="http://creativecommons.org/ns#"
   xmlns:rdf="http://www.w3.org/1999/02/22-rdf-syntax-ns#"
   xmlns:svg="http://www.w3.org/2000/svg"
   xmlns="http://www.w3.org/2000/svg"
   version="1.1"
   id="svg10"
   xml:space="preserve"
   width="1324"
   height="457.33334"
   viewBox="0 0 1324 457.33334"><metadata
     id="metadata16"><rdf:RDF><cc:Work
         rdf:about=""><dc:format>image/svg+xml</dc:format><dc:type
           rdf:resource="http://purl.org/dc/dcmitype/StillImage" /><dc:title></dc:title></cc:Work></rdf:RDF></metadata><defs
     id="defs14"><clipPath
       clipPathUnits="userSpaceOnUse"
       id="clipPath28"><path
         d="M 59.04,73.44 H 963.51 V 327.66 H 59.04 Z"
         id="path26" /></clipPath><clipPath
       clipPathUnits="userSpaceOnUse"
       id="clipPath142"><path
         d="M 59.04,73.44 H 963.51 V 327.66 H 59.04 Z"
         id="path140" /></clipPath></defs><g
     id="g18"
     transform="matrix(1.3333333,0,0,-1.3333333,0,457.33333)"><g
       id="g20" /><g
       id="g22"><g
         id="g24"
         clip-path="url(#clipPath28)"><path
           d="m 407.43,82.86 h 0.42 0.42 0.41 0.42 0.42 0.42 0.42 0.42 0.42 0.42 0.41 0.42 0.42 0.42 0.42 0.42 0.42 0.42 0.41 0.42 0.42 0.42 0.42 0.42 0.42 0.42 0.41 0.42 0.42 0.42 0.42 0.42 0.42 0.42 0.41 0.42 0.42 0.42 0.42 0.42 0.42 0.42 0.41 0.42 0.42 0.42 0.42 0.42 0.42 0.42 0.41 0.42 0.42 0.42 0.42 0.42 0.42 0.42 0.41 0.42 0.42 0.42 0.42 0.42 0.42 0.41 0.42 0.42 0.42 0.42 0.42 0.42 0.42 0.41 0.42 0.42 0.42 0.42 0.42 0.42 0.42 0.41 0.42 0.42 0.42 0.42 0.42 0.42 0.42 0.41 0.42 0.42 0.42 0.42 0.42 0.42 0.42 0.41 0.42 0.42 0.42 0.42 0.42 0.42 0.42 0.41 0.42 0.42 0.42 0.42 0.42 0.42 0.42 0.41 0.42 0.42 0.42 0.42 0.42 0.42 0.42 0.41 0.42 0.42 0.42 0.42 0.42 0.42 0.42 0.41 0.42 0.42 0.42 0.42 0.42 0.42 0.42 0.41 0.42 0.42 0.42 0.42 0.42 0.42 0.42 0.41 0.42 0.42 0.42 0.42 0.42 0.42 0.42 0.41 0.42 0.42 0.42 0.42 0.42 0.42 0.41 0.42 0.42 0.42 0.42 0.42 0.42 0.42 0.41 0.42 0.42 0.42 0.42 0.42 0.42 0.42 0.41 0.42 0.42 0.42 0.42 0.42 0.42 0.42 0.41 0.42 0.42 0.42 0.42 0.42 0.42 0.42 0.41 0.42 0.42 0.42 0.42 0.42 0.42 0.42 0.41 0.42 0.42 0.42 0.42 0.42 0.42 0.42 0.41 0.42 0.42 0.42 0.42 0.42 0.42 0.42 0.41 0.42 0.42 0.42 0.42 0.42 0.42 0.42 0.41 0.42 0.42 0.42 0.42 0.42 0.42 0.42 0.41 0.42 0.42 0.42 0.42 0.42 0.42 0.42 0.41 0.42 0.42 0.42 0.42 0.42 0.42 0.41 0.42 0.42 0.42 0.42 0.42 0.42 0.42 0.41 0.42 0.42 0.42 0.42 0.42 0.42 0.42 0.41 0.42 0.42 0.42 0.42 0.42 0.42 0.42 0.41 0.42 0.42 0.42 0.42 0.42 0.42 0.42 0.41 0.42 0.42 0.42 0.42 0.42 0.42 0.42 0.41 0.42 0.42 0.42 0.42 0.42 0.42 0.42 0.41 0.42 0.42 0.42 0.42 0.42 0.42 0.42 0.41 0.42 0.42 l 0.42,23.64 h 0.42 0.42 0.42 0.42 0.41 0.42 0.42 0.42 0.42 0.42 0.42 0.42 0.41 0.42 0.42 0.42 0.42 0.42 0.42 0.42 0.41 0.42 0.42 0.42 0.42 0.42 0.42 0.42 0.41 0.42 0.42 0.42 0.42 0.42 0.42 0.41 0.42 0.42 0.42 0.42 0.42 0.42 0.42 0.41 0.42 0.42 0.42 0.42 0.42 l 0.42,13.82 h 0.42 0.41 0.42 0.42 0.42 0.42 0.42 0.42 0.42 0.41 0.42 0.42 0.42 0.42 0.42 0.42 0.42 0.41 0.42 0.42 0.42 0.42 0.42 0.42 0.42 0.41 0.42 0.42 0.42 0.42 0.42 0.42 0.42 0.41 0.42 l 0.42,9.82 h 0.42 0.42 0.42 0.42 0.42 0.41 0.42 0.42 0.42 0.42 0.42 0.42 0.42 0.41 0.42 0.42 l 0.42,7.61 h 0.42 0.42 0.42 0.42 0.41 0.42 0.42 0.42 0.42 0.42 0.42 0.42 0.41 0.42 0.42 0.42 0.42 0.42 0.42 0.41 0.42 0.42 0.42 0.42 0.42 0.42 0.42 0.41 0.42 0.42 0.42 0.42 0.42 0.42 0.42 0.41 0.42 0.42 0.42 0.42 0.42 0.42 0.42 0.41 0.42 0.42 0.42 0.42 0.42 0.42 0.42 0.41 0.42 0.42 0.42 0.42 0.42 0.42 0.42 0.41 0.42 0.42 0.42 0.42 0.42 0.42 0.42 0.41 0.42 0.42 0.42 0.42 0.42 0.42 0.42 0.41 0.42 0.42 0.42 0.42 0.42 0.42 0.42 0.41 0.42 0.42 0.42 0.42 0.42 0.42 0.42 0.41 0.42 0.42 0.42 0.42 0.42 0.42 0.42 0.41 0.42 0.42 0.42 0.42 0.42 0.42 0.41 0.42 0.42 0.42 0.42 0.42 0.42 0.42 0.41 0.42 0.42 0.42 0.42 0.42 0.42 0.42 0.41 0.42 0.42 0.42 0.42 0.42 0.42 0.42 0.41 0.42 0.42 0.42 0.42 0.42 0.42 0.42 0.41 0.42 0.42 0.42 0.42 0.42 0.42 0.42 0.41 0.42 0.42 0.42 0.42 0.42 0.42 0.42 0.41 0.42 0.42 0.42 0.42 0.42 0.42 0.42 0.41 0.42 0.42 0.42 0.42 0.42 0.42 0.42 0.41 0.42 0.42 0.42 0.42 0.42 0.42 0.42 0.41 0.42 0.42 0.42 0.42 0.42 0.42 0.42 0.41 0.42 0.42 0.42 l 0.42,6.21 h 0.42 0.42 0.42 0.41 0.42 0.42 0.42 0.42 0.42 0.42 0.41 0.42 0.42 0.42 0.42 0.42 0.42 0.42 0.41 0.42 0.42 l 0.42,5.26 h 0.42 0.42 0.42 0.42 0.41 0.42 0.42 0.42 0.42 0.42 0.42 0.42 0.41 0.42 0.42 0.42 0.42 0.42 0.42 0.42 0.41 0.42 0.42 0.42 0.42 0.42 0.42 0.42 0.41 0.42 l 0.42,4.56 h 0.42 0.42 0.42 0.42 0.42 0.41 0.42 0.42 0.42 0.42 0.42 0.42 0.42 0.41 0.42 l 0.42,4.01 h 0.42 0.42 0.42 l 0.42,3.6 h 0.42 0.41 0.42 0.42 0.42 0.42 0.42 0.42 0.42 0.41 0.42 0.42 0.42 0.42 0.42 0.42 l 0.42,3.25 h 0.41 0.42 0.42 0.42 0.42 0.42 0.42 0.41 0.42 0.42 0.42 0.42 0.42 0.42 0.42 0.41 l 0.42,2.97 h 0.42 0.42 0.42 0.42 0.42 0.42 0.41 0.42 0.42 0.42 0.42 0.42 0.42 0.42 0.41 l 0.42,2.73 h 0.42 0.42 l 0.42,2.52 h 0.42 0.42 0.42 0.41 l 0.42,2.36 h 0.42 0.42 0.42 0.42 0.42 0.42 0.41 0.42 0.42 0.42 0.42 0.42 0.42 0.42 0.41 0.42 0.42 l 0.42,2.2 h 0.42 0.42 0.42 0.42 0.41 0.42 0.42 0.42 0.42 0.42 0.42 0.42 0.41 0.42 0.42 0.42 0.42 0.42 0.42 0.42 0.41 0.42 0.42 0.42 0.42 0.42 0.42 0.42 0.41 0.42 0.42 0.42 0.42 0.42 0.42 0.41 0.42 0.42 0.42 0.42 0.42 0.42 0.42 0.41 0.42 0.42 0.42 0.42 0.42 0.42 0.42 0.41 0.42 0.42 0.42 0.42 0.42 0.42 0.42 0.41 0.42 0.42 0.42 0.42 0.42 0.42 0.42 0.41 0.42 0.42 l 0.42,2.06 h 0.42 0.42 0.42 0.42 0.41 0.42 0.42 0.42 l 0.42,1.95 0.42,1.85 h 0.42 l 0.42,1.75 h 0.41 0.42 0.42 0.42 l 0.42,1.66 h 0.42 0.42 0.42 0.41 0.42 l 0.42,1.59 h 0.42 l 0.42,1.51 h 0.42 0.42 0.42 0.41 0.42 l 0.42,1.46 h 0.42 0.42 0.42 l 0.42,1.39 h 0.42 0.41 l 0.42,1.34 0.42,1.28 h 0.42 0.42 0.42 0.42 l 0.42,1.24 h 0.41 0.42 0.42 0.42 0.42 0.42 l 0.42,1.2 h 0.42 0.41 0.42 0.42 l 0.42,2.27 h 0.42 0.42 0.42 0.41 l 0.42,1.09 0.42,2.06 h 0.42 l 0.42,1.95 h 0.42 0.42 l 0.42,0.94 h 0.41 l 0.42,0.91 0.42,0.88 h 0.42 l 0.42,0.87 0.42,1.66 h 0.42 l 0.42,0.8 0.41,0.79 0.42,1.51 0.42,1.46 0.42,0.7 0.42,1.36 0.42,0.67 0.42,1.28 0.42,1.85 0.41,2.86 h 0.42 0.42 l 0.42,1.62 0.42,1.53 0.42,1.95 0.42,2.29 0.42,0.44 0.41,0.44 0.42,0.43 0.42,0.42 0.42,1.65 h 0.42 l 0.42,1.56 0.42,0.38 0.42,1.12 0.41,0.37 h 0.42 l 0.42,1.07 0.42,1.04 0.42,1.34 0.42,1.6 0.42,0.62 0.42,0.3 0.41,0.31 0.42,1.18 0.42,0.58 0.42,0.29 0.42,0.84 0.42,1.09 0.42,0.27 0.42,1.3 0.41,0.51 0.42,0.26 0.42,1.94 0.42,0.48 0.42,33.33 0.42,0.18 0.42,0.08 0.42,0.18 0.41,0.17 h 0.42 l 0.42,0.17 0.42,7.66 0.42,0.88 0.42,1.57 0.42,0.19 0.42,0.13 0.41,0.25 0.42,0.07 0.42,0.06 0.42,0.06 0.42,0.06 h 0.42 l 0.42,0.07 0.42,0.12 0.41,0.19 0.42,0.24 h 0.42 0.42 l 0.42,0.18 0.42,0.13 0.42,0.06 h 0.41 0.42 l 0.42,0.06 0.42,0.06 h 0.42 l 0.42,0.12 h 0.42 l 0.42,0.12 0.41,0.12 h 0.42 0.42 0.42 l 0.42,0.06 0.42,0.06 0.42,0.06 0.42,0.06 0.41,0.06 h 0.42 l 0.42,0.05 0.42,0.18 h 0.42 l 0.42,0.12 0.42,0.23 0.42,0.06 0.41,0.17 h 0.42 0.42 0.42 l 0.42,0.06 0.42,0.12 0.42,0.11 0.42,0.17 0.41,0.06 0.42,0.06 0.42,0.05 0.42,0.06 0.42,0.11 0.42,0.06 0.42,0.06 0.42,0.05 h 0.41 l 0.42,0.12 0.42,0.11 0.42,0.99 0.42,0.43 0.42,0.11 0.42,0.1 0.42,0.11 h 0.41 l 0.42,0.05 0.42,0.05 0.42,0.06 h 0.42 l 0.42,0.1 0.42,0.11 0.42,0.1 0.41,0.05 h 0.42 0.42 0.42 0.42 0.42 l 0.42,0.11 h 0.42 l 0.41,0.05 h 0.42 l 0.42,0.26 0.42,0.05 0.42,0.05 0.42,0.05 0.42,0.11 h 0.42 l 0.41,0.15 0.42,0.05 0.42,0.05 0.42,0.05 0.42,0.1 h 0.42 l 0.42,0.11 h 0.42 l 0.41,0.1 0.42,0.25 h 0.42 0.42 l 0.42,0.2 0.42,0.09 0.42,0.1 0.41,0.15 0.42,0.15 0.42,0.1 0.42,0.19 0.42,0.05 0.42,0.05 0.42,0.09 0.42,0.24 h 0.41 l 0.42,0.1 0.42,0.1 0.42,0.19 0.42,0.09 0.42,0.19 h 0.42 0.42 l 0.41,0.05 0.42,0.09 0.42,0.05 0.42,0.04 0.42,0.1 0.42,0.18 0.42,0.19 0.42,0.04 0.41,0.05 0.42,0.09 h 0.42 l 0.42,0.09 h 0.42 l 0.42,0.05 0.42,0.13 0.42,0.14 0.41,0.22 0.42,0.05 h 0.42 l 0.42,0.13 0.42,0.09 0.42,0.14 h 0.42 l 0.42,0.17 0.41,0.27 0.42,0.04 0.42,0.13 0.42,0.05 h 0.42 l 0.42,0.08 0.42,0.05 0.42,0.04 0.41,0.13 0.42,0.13 0.42,0.04 0.42,0.09 0.42,0.04 0.42,0.09 h 0.42 l 0.42,0.17 0.41,0.04 0.42,0.21 0.42,0.08 0.42,3.33 0.42,0.07 0.42,0.04 0.42,0.15 0.42,0.12 0.41,0.07 h 0.42 0.42 l 0.42,0.12 0.42,0.07 0.42,0.04 0.42,0.11 0.42,0.04 0.41,0.07 h 0.42 l 0.42,0.15 0.42,0.04 0.42,0.03 0.42,0.08 0.42,0.07 0.42,0.07 0.41,0.11 0.42,0.11 h 0.42 l 0.42,0.11 0.42,0.08 0.42,0.07 0.42,0.03 h 0.42 l 0.41,0.04 h 0.42 l 0.42,0.07 0.42,0.04 0.42,0.07 h 0.42 l 0.42,0.04 0.41,0.1 0.42,0.07 0.42,0.08 0.42,0.03 h 0.42 l 0.42,0.04 0.42,0.07 h 0.42 l 0.41,0.03 0.42,0.07 h 0.42 0.42 l 0.42,0.11 0.42,0.14 0.42,0.04 0.42,0.07 h 0.41 0.42 l 0.42,0.03 0.42,0.07 h 0.42 0.42 l 0.42,0.11 h 0.42 0.41 0.42 0.42 0.42 0.42 l 0.42,0.03 h 0.42 0.42 l 0.41,0.03 0.42,0.04 h 0.42 l 0.42,0.1 0.42,0.04 h 0.42 l 0.42,0.03 h 0.42 0.41 0.42 0.42 0.42 0.42 0.42 0.42 0.42 0.41 0.42 0.42 0.42 l 0.42,0.04 h 0.42 0.42 0.42 l 0.41,0.03 0.42,0.04 h 0.42 0.42 0.42 0.42 0.42 0.42 0.41 0.42 0.42 0.42 l 0.42,0.03 h 0.42 0.42 0.42 l 0.41,0.03 h 0.42 0.42 0.42 0.42 0.42 0.42 0.42 0.41 0.42 0.42 0.42 0.42 0.42 0.42 0.41 0.42 0.42 0.42 0.42 0.42 0.42 0.42 0.41 0.42 0.42 0.42"
           style="fill:none;stroke:#fc8d62;stroke-width:2.25;stroke-linecap:round;stroke-linejoin:round;stroke-miterlimit:10;stroke-dasharray:none;stroke-opacity:1"
           id="path30" /></g></g><g
       id="g32"><path
         d="M 59.04,82.86 V 318.45"
         style="fill:none;stroke:#000000;stroke-width:0.75;stroke-linecap:round;stroke-linejoin:round;stroke-miterlimit:10;stroke-dasharray:none;stroke-opacity:1"
         id="path34" /><path
         d="m 59.04,82.86 h -7.2"
         style="fill:none;stroke:#000000;stroke-width:0.75;stroke-linecap:round;stroke-linejoin:round;stroke-miterlimit:10;stroke-dasharray:none;stroke-opacity:1"
         id="path36" /><path
         d="m 59.04,137.75 h -7.2"
         style="fill:none;stroke:#000000;stroke-width:0.75;stroke-linecap:round;stroke-linejoin:round;stroke-miterlimit:10;stroke-dasharray:none;stroke-opacity:1"
         id="path38" /><path
         d="m 59.04,161.39 h -7.2"
         style="fill:none;stroke:#000000;stroke-width:0.75;stroke-linecap:round;stroke-linejoin:round;stroke-miterlimit:10;stroke-dasharray:none;stroke-opacity:1"
         id="path40" /><path
         d="m 59.04,216.28 h -7.2"
         style="fill:none;stroke:#000000;stroke-width:0.75;stroke-linecap:round;stroke-linejoin:round;stroke-miterlimit:10;stroke-dasharray:none;stroke-opacity:1"
         id="path42" /><path
         d="m 59.04,239.92 h -7.2"
         style="fill:none;stroke:#000000;stroke-width:0.75;stroke-linecap:round;stroke-linejoin:round;stroke-miterlimit:10;stroke-dasharray:none;stroke-opacity:1"
         id="path44" /><path
         d="m 59.04,294.81 h -7.2"
         style="fill:none;stroke:#000000;stroke-width:0.75;stroke-linecap:round;stroke-linejoin:round;stroke-miterlimit:10;stroke-dasharray:none;stroke-opacity:1"
         id="path46" /><path
         d="m 59.04,318.45 h -7.2"
         style="fill:none;stroke:#000000;stroke-width:0.75;stroke-linecap:round;stroke-linejoin:round;stroke-miterlimit:10;stroke-dasharray:none;stroke-opacity:1"
         id="path48" /><text
         transform="matrix(1,0,0,-1,37.97,78.55)"
         style="font-variant:normal;font-weight:normal;font-size:12px;font-family:Helvetica;-inkscape-font-specification:Helvetica;writing-mode:lr-tb;fill:#000000;fill-opacity:1;fill-rule:nonzero;stroke:none"
         id="text52"><tspan
           x="0"
           y="0"
           id="tspan50">1</tspan></text><text
         transform="matrix(1,0,0,-1,37.97,133.44)"
         style="font-variant:normal;font-weight:normal;font-size:12px;font-family:Helvetica;-inkscape-font-specification:Helvetica;writing-mode:lr-tb;fill:#000000;fill-opacity:1;fill-rule:nonzero;stroke:none"
         id="text56"><tspan
           x="0"
           y="0"
           id="tspan54">5</tspan></text><text
         transform="matrix(1,0,0,-1,31.3,157.08)"
         style="font-variant:normal;font-weight:normal;font-size:12px;font-family:Helvetica;-inkscape-font-specification:Helvetica;writing-mode:lr-tb;fill:#000000;fill-opacity:1;fill-rule:nonzero;stroke:none"
         id="text60"><tspan
           x="0 6.6719999"
           y="0"
           id="tspan58">10</tspan></text><text
         transform="matrix(1,0,0,-1,31.3,211.97)"
         style="font-variant:normal;font-weight:normal;font-size:12px;font-family:Helvetica;-inkscape-font-specification:Helvetica;writing-mode:lr-tb;fill:#000000;fill-opacity:1;fill-rule:nonzero;stroke:none"
         id="text64"><tspan
           x="0 6.6719999"
           y="0"
           id="tspan62">50</tspan></text><text
         transform="matrix(1,0,0,-1,24.62,235.61)"
         style="font-variant:normal;font-weight:normal;font-size:12px;font-family:Helvetica;-inkscape-font-specification:Helvetica;writing-mode:lr-tb;fill:#000000;fill-opacity:1;fill-rule:nonzero;stroke:none"
         id="text68"><tspan
           x="0 6.6719999 13.344"
           y="0"
           id="tspan66">100</tspan></text><text
         transform="matrix(1,0,0,-1,24.62,290.5)"
         style="font-variant:normal;font-weight:normal;font-size:12px;font-family:Helvetica;-inkscape-font-specification:Helvetica;writing-mode:lr-tb;fill:#000000;fill-opacity:1;fill-rule:nonzero;stroke:none"
         id="text72"><tspan
           x="0 6.6719999 13.344"
           y="0"
           id="tspan70">500</tspan></text><text
         transform="matrix(1,0,0,-1,17.95,314.14)"
         style="font-variant:normal;font-weight:normal;font-size:12px;font-family:Helvetica;-inkscape-font-specification:Helvetica;writing-mode:lr-tb;fill:#000000;fill-opacity:1;fill-rule:nonzero;stroke:none"
         id="text76"><tspan
           x="0 6.6719999 13.344 20.016001"
           y="0"
           id="tspan74">1000</tspan></text><path
         d="M 59.04,73.44 H 963.51 V 327.66 H 59.04 V 73.44"
         style="fill:none;stroke:#000000;stroke-width:0.75;stroke-linecap:round;stroke-linejoin:round;stroke-miterlimit:10;stroke-dasharray:none;stroke-opacity:1"
         id="path78" /></g><g
       id="g80"><text
         transform="matrix(1,0,0,-1,454.58,18.72)"
         style="font-variant:normal;font-weight:normal;font-size:12px;font-family:Helvetica;-inkscape-font-specification:Helvetica;writing-mode:lr-tb;fill:#000000;fill-opacity:1;fill-rule:nonzero;stroke:none"
         id="text84"><tspan
           x="0 8.6639996 15.336 22.007999 25.344 28.007999 34.68 41.352001 48.023998 54.023998 60.695999 64.031998 67.367996 74.040001 78.036003 84.708 90.708 97.379997 104.052 106.716"
           y="0"
           id="tspan82">Confidence threshold</tspan></text><text
         transform="matrix(0,1,1,0,12.96,88.26)"
         style="font-variant:normal;font-weight:normal;font-size:12px;font-family:Helvetica;-inkscape-font-specification:Helvetica;writing-mode:lr-tb;fill:#000000;fill-opacity:1;fill-rule:nonzero;stroke:none"
         id="text88"><tspan
           x="0 8.6639996 15.336 25.332001 32.004002 38.675999 42.672001 46.007999 52.68 56.015999 59.352001 66.024002 70.019997 76.692001 83.363998 86.028 92.028 95.363998 98.028 104.7 111.372 117.372 120.708 127.38 134.052 136.716 143.20799 151.87199 155.20799 158.54401 165.216 171.888 175.224 178.56 185.23199 189.228 195.89999 201.89999 208.57201 215.244 217.908"
           y="0"
           id="tspan86">Number of predictions below the threshold</tspan></text></g><g
       id="g90"><path
         d="M 92.54,73.44 H 930.01"
         style="fill:none;stroke:#000000;stroke-width:0.75;stroke-linecap:round;stroke-linejoin:round;stroke-miterlimit:10;stroke-dasharray:none;stroke-opacity:1"
         id="path92" /><path
         d="m 92.54,73.44 v -7.2"
         style="fill:none;stroke:#000000;stroke-width:0.75;stroke-linecap:round;stroke-linejoin:round;stroke-miterlimit:10;stroke-dasharray:none;stroke-opacity:1"
         id="path94" /><path
         d="m 260.03,73.44 v -7.2"
         style="fill:none;stroke:#000000;stroke-width:0.75;stroke-linecap:round;stroke-linejoin:round;stroke-miterlimit:10;stroke-dasharray:none;stroke-opacity:1"
         id="path96" /><path
         d="m 427.53,73.44 v -7.2"
         style="fill:none;stroke:#000000;stroke-width:0.75;stroke-linecap:round;stroke-linejoin:round;stroke-miterlimit:10;stroke-dasharray:none;stroke-opacity:1"
         id="path98" /><path
         d="m 494.53,73.44 v -7.2"
         style="fill:none;stroke:#000000;stroke-width:0.75;stroke-linecap:round;stroke-linejoin:round;stroke-miterlimit:10;stroke-dasharray:none;stroke-opacity:1"
         id="path100" /><path
         d="m 595.02,73.44 v -7.2"
         style="fill:none;stroke:#000000;stroke-width:0.75;stroke-linecap:round;stroke-linejoin:round;stroke-miterlimit:10;stroke-dasharray:none;stroke-opacity:1"
         id="path102" /><path
         d="m 762.52,73.44 v -7.2"
         style="fill:none;stroke:#000000;stroke-width:0.75;stroke-linecap:round;stroke-linejoin:round;stroke-miterlimit:10;stroke-dasharray:none;stroke-opacity:1"
         id="path104" /><path
         d="m 930.01,73.44 v -7.2"
         style="fill:none;stroke:#000000;stroke-width:0.75;stroke-linecap:round;stroke-linejoin:round;stroke-miterlimit:10;stroke-dasharray:none;stroke-opacity:1"
         id="path106" /><text
         transform="matrix(1,0,0,-1,80.86,47.52)"
         style="font-variant:normal;font-weight:normal;font-size:12px;font-family:Helvetica;-inkscape-font-specification:Helvetica;writing-mode:lr-tb;fill:#000000;fill-opacity:1;fill-rule:nonzero;stroke:none"
         id="text110"><tspan
           x="0 6.6719999 10.008 16.68"
           y="0"
           id="tspan108">0.00</tspan></text><text
         transform="matrix(1,0,0,-1,248.36,47.52)"
         style="font-variant:normal;font-weight:normal;font-size:12px;font-family:Helvetica;-inkscape-font-specification:Helvetica;writing-mode:lr-tb;fill:#000000;fill-opacity:1;fill-rule:nonzero;stroke:none"
         id="text114"><tspan
           x="0 6.6719999 10.008 16.68"
           y="0"
           id="tspan112">0.20</tspan></text><text
         transform="matrix(1,0,0,-1,415.85,47.52)"
         style="font-variant:normal;font-weight:normal;font-size:12px;font-family:Helvetica;-inkscape-font-specification:Helvetica;writing-mode:lr-tb;fill:#000000;fill-opacity:1;fill-rule:nonzero;stroke:none"
         id="text118"><tspan
           x="0 6.6719999 10.008 16.68"
           y="0"
           id="tspan116">0.40</tspan></text><text
         transform="matrix(1,0,0,-1,482.85,47.52)"
         style="font-variant:normal;font-weight:normal;font-size:12px;font-family:Helvetica;-inkscape-font-specification:Helvetica;writing-mode:lr-tb;fill:#000000;fill-opacity:1;fill-rule:nonzero;stroke:none"
         id="text122"><tspan
           x="0 6.6719999 10.008 16.68"
           y="0"
           id="tspan120">0.48</tspan></text><text
         transform="matrix(1,0,0,-1,583.35,47.52)"
         style="font-variant:normal;font-weight:normal;font-size:12px;font-family:Helvetica;-inkscape-font-specification:Helvetica;writing-mode:lr-tb;fill:#000000;fill-opacity:1;fill-rule:nonzero;stroke:none"
         id="text126"><tspan
           x="0 6.6719999 10.008 16.68"
           y="0"
           id="tspan124">0.60</tspan></text><text
         transform="matrix(1,0,0,-1,750.84,47.52)"
         style="font-variant:normal;font-weight:normal;font-size:12px;font-family:Helvetica;-inkscape-font-specification:Helvetica;writing-mode:lr-tb;fill:#000000;fill-opacity:1;fill-rule:nonzero;stroke:none"
         id="text130"><tspan
           x="0 6.6719999 10.008 16.68"
           y="0"
           id="tspan128">0.80</tspan></text><text
         transform="matrix(1,0,0,-1,918.34,47.52)"
         style="font-variant:normal;font-weight:normal;font-size:12px;font-family:Helvetica;-inkscape-font-specification:Helvetica;writing-mode:lr-tb;fill:#000000;fill-opacity:1;fill-rule:nonzero;stroke:none"
         id="text134"><tspan
           x="0 6.6719999 10.008 16.68"
           y="0"
           id="tspan132">1.00</tspan></text></g><g
       id="g136"><g
         id="g138"
         clip-path="url(#clipPath142)"><path
           d="m 488.24,82.86 h 0.42 0.42 0.42 0.42 0.42 0.42 0.42 0.41 0.42 0.42 0.42 0.42 0.42 0.42 0.42 0.41 0.42 0.42 0.42 0.42 0.42 0.42 0.42 0.41 l 0.42,23.64 h 0.42 0.42 0.42 0.42 0.42 0.42 0.41 0.42 0.42 0.42 0.42 0.42 0.42 0.42 0.41 0.42 0.42 0.42 0.42 0.42 0.42 0.42 0.41 0.42 0.42 0.42 0.42 0.42 0.42 l 0.41,13.82 h 0.42 0.42 0.42 0.42 0.42 0.42 0.42 0.41 0.42 0.42 0.42 0.42 0.42 0.42 0.42 0.41 0.42 0.42 0.42 0.42 0.42 0.42 0.42 0.41 l 0.42,9.82 h 0.42 0.42 0.42 0.42 0.42 0.42 0.41 0.42 0.42 0.42 0.42 0.42 0.42 0.42 0.41 0.42 0.42 0.42 0.42 0.42 0.42 0.42 0.41 0.42 0.42 0.42 0.42 0.42 0.42 0.42 0.41 0.42 0.42 0.42 0.42 0.42 0.42 0.42 0.41 0.42 0.42 0.42 0.42 0.42 0.42 0.42 0.41 0.42 0.42 0.42 l 0.42,7.61 h 0.42 0.42 0.42 0.41 0.42 0.42 0.42 0.42 0.42 0.42 0.42 0.41 0.42 0.42 0.42 0.42 0.42 0.42 0.41 l 0.42,6.21 h 0.42 0.42 0.42 0.42 0.42 0.42 0.41 0.42 0.42 0.42 0.42 0.42 0.42 0.42 0.41 0.42 0.42 0.42 0.42 0.42 0.42 0.42 0.41 0.42 0.42 0.42 0.42 0.42 0.42 0.42 0.41 0.42 0.42 0.42 0.42 0.42 0.42 0.42 0.41 0.42 0.42 0.42 0.42 0.42 0.42 0.42 0.41 0.42 0.42 0.42 0.42 0.42 0.42 l 0.42,5.26 0.41,4.56 h 0.42 0.42 0.42 0.42 0.42 0.42 0.42 0.41 0.42 0.42 0.42 0.42 0.42 0.42 0.42 0.41 0.42 0.42 0.42 0.42 0.42 0.42 0.42 0.41 0.42 0.42 0.42 0.42 0.42 0.42 0.41 0.42 0.42 0.42 0.42 0.42 0.42 0.42 0.41 0.42 0.42 0.42 0.42 0.42 0.42 0.42 0.41 0.42 0.42 0.42 0.42 0.42 0.42 0.42 0.41 0.42 0.42 0.42 0.42 0.42 0.42 0.42 0.41 0.42 0.42 0.42 0.42 0.42 0.42 0.42 0.41 0.42 0.42 0.42 0.42 0.42 0.42 0.42 0.41 0.42 0.42 l 0.42,4.01 h 0.42 0.42 0.42 0.42 0.41 0.42 0.42 l 0.42,3.6 h 0.42 0.42 0.42 0.42 0.41 0.42 0.42 0.42 0.42 0.42 0.42 0.42 0.41 0.42 0.42 0.42 0.42 0.42 0.42 0.42 0.41 l 0.42,3.25 h 0.42 0.42 0.42 0.42 0.42 0.41 0.42 0.42 0.42 0.42 0.42 0.42 0.42 0.41 0.42 0.42 0.42 0.42 0.42 0.42 0.42 0.41 0.42 0.42 0.42 0.42 0.42 0.42 0.42 0.41 0.42 0.42 0.42 0.42 0.42 0.42 0.42 0.41 0.42 0.42 0.42 0.42 0.42 0.42 0.42 0.41 0.42 0.42 0.42 0.42 0.42 0.42 0.42 0.41 0.42 0.42 0.42 0.42 0.42 0.42 0.42 0.41 0.42 0.42 0.42 0.42 0.42 0.42 0.42 0.41 0.42 0.42 0.42 0.42 0.42 0.42 0.42 0.41 0.42 0.42 0.42 0.42 0.42 0.42 0.42 0.41 0.42 0.42 0.42 0.42 0.42 0.42 0.42 0.41 l 0.42,2.97 h 0.42 0.42 0.42 0.42 0.42 0.41 0.42 l 0.42,2.73 h 0.42 0.42 0.42 0.42 0.42 0.41 0.42 0.42 0.42 0.42 0.42 0.42 0.42 0.41 0.42 0.42 0.42 0.42 0.42 0.42 0.42 0.41 0.42 0.42 0.42 0.42 0.42 0.42 0.42 0.41 0.42 0.42 0.42 0.42 0.42 0.42 0.42 0.41 0.42 0.42 0.42 0.42 0.42 0.42 0.42 l 0.41,2.52 h 0.42 0.42 0.42 0.42 0.42 0.42 0.42 0.41 0.42 0.42 0.42 0.42 0.42 0.42 0.42 0.41 0.42 0.42 0.42 0.42 0.42 0.42 0.42 0.41 0.42 0.42 0.42 0.42 0.42 0.42 0.42 0.41 0.42 0.42 0.42 0.42 0.42 0.42 0.41 0.42 0.42 0.42 0.42 0.42 0.42 0.42 0.41 0.42 0.42 0.42 0.42 0.42 0.42 0.42 0.41 0.42 0.42 0.42 0.42 0.42 0.42 0.42 0.41 0.42 0.42 0.42 l 0.42,2.36 h 0.42 0.42 0.42 0.41 0.42 0.42 0.42 0.42 0.42 0.42 0.42 l 0.41,2.2 h 0.42 0.42 0.42 0.42 0.42 0.42 0.42 0.41 0.42 0.42 0.42 0.42 0.42 0.42 0.42 0.41 0.42 0.42 0.42 0.42 0.42 0.42 0.42 0.41 0.42 0.42 0.42 0.42 0.42 0.42 0.42 0.41 0.42 0.42 0.42 0.42 0.42 0.42 0.42 0.41 0.42 0.42 0.42 0.42 0.42 0.42 0.41 0.42 0.42 0.42 0.42 0.42 0.42 0.42 0.41 0.42 l 0.42,2.06 h 0.42 0.42 l 0.42,1.95 h 0.42 0.42 0.41 0.42 0.42 0.42 0.42 0.42 0.42 0.42 0.41 0.42 0.42 0.42 0.42 0.42 0.42 0.42 0.41 l 0.42,1.85 h 0.42 0.42 0.42 0.42 0.42 0.42 0.41 0.42 0.42 0.42 0.42 0.42 0.42 0.42 0.41 0.42 0.42 0.42 0.42 0.42 0.42 0.42 0.41 0.42 0.42 0.42 0.42 0.42 0.42 0.42 0.41 0.42 0.42 0.42 0.42 l 0.42,1.75 0.42,1.66 h 0.42 0.41 0.42 0.42 0.42 l 0.42,1.59 h 0.42 0.42 l 0.42,1.51 h 0.41 0.42 0.42 0.42 0.42 0.42 0.42 0.42 0.41 0.42 0.42 0.42 0.42 0.42 0.42 0.41 0.42 l 0.42,1.46 0.42,1.39 0.42,1.34 h 0.42 l 0.42,1.28 h 0.42 l 0.41,2.44 h 0.42 0.42 0.42 0.42 0.42 0.42 0.42 0.41 0.42 0.42 0.42 0.42 0.42 0.42 0.42 0.41 0.42 0.42 0.42 0.42 l 0.42,1.16 h 0.42 0.42 0.41 0.42 0.42 0.42 0.42 0.42 0.42 0.42 0.41 0.42 0.42 0.42 0.42 0.42 0.42 0.42 0.41 0.42 0.42 0.42 0.42 0.42 0.42 0.42 0.41 0.42 0.42 0.42 0.42 l 0.42,1.11 h 0.42 0.42 0.41 0.42 0.42 0.42 0.42 0.42 0.42 0.42 0.41 0.42 l 0.42,1.09 h 0.42 0.42 0.42 0.42 0.42 0.41 0.42 0.42 0.42 0.42 0.42 0.42 0.41 0.42 0.42 0.42 0.42 l 0.42,1.05 h 0.42 0.42 l 0.41,1.01 h 0.42 0.42 0.42 0.42 0.42 0.42 0.42 l 0.41,0.99 0.42,0.96 h 0.42 l 0.42,0.94 h 0.42 0.42 0.42 0.42 0.41 0.42 0.42 0.42 0.42 0.42 0.42 0.42 0.41 l 0.42,0.91 h 0.42 0.42 0.42 0.42 l 0.42,0.88 h 0.42 0.41 0.42 0.42 0.42 0.42 0.42 0.42 0.42 0.41 l 0.42,0.87 h 0.42 0.42 0.42 0.42 0.42 0.42 0.41 0.42 0.42 0.42 0.42 0.42 0.42 0.42 l 0.41,0.84 h 0.42 0.42 0.42 0.42 0.42 0.42 0.42 0.41 0.42 0.42 0.42 0.42 0.42 0.42 0.42 0.41 0.42 0.42 0.42 0.42 0.42 0.42 l 0.41,0.82 h 0.42 0.42 0.42 0.42 0.42 l 0.42,0.8 h 0.42 0.41 l 0.42,0.79 0.42,0.76 0.42,0.75 h 0.42 l 0.42,0.74 h 0.42 l 0.42,0.72 h 0.41 0.42 0.42 0.42 0.42 0.42 l 0.42,0.7 0.42,1.36 0.41,0.67 h 0.42 0.42 0.42 0.42 l 0.42,0.65 h 0.42 l 0.42,0.63 h 0.41 0.42 l 0.42,0.63 0.42,0.61 h 0.42 0.42 l 0.42,0.61 0.42,1.17 h 0.41 0.42 0.42 0.42 0.42 l 0.42,0.58 h 0.42 l 0.42,0.56 h 0.41 0.42 0.42 l 0.42,0.55 h 0.42 0.42 l 0.42,0.55 0.42,1.59 0.41,0.51 h 0.42 0.42 0.42 l 0.42,1 h 0.42 l 0.42,0.49 0.42,0.49 h 0.41 0.42 0.42 0.42 0.42 l 0.42,0.47 h 0.42 l 0.42,0.94 0.41,0.46 0.42,0.45 h 0.42 0.42 0.42 l 0.42,0.44 h 0.42 0.42 0.41 l 0.42,0.88 0.42,0.85 0.42,0.42 h 0.42 l 0.42,0.41 h 0.42 l 0.42,0.41 h 0.41 0.42 l 0.42,1.2 h 0.42 0.42 0.42 0.42 l 0.41,0.39 h 0.42 0.42 l 0.42,0.38 0.42,0.76 0.42,0.37 h 0.42 0.42 l 0.41,0.74 0.42,0.36 0.42,0.71 h 0.42 0.42 l 0.42,0.35 0.42,0.35 0.42,0.34 0.41,0.34 h 0.42 0.42 l 0.42,0.33 h 0.42 0.42 0.42 0.42 l 0.41,0.34 h 0.42 0.42 0.42 0.42 l 0.42,0.33 h 0.42 0.42 l 0.41,0.65 h 0.42 l 0.42,0.32 0.42,0.31 0.42,0.32 0.42,0.31 h 0.42 0.42 l 0.41,0.31 h 0.42 0.42 0.42 0.42 0.42 l 0.42,0.3 0.42,0.31 h 0.41 l 0.42,0.3 h 0.42 l 0.42,0.29 h 0.42 l 0.42,0.3 h 0.42 0.42 0.41 0.42 0.42 l 0.42,0.29 0.42,0.87 0.42,0.28 h 0.42 l 0.42,0.28 h 0.41 0.42 0.42 0.42 0.42 l 0.42,0.55 h 0.42 0.42 0.41 l 0.42,0.28 h 0.42 0.42 l 0.42,0.27 h 0.42 l 0.42,0.27 h 0.42 l 0.41,0.27 h 0.42 0.42 0.42 0.42 0.42 0.42 0.41 0.42 0.42 0.42 0.42 0.42 0.42 0.42 0.41 0.42 0.42 0.42"
           style="fill:none;stroke:#66c2a5;stroke-width:2.25;stroke-linecap:round;stroke-linejoin:round;stroke-miterlimit:10;stroke-dasharray:none;stroke-opacity:1"
           id="path144" /><path
           d="m 489.08,82.86 h 0.42 0.42 0.42 0.42 0.42 0.41 0.42 0.42 0.42 0.42 0.42 0.42 0.42 0.41 0.42 0.42 0.42 0.42 0.42 0.42 0.42 0.41 0.42 0.42 0.42 0.42 0.42 0.42 0.42 0.41 0.42 0.42 0.42 0.42 0.42 0.42 0.42 0.41 0.42 0.42 0.42 0.42 0.42 0.42 0.42 0.41 0.42 0.42 0.42 0.42 0.42 0.42 0.41 0.42 0.42 0.42 0.42 0.42 0.42 0.42 0.41 0.42 0.42 0.42 0.42 0.42 0.42 0.42 0.41 0.42 0.42 0.42 0.42 0.42 0.42 0.42 0.41 0.42 0.42 0.42 0.42 0.42 0.42 0.42 0.41 0.42 0.42 0.42 0.42 0.42 0.42 0.42 0.41 0.42 0.42 0.42 0.42 0.42 0.42 0.42 0.41 0.42 0.42 0.42 0.42 0.42 0.42 0.42 0.41 0.42 0.42 0.42 0.42 0.42 0.42 0.42 0.41 0.42 0.42 0.42 0.42 0.42 0.42 0.42 0.41 0.42 0.42 0.42 0.42 0.42 0.42 0.42 0.41 0.42 0.42 0.42 0.42 0.42 0.42 0.42 0.41 0.42 0.42 0.42 0.42 0.42 0.42 0.41 0.42 0.42 0.42 0.42 0.42 0.42 0.42 0.41 0.42 0.42 0.42 0.42 0.42 0.42 0.42 0.41 0.42 0.42 0.42 0.42 0.42 0.42 0.42 0.41 0.42 0.42 0.42 0.42 0.42 0.42 0.42 0.41 0.42 0.42 0.42 0.42 0.42 0.42 0.42 0.41 0.42 0.42 0.42 0.42 0.42 0.42 0.42 0.41 0.42 0.42 0.42 0.42 0.42 0.42 0.42 0.41 0.42 0.42 0.42 0.42 0.42 0.42 0.42 0.41 0.42 0.42 0.42 0.42 0.42 0.42 0.42 0.41 0.42 0.42 0.42 0.42 0.42 0.42 0.42 0.41 0.42 0.42 0.42 0.42 0.42 0.42 0.41 0.42 0.42 0.42 0.42 0.42 0.42 0.42 0.41 0.42 0.42 0.42 0.42 0.42 0.42 0.42 0.41 0.42 0.42 0.42 0.42 0.42 0.42 0.42 0.41 0.42 0.42 0.42 0.42 0.42 0.42 0.42 0.41 0.42 0.42 0.42 0.42 0.42 0.42 0.42 0.41 l 0.42,23.64 h 0.42 0.42 0.42 0.42 0.42 0.42 0.41 0.42 0.42 0.42 0.42 0.42 0.42 0.42 0.41 0.42 0.42 0.42 0.42 0.42 0.42 0.42 0.41 0.42 0.42 0.42 0.42 0.42 0.42 0.42 0.41 0.42 0.42 0.42 0.42 0.42 0.42 0.42 0.41 0.42 0.42 0.42 0.42 0.42 0.42 0.41 0.42 0.42 0.42 0.42 0.42 0.42 0.42 0.41 0.42 0.42 0.42 0.42 0.42 0.42 0.42 0.41 0.42 0.42 0.42 0.42 0.42 0.42 0.42 0.41 0.42 0.42 0.42 0.42 0.42 0.42 0.42 0.41 0.42 0.42 0.42 0.42 0.42 0.42 0.42 0.41 0.42 0.42 0.42 0.42 0.42 0.42 0.42 0.41 l 0.42,13.82 h 0.42 0.42 0.42 0.42 0.42 0.42 0.41 0.42 0.42 0.42 0.42 0.42 0.42 0.42 0.41 0.42 0.42 0.42 0.42 0.42 0.42 0.42 0.41 0.42 0.42 0.42 0.42 0.42 0.42 0.42 0.41 0.42 0.42 0.42 0.42 0.42 0.42 0.42 0.41 0.42 0.42 0.42 0.42 0.42 0.42 l 0.41,9.82 h 0.42 0.42 0.42 0.42 0.42 0.42 0.42 0.41 0.42 0.42 0.42 0.42 0.42 0.42 0.42 0.41 0.42 0.42 0.42 0.42 0.42 0.42 0.42 0.41 0.42 0.42 0.42 0.42 0.42 0.42 0.42 0.41 0.42 0.42 0.42 0.42 0.42 0.42 0.42 0.41 0.42 0.42 0.42 0.42 0.42 0.42 0.42 0.41 0.42 0.42 0.42 0.42 0.42 0.42 0.42 0.41 0.42 0.42 0.42 0.42 0.42 0.42 0.42 0.41 0.42 0.42 0.42 0.42 0.42 0.42 0.42 0.41 0.42 0.42 0.42 0.42 0.42 0.42 0.42 0.41 0.42 0.42 0.42 0.42 0.42 0.42 0.41 0.42 0.42 l 0.42,7.61 h 0.42 0.42 0.42 0.42 0.41 0.42 0.42 0.42 0.42 0.42 0.42 0.42 l 0.41,6.21 h 0.42 0.42 0.42 0.42 0.42 0.42 0.42 0.41 0.42 0.42 0.42 l 0.42,5.26 h 0.42 0.42 0.42 0.41 0.42 0.42 0.42 0.42 0.42 0.42 0.42 0.41 0.42 0.42 0.42 0.42 0.42 0.42 0.42 0.41 0.42 0.42 0.42 0.42 0.42 0.42 0.42 0.41 0.42 0.42 0.42 0.42 0.42 0.42 0.42 0.41 0.42 l 0.42,4.56 h 0.42 0.42 0.42 0.42 0.42 0.41 0.42 0.42 0.42 0.42 l 0.42,4.01 h 0.42 0.42 0.41 0.42 0.42 0.42 0.42 0.42 0.42 0.41 0.42 0.42 0.42 0.42 0.42 0.42 0.42 0.41 0.42 0.42 0.42 0.42 0.42 0.42 0.42 0.41 0.42 0.42 0.42 0.42 0.42 0.42 0.42 0.41 0.42 0.42 0.42 0.42 0.42 0.42 0.42 0.41 0.42 0.42 0.42 0.42 0.42 0.42 0.42 0.41 0.42 0.42 0.42 0.42 0.42 0.42 0.42 0.41 0.42 0.42 0.42 0.42 0.42 0.42 0.42 0.41 0.42 0.42 0.42 0.42 0.42 0.42 0.42 0.41 0.42 0.42 l 0.42,3.6 h 0.42 0.42 0.42 0.42 0.41 0.42 0.42 0.42 0.42 0.42 0.42 0.42 0.41 0.42 0.42 0.42 0.42 0.42 0.42 0.42 0.41 0.42 0.42 0.42 0.42 0.42 0.42 0.41 0.42 0.42 0.42 0.42 0.42 0.42 0.42 0.41 0.42 0.42 0.42 0.42 0.42 0.42 0.42 0.41 0.42 0.42 0.42 0.42 0.42 0.42 0.42 0.41 0.42 0.42 0.42 0.42 0.42 0.42 0.42 0.41 0.42 0.42 0.42 0.42 0.42 0.42 0.42 0.41 0.42 0.42 0.42 0.42 0.42 0.42 0.42 0.41 0.42 0.42 0.42 0.42 0.42 0.42 0.42 0.41 0.42 0.42 0.42 0.42 0.42 0.42 0.42 0.41 0.42 0.42 0.42 0.42 0.42 0.42 0.42 0.41 0.42 0.42 0.42 0.42 0.42 0.42 0.42 0.41 0.42 0.42 0.42 0.42 0.42 0.42 0.41 0.42 0.42 0.42 0.42 0.42 0.42 0.42 0.41 0.42 0.42 0.42 0.42 0.42 0.42 0.42 0.41 0.42 0.42 0.42 0.42 0.42 0.42 0.42 0.41 0.42 0.42 0.42 0.42 0.42 0.42 0.42 0.41 0.42 0.42 0.42 0.42 0.42 0.42 0.42 0.41 l 0.42,3.25 h 0.42 0.42 0.42 0.42 0.42 0.42 0.41 0.42 0.42 0.42 0.42 0.42 0.42 0.42 0.41 0.42 0.42 0.42 0.42 0.42 0.42 0.42 0.41 0.42 0.42 0.42 0.42 0.42 0.42 0.42 0.41 0.42 0.42 0.42 0.42 0.42 0.42 0.42 0.41 0.42 0.42 0.42 0.42 0.42 0.42 0.41 0.42 0.42 0.42 0.42 0.42 0.42 0.42 0.41 0.42 0.42 0.42 0.42 0.42 0.42 0.42 0.41 0.42 0.42 0.42 0.42 0.42 0.42 0.42 l 0.41,2.97 h 0.42 0.42 0.42 0.42 0.42 l 0.42,2.73 h 0.42 0.41 0.42 0.42 l 0.42,2.52 h 0.42 0.42 0.42 0.42 l 0.41,2.36 h 0.42 0.42 0.42 0.42 0.42 0.42 0.42 0.41 0.42 0.42 0.42 0.42 0.42 l 0.42,2.2 h 0.42 0.41 0.42 0.42 0.42 0.42 0.42 0.42 0.42 0.41 0.42 0.42 0.42 0.42 0.42 0.42 0.42 0.41 0.42 0.42 0.42 0.42 0.42 0.42 0.42 0.41 0.42 0.42 0.42 0.42 0.42 0.42 0.42 0.41 0.42 0.42 0.42 0.42 0.42 0.42 0.41 0.42 0.42 0.42 l 0.42,4.01 h 0.42 0.42 0.42 0.41 0.42 0.42 0.42 l 0.42,1.85 h 0.42 0.42 0.42 0.41 0.42 0.42 0.42 0.42 0.42 0.42 0.42 0.41 0.42 0.42 0.42 0.42 0.42 0.42 0.42 l 0.41,1.75 h 0.42 0.42 0.42 0.42 0.42 0.42 0.42 0.41 0.42 0.42 0.42 0.42 0.42 0.42 0.42 0.41 0.42 l 0.42,1.66 h 0.42 0.42 0.42 0.42 0.42 l 0.41,1.59 0.42,1.51 0.42,1.46 0.42,1.39 0.42,1.34 h 0.42 0.42 0.42 0.41 0.42 0.42 0.42 0.42 l 0.42,1.28 h 0.42 0.42 l 0.41,1.24 h 0.42 0.42 0.42 0.42 l 0.42,1.2 h 0.42 0.42 0.41 0.42 0.42 0.42 0.42 0.42 0.42 0.41 0.42 0.42 0.42 0.42 0.42 0.42 0.42 0.41 0.42 0.42 0.42"
           style="fill:none;stroke:#8da0cb;stroke-width:2.25;stroke-linecap:round;stroke-linejoin:round;stroke-miterlimit:10;stroke-dasharray:none;stroke-opacity:1"
           id="path146" /><path
           d="m 144.46,82.86 h 0.42 0.42 0.42 0.42 0.42 0.41 0.42 0.42 0.42 0.42 0.42 0.42 0.42 0.41 0.42 0.42 0.42 0.42 0.42 0.42 0.42 0.41 0.42 0.42 0.42 0.42 0.42 0.42 0.42 0.41 0.42 0.42 0.42 0.42 0.42 0.42 0.42 0.41 0.42 l 0.42,23.64 h 0.42 0.42 0.42 0.42 0.42 0.41 0.42 0.42 0.42 0.42 0.42 0.42 0.42 0.41 0.42 0.42 0.42 0.42 0.42 0.42 0.42 0.41 0.42 0.42 0.42 0.42 0.42 0.42 0.41 0.42 0.42 0.42 0.42 0.42 0.42 0.42 0.41 0.42 0.42 0.42 0.42 0.42 0.42 0.42 0.41 0.42 0.42 0.42 0.42 0.42 0.42 0.42 0.41 0.42 0.42 0.42 0.42 0.42 0.42 0.42 0.41 0.42 0.42 0.42 0.42 0.42 0.42 0.42 0.41 0.42 0.42 0.42 0.42 0.42 0.42 0.42 0.41 0.42 0.42 0.42 0.42 0.42 0.42 0.42 0.41 0.42 0.42 0.42 0.42 0.42 0.42 0.42 0.41 0.42 0.42 0.42 0.42 0.42 0.42 0.42 0.41 0.42 0.42 0.42 0.42 0.42 0.42 0.42 0.41 0.42 0.42 0.42 0.42 0.42 0.42 0.41 0.42 0.42 0.42 0.42 0.42 0.42 0.42 0.41 0.42 0.42 0.42 0.42 0.42 0.42 0.42 0.41 0.42 0.42 0.42 0.42 0.42 0.42 0.42 0.41 0.42 0.42 0.42 0.42 0.42 0.42 0.42 l 0.41,13.82 h 0.42 0.42 0.42 0.42 0.42 0.42 0.42 0.41 0.42 0.42 0.42 0.42 0.42 0.42 0.42 0.41 0.42 0.42 0.42 0.42 0.42 0.42 0.42 0.41 0.42 0.42 0.42 0.42 0.42 0.42 0.42 0.41 0.42 0.42 0.42 0.42 0.42 0.42 0.42 0.41 0.42 0.42 0.42 0.42 0.42 0.42 0.42 0.41 0.42 0.42 0.42 0.42 0.42 0.42 0.42 0.41 0.42 0.42 0.42 0.42 0.42 0.42 0.41 0.42 0.42 0.42 0.42 0.42 0.42 0.42 0.41 0.42 0.42 0.42 0.42 0.42 0.42 0.42 0.41 0.42 0.42 0.42 0.42 0.42 0.42 0.42 0.41 0.42 0.42 0.42 0.42 0.42 0.42 0.42 0.41 0.42 0.42 0.42 0.42 0.42 0.42 0.42 0.41 0.42 0.42 0.42 0.42 0.42 0.42 0.42 0.41 0.42 0.42 0.42 0.42 0.42 0.42 0.42 0.41 0.42 0.42 0.42 0.42 0.42 0.42 0.42 0.41 0.42 0.42 0.42 0.42 0.42 0.42 0.42 0.41 0.42 0.42 0.42 0.42 0.42 0.42 0.42 0.41 0.42 0.42 0.42 0.42 0.42 0.42 0.41 0.42 0.42 0.42 0.42 0.42 0.42 0.42 0.41 0.42 0.42 0.42 0.42 0.42 0.42 0.42 0.41 0.42 0.42 0.42 0.42 0.42 0.42 0.42 0.41 0.42 0.42 0.42 0.42 0.42 0.42 0.42 0.41 0.42 0.42 0.42 0.42 0.42 0.42 0.42 0.41 0.42 0.42 0.42 0.42 0.42 0.42 0.42 0.41 0.42 0.42 l 0.42,9.82 h 0.42 0.42 0.42 0.42 0.41 0.42 0.42 0.42 0.42 0.42 0.42 0.42 0.41 0.42 0.42 0.42 0.42 0.42 0.42 0.42 0.41 0.42 0.42 0.42 0.42 0.42 0.42 0.42 0.41 0.42 0.42 0.42 0.42 0.42 0.42 0.41 0.42 0.42 0.42 0.42 0.42 0.42 0.42 0.41 0.42 0.42 0.42 0.42 0.42 0.42 0.42 0.41 0.42 0.42 0.42 0.42 0.42 0.42 0.42 0.41 0.42 0.42 0.42 0.42 0.42 0.42 0.42 0.41 0.42 0.42 0.42 0.42 0.42 0.42 0.42 0.41 0.42 0.42 0.42 0.42 0.42 0.42 0.42 0.41 0.42 0.42 0.42 0.42 0.42 0.42 0.42 0.41 0.42 0.42 0.42 0.42 0.42 0.42 0.42 0.41 0.42 0.42 0.42 0.42 0.42 0.42 0.42 0.41 0.42 0.42 0.42 0.42 0.42 0.42 0.42 0.41 0.42 0.42 0.42 0.42 0.42 0.42 0.42 0.41 0.42 0.42 0.42 0.42 0.42 0.42 0.41 0.42 0.42 0.42 0.42 0.42 0.42 0.42 0.41 0.42 0.42 0.42 0.42 0.42 0.42 0.42 0.41 0.42 0.42 0.42 0.42 0.42 0.42 0.42 0.41 0.42 0.42 0.42 0.42 0.42 0.42 0.42 0.41 0.42 0.42 0.42 0.42 0.42 0.42 0.42 0.41 0.42 0.42 0.42 0.42 0.42 0.42 0.42 0.41 0.42 0.42 0.42 0.42 0.42 0.42 0.42 0.41 0.42 0.42 0.42 0.42 0.42 0.42 0.42 0.41 0.42 0.42 0.42 0.42 0.42 l 0.42,7.61 h 0.42 0.41 0.42 0.42 0.42 0.42 0.42 0.42 0.42 0.41 0.42 0.42 0.42 0.42 0.42 0.42 0.41 0.42 0.42 0.42 0.42 0.42 0.42 0.42 0.41 0.42 0.42 0.42 0.42 0.42 0.42 0.42 0.41 0.42 0.42 0.42 0.42 0.42 0.42 0.42 0.41 0.42 0.42 0.42 0.42 0.42 0.42 0.42 0.41 0.42 0.42 0.42 0.42 0.42 0.42 0.42 0.41 0.42 0.42 0.42 0.42 0.42 0.42 0.42 0.41 0.42 0.42 0.42 0.42 0.42 0.42 0.42 0.41 0.42 0.42 0.42 0.42 0.42 0.42 0.42 0.41 0.42 0.42 0.42 0.42 0.42 0.42 0.42 0.41 l 0.42,6.21 h 0.42 0.42 0.42 0.42 0.42 0.42 0.41 0.42 0.42 0.42 0.42 0.42 0.42 0.41 0.42 0.42 0.42 0.42 0.42 0.42 0.42 0.41 0.42 0.42 0.42 0.42 0.42 0.42 0.42 0.41 0.42 0.42 0.42 l 0.42,5.26 h 0.42 0.42 0.42 0.41 0.42 0.42 0.42 0.42 0.42 0.42 0.42 0.41 0.42 l 0.42,4.56 h 0.42 0.42 0.42 l 0.42,4.01 h 0.42 0.41 0.42 0.42 0.42 0.42 0.42 0.42 0.42 0.41 0.42 0.42 0.42 0.42 0.42 0.42 0.42 0.41 0.42 0.42 0.42 0.42 0.42 0.42 0.42 0.41 0.42 0.42 0.42 0.42 0.42 l 0.42,3.6 h 0.42 0.41 0.42 0.42 0.42 0.42 0.42 0.42 0.42 0.41 0.42 0.42 0.42 0.42 0.42 0.42 0.42 0.41 0.42 0.42 0.42 0.42 0.42 0.42 0.41 0.42 0.42 0.42 0.42 0.42 0.42 0.42 0.41 0.42 0.42 0.42 0.42 0.42 0.42 0.42 0.41 0.42 0.42 0.42 0.42 0.42 0.42 0.42 0.41 0.42 0.42 0.42 0.42 0.42 l 0.42,3.25 h 0.42 0.41 0.42 0.42 0.42 0.42 0.42 0.42 0.42 0.41 0.42 0.42 0.42 0.42 0.42 0.42 0.42 0.41 0.42 0.42 l 0.42,2.97 h 0.42 0.42 0.42 0.42 0.41 0.42 0.42 0.42 0.42 0.42 0.42 0.42 0.41 0.42 0.42 0.42 0.42 0.42 0.42 0.42 0.41 0.42 0.42 0.42 0.42 0.42 0.42 0.42 0.41 0.42 0.42 0.42 0.42 0.42 0.42 0.41 0.42 0.42 0.42 0.42 0.42 0.42 0.42 0.41 0.42 0.42 0.42 0.42 0.42 0.42 0.42 0.41 0.42 0.42 0.42 0.42 0.42 0.42 0.42 0.41 0.42 0.42 0.42 0.42 0.42 0.42 0.42 0.41 0.42 0.42 0.42 0.42 0.42 0.42 0.42 0.41 0.42 0.42 0.42 0.42 0.42 0.42 0.42 0.41 0.42 0.42 0.42 0.42 0.42 0.42 0.42 0.41 0.42 0.42 0.42 0.42 0.42 0.42 0.42 0.41 0.42 0.42 0.42 0.42 0.42 0.42 0.42 0.41 0.42 0.42 0.42 0.42 0.42 0.42 0.42 0.41 0.42 0.42 0.42 0.42 0.42 0.42 0.42 0.41 0.42 0.42 0.42 0.42 0.42 0.42 0.41 0.42 0.42 0.42 0.42 0.42 0.42 0.42 0.41 0.42 0.42 0.42 0.42 0.42 0.42 0.42 0.41 0.42 0.42 0.42 0.42 0.42 0.42 0.42 0.41 0.42 0.42 0.42 0.42 0.42 0.42 0.42 0.41 0.42 0.42 0.42 0.42 0.42 0.42 0.42 0.41 0.42 0.42 0.42 0.42 0.42 0.42 0.42 0.41 0.42 0.42 0.42 0.42 0.42 0.42 0.42 0.41 0.42 0.42 0.42 0.42 0.42 0.42 0.42 0.41 0.42 0.42 0.42 0.42 0.42 0.42 0.42 0.41 0.42 0.42 0.42 0.42 0.42 0.42 0.42 0.41 0.42 0.42 0.42 0.42 0.42 0.42 0.41 0.42 0.42 0.42 0.42 0.42 0.42 0.42 0.41 0.42 0.42 0.42 0.42 0.42 0.42 0.42 0.41 0.42 0.42 0.42 0.42 0.42 0.42 0.42 0.41 0.42 0.42 0.42 0.42 0.42 0.42 0.42 0.41 0.42 0.42 0.42 0.42 0.42 0.42 0.42 0.41 0.42 0.42 0.42 0.42 0.42 0.42 0.42 0.41 0.42 0.42 0.42 0.42 0.42 0.42 0.42 0.41 0.42 0.42 0.42 0.42 0.42 0.42 0.42 0.41 0.42 0.42 0.42 0.42 0.42 0.42 0.42 0.41 0.42 0.42 0.42 0.42 0.42 0.42 0.42 0.41 0.42 0.42 0.42 0.42 0.42 0.42 0.41 0.42 0.42 0.42 0.42 0.42 0.42 0.42 0.41 0.42 0.42 0.42 0.42 0.42 0.42 0.42 0.41 0.42 0.42 0.42 0.42 0.42 0.42 0.42 0.41 0.42 0.42 0.42 0.42 0.42 0.42 0.42 0.41 0.42 0.42 0.42 0.42 0.42 0.42 0.42 0.41 0.42 0.42 0.42 0.42 0.42 0.42 0.42 0.41 0.42 0.42 0.42 0.42 0.42 0.42 0.42 0.41 0.42 0.42 0.42 0.42 0.42 0.42 0.42 0.41 0.42 0.42 0.42 0.42 0.42 0.42 0.42 0.41 0.42 0.42 0.42 0.42 0.42 0.42 0.42 0.41 0.42 0.42 0.42 0.42 0.42 0.42 0.42 0.41 0.42 0.42 0.42 0.42 0.42 0.42 0.41 0.42 0.42 0.42 0.42 0.42 0.42 0.42 0.41 0.42 0.42 0.42 0.42 0.42 0.42 0.42 0.41 0.42 0.42 0.42 0.42 0.42 0.42 0.42 0.41 0.42 0.42 0.42 0.42 0.42 0.42 0.42 0.41 0.42 0.42 0.42 0.42 0.42 0.42 0.42 0.41 0.42 0.42 0.42 0.42 0.42 0.42 0.42 0.41 0.42 0.42 0.42 0.42 0.42 0.42 0.42 0.41 0.42 0.42 0.42 0.42 0.42 0.42 0.42 0.41 0.42 0.42 0.42 0.42 0.42 0.42 0.42 0.41 0.42 0.42 0.42 0.42 0.42 0.42 0.42 0.41 0.42 0.42 0.42 0.42 0.42 0.42 0.41 0.42 0.42 0.42 0.42 0.42 0.42 0.42 0.41 0.42 0.42 0.42 0.42 0.42 0.42 0.42 0.41 0.42 0.42 0.42 0.42 0.42 0.42 0.42 0.41 0.42 0.42 0.42 0.42 0.42 0.42 0.42 0.41 0.42 0.42 0.42 0.42 0.42 0.42 0.42 0.41 0.42 0.42 0.42 0.42 0.42 0.42 0.42 0.41 0.42 0.42 0.42 0.42 0.42 0.42 0.42 0.41 0.42 0.42 0.42 0.42 0.42 0.42 0.42 0.41 0.42 0.42 0.42 0.42 0.42 0.42 0.42 0.41 0.42 0.42 0.42 0.42 0.42 0.42 0.42 0.41 0.42 0.42 0.42 0.42 0.42 0.42 0.41 0.42 0.42 0.42 0.42 0.42 0.42 0.42 0.41 0.42 0.42 0.42 0.42 0.42 0.42 0.42 0.41 0.42 0.42 0.42 0.42 0.42 0.42 0.42 0.41 0.42 0.42 0.42 0.42 0.42 0.42 0.42 0.41 0.42 0.42 0.42 0.42 0.42 0.42 0.42 0.41 0.42 0.42 0.42 0.42 0.42 0.42 0.42 0.41 0.42 0.42 0.42 0.42 0.42 0.42 0.42 0.41 0.42 0.42 0.42 0.42 0.42 0.42 0.42 0.41 0.42 0.42 0.42 0.42 0.42 0.42 0.42 0.41 0.42 0.42 0.42 0.42 0.42 0.42 0.42 0.41 0.42 0.42 0.42 0.42 0.42 0.42 0.42 0.41 0.42 0.42 0.42 0.42 0.42 0.42 0.41 0.42 0.42 0.42 0.42 0.42 0.42 0.42 0.41 0.42 0.42 0.42 0.42 0.42 0.42 0.42 0.41 0.42 0.42 0.42 0.42 0.42 0.42 0.42 0.41 0.42 0.42 0.42 0.42 0.42 0.42 0.42 0.41 0.42 0.42 0.42 0.42 0.42 0.42 0.42 0.41 0.42 0.42 0.42 0.42 0.42 0.42 0.42 0.41 0.42 0.42 0.42 0.42 0.42 0.42 0.42 0.41 0.42 0.42 0.42 0.42 0.42 0.42 0.42 0.41 0.42 0.42 0.42 0.42 0.42 0.42 0.42 0.41 0.42 0.42 0.42 0.42 0.42 0.42 0.42 0.41 0.42 0.42 0.42 0.42 0.42 0.42 0.41 0.42 0.42 0.42 0.42 0.42 0.42 0.42 0.41 0.42 0.42 0.42 0.42 0.42 0.42 0.42 0.41 0.42 0.42 0.42 0.42 0.42 0.42 0.42 0.41 0.42 0.42 0.42 0.42 0.42 0.42 0.42 0.41 0.42 0.42 0.42 0.42 0.42 0.42 0.42 0.41 0.42 0.42 0.42 0.42 0.42 0.42 0.42 0.41 0.42 0.42 0.42 0.42 0.42 0.42 0.42 0.41 0.42 0.42 0.42 0.42 0.42 0.42 0.42 0.41 0.42 0.42 0.42 0.42 0.42 0.42 0.42 0.41 0.42 0.42 0.42 0.42 0.42 0.42 0.42 0.41 0.42 0.42 0.42 0.42 0.42 0.42 0.41 0.42 0.42 0.42 0.42 0.42 0.42 0.42 0.41 0.42 0.42 0.42 0.42 0.42 0.42 0.42 0.41 0.42 0.42 0.42 0.42 0.42 0.42 0.42 0.41 0.42 0.42 0.42 0.42 0.42 0.42 0.42 0.41 0.42 0.42 0.42 0.42 0.42 0.42 0.42 0.41 0.42 0.42 0.42 0.42 0.42 0.42 0.42 0.41 0.42 0.42 0.42 0.42 0.42 0.42 0.42 0.41 0.42 0.42 0.42 0.42 0.42 0.42 0.42 0.41 0.42 0.42 0.42 0.42 0.42 0.42 0.42 0.41 0.42 0.42 0.42 0.42 0.42 0.42 0.42 0.41 0.42 0.42 0.42 0.42 0.42 0.42 0.42 0.41 0.42 0.42 0.42 0.42 0.42 0.42 0.41 0.42 0.42 0.42 0.42 0.42 0.42 0.42 0.41 0.42 0.42 0.42 0.42 0.42 0.42 0.42 0.41 0.42 0.42 0.42 0.42 0.42 0.42 0.42 0.41 0.42 0.42 0.42 0.42 0.42 0.42 0.42 0.41 0.42 0.42 0.42 0.42 0.42 0.42 0.42 0.41 0.42 0.42 0.42 0.42 0.42 0.42 0.42 0.41 0.42 0.42 0.42 0.42 0.42 0.42 0.42 0.41 0.42 0.42 0.42 0.42 0.42 0.42 0.42 0.41 0.42 0.42 0.42 0.42 0.42 0.42 0.42 0.41 0.42 0.42 0.42 0.42 0.42 0.42 0.42 0.41 0.42 0.42 0.42 0.42 0.42 0.42 0.41 0.42 0.42 0.42 0.42 0.42 0.42 0.42 0.41 0.42 0.42 0.42"
           style="fill:none;stroke:#fc8d62;stroke-width:2.25;stroke-linecap:round;stroke-linejoin:round;stroke-miterlimit:10;stroke-dasharray:0, 9, 6.75, 9;stroke-dashoffset:0;stroke-opacity:1"
           id="path148" /><path
           d="m 126.04,82.86 h 0.42 0.42 0.41 0.42 0.42 0.42 0.42 0.42 0.42 0.42 0.41 0.42 0.42 0.42 0.42 0.42 0.42 0.42 0.41 0.42 0.42 0.42 0.42 0.42 0.42 0.41 0.42 0.42 0.42 0.42 0.42 0.42 0.42 0.41 0.42 0.42 0.42 0.42 0.42 0.42 0.42 0.41 0.42 0.42 0.42 0.42 0.42 0.42 0.42 0.41 0.42 0.42 0.42 0.42 0.42 0.42 0.42 0.41 0.42 0.42 0.42 0.42 0.42 0.42 l 0.42,23.64 h 0.41 0.42 0.42 0.42 0.42 0.42 0.42 0.42 0.41 0.42 0.42 0.42 0.42 0.42 0.42 0.42 0.41 0.42 0.42 0.42 0.42 0.42 0.42 0.42 0.41 0.42 0.42 0.42 0.42 0.42 0.42 0.42 0.41 0.42 0.42 0.42 0.42 0.42 0.42 0.42 0.41 0.42 0.42 0.42 0.42 0.42 0.42 0.41 0.42 0.42 0.42 0.42 0.42 0.42 0.42 0.41 0.42 0.42 0.42 l 0.42,13.82 h 0.42 0.42 0.42 0.41 0.42 0.42 0.42 0.42 0.42 0.42 0.42 0.41 0.42 0.42 0.42 0.42 0.42 0.42 0.42 0.41 0.42 0.42 l 0.42,9.82 h 0.42 0.42 0.42 0.42 0.41 0.42 0.42 0.42 0.42 0.42 0.42 0.42 0.41 0.42 0.42 0.42 0.42 0.42 0.42 0.42 0.41 0.42 l 0.42,7.61 h 0.42 0.42 0.42 0.42 0.42 0.41 0.42 0.42 0.42 0.42 0.42 0.42 0.42 0.41 0.42 0.42 0.42 0.42 0.42 0.42 0.42 0.41 0.42 0.42 0.42 0.42 0.42 0.42 0.41 0.42 0.42 0.42 0.42 0.42 0.42 0.42 0.41 0.42 0.42 0.42 0.42 0.42 0.42 0.42 0.41 0.42 0.42 0.42 0.42 0.42 0.42 0.42 0.41 0.42 0.42 0.42 0.42 0.42 0.42 0.42 0.41 0.42 0.42 0.42 0.42 0.42 0.42 0.42 0.41 0.42 0.42 0.42 0.42 0.42 0.42 0.42 0.41 0.42 0.42 0.42 0.42 0.42 0.42 0.42 0.41 0.42 0.42 0.42 0.42 0.42 0.42 0.42 0.41 0.42 0.42 0.42 0.42 0.42 0.42 0.42 0.41 0.42 0.42 0.42 0.42 0.42 0.42 0.42 0.41 0.42 0.42 0.42 0.42 0.42 0.42 0.42 0.41 0.42 l 0.42,6.21 h 0.42 0.42 0.42 0.42 0.41 0.42 0.42 0.42 0.42 0.42 0.42 0.42 0.41 0.42 0.42 0.42 0.42 0.42 0.42 0.42 0.41 0.42 0.42 0.42 0.42 0.42 0.42 0.42 0.41 0.42 0.42 0.42 0.42 0.42 0.42 0.42 0.41 0.42 0.42 0.42 0.42 l 0.42,5.26 h 0.42 0.42 0.41 0.42 0.42 0.42 0.42 0.42 0.42 0.42 0.41 0.42 0.42 0.42 0.42 0.42 0.42 0.42 0.41 0.42 0.42 0.42 0.42 0.42 0.42 0.42 0.41 0.42 0.42 0.42 0.42 0.42 0.42 0.42 0.41 0.42 0.42 0.42 0.42 0.42 0.42 0.42 0.41 0.42 0.42 0.42 0.42 0.42 0.42 0.41 0.42 0.42 0.42 0.42 0.42 0.42 0.42 0.41 0.42 0.42 0.42 0.42 0.42 0.42 0.42 0.41 0.42 0.42 0.42 0.42 0.42 0.42 0.42 0.41 0.42 0.42 0.42 0.42 0.42 0.42 0.42 0.41 0.42 0.42 0.42 0.42 0.42 0.42 0.42 0.41 0.42 0.42 0.42 0.42 0.42 0.42 0.42 0.41 0.42 0.42 0.42 0.42 0.42 0.42 0.42 0.41 0.42 0.42 0.42 0.42 0.42 0.42 0.42 0.41 0.42 0.42 0.42 0.42 0.42 0.42 0.42 0.41 0.42 0.42 0.42 0.42 0.42 0.42 0.42 0.41 0.42 0.42 0.42 0.42 0.42 0.42 0.41 0.42 0.42 0.42 0.42 0.42 0.42 0.42 0.41 0.42 0.42 0.42 0.42 0.42 0.42 0.42 0.41 0.42 0.42 0.42 0.42 0.42 0.42 0.42 0.41 0.42 0.42 0.42 0.42 0.42 0.42 0.42 0.41 0.42 0.42 0.42 0.42 0.42 0.42 0.42 0.41 0.42 0.42 0.42 0.42 0.42 0.42 0.42 0.41 0.42 0.42 0.42 0.42 0.42 0.42 0.42 0.41 0.42 0.42 0.42 0.42 0.42 0.42 0.42 0.41 0.42 0.42 0.42 0.42 0.42 0.42 0.42 0.41 0.42 0.42 0.42 0.42 0.42 0.42 0.42 0.41 0.42 0.42 0.42 0.42 0.42 0.42 0.42 0.41 0.42 0.42 0.42 0.42 0.42 0.42 0.41 0.42 0.42 0.42 0.42 0.42 0.42 0.42 0.41 0.42 0.42 0.42 l 0.42,4.56 h 0.42 0.42 0.42 0.41 0.42 0.42 0.42 0.42 0.42 0.42 0.42 0.41 0.42 0.42 0.42 0.42 0.42 0.42 0.42 0.41 0.42 0.42 0.42 0.42 0.42 0.42 0.42 0.41 0.42 0.42 0.42 0.42 0.42 0.42 0.42 0.41 0.42 0.42 0.42 0.42 0.42 0.42 0.42 0.41 0.42 0.42 0.42 0.42 0.42 0.42 0.42 0.41 0.42 0.42 0.42 0.42 0.42 0.42 0.42 0.41 0.42 0.42 0.42 0.42 0.42 0.42 0.42 0.41 0.42 0.42 l 0.42,4.01 h 0.42 0.42 0.42 0.41 0.42 0.42 0.42 0.42 l 0.42,3.6 h 0.42 0.42 0.41 0.42 0.42 0.42 0.42 0.42 0.42 0.42 0.41 0.42 0.42 0.42 0.42 0.42 0.42 0.42 0.41 0.42 0.42 0.42 0.42 0.42 0.42 0.42 0.41 0.42 0.42 0.42 0.42 0.42 0.42 0.42 0.41 0.42 0.42 0.42 0.42 l 0.42,3.25 h 0.42 0.42 0.41 0.42 0.42 l 0.42,2.97 h 0.42 0.42 0.42 0.42 0.41 0.42 0.42 0.42 0.42 0.42 0.42 0.42 0.41 0.42 0.42 0.42 0.42 0.42 0.42 0.42 0.41 0.42 0.42 0.42 0.42 0.42 0.42 0.42 0.41 0.42 0.42 0.42 0.42 0.42 0.42 0.41 0.42 0.42 0.42 0.42 0.42 0.42 0.42 0.41 0.42 0.42 0.42 0.42 0.42 0.42 0.42 0.41 0.42 0.42 0.42 0.42 0.42 0.42 0.42 0.41 0.42 0.42 0.42 0.42 0.42 0.42 0.42 0.41 0.42 0.42 0.42 0.42 0.42 0.42 0.42 0.41 0.42 0.42 0.42 0.42 0.42 0.42 0.42 0.41 0.42 0.42 0.42 0.42 0.42 0.42 0.42 0.41 0.42 0.42 0.42 0.42 0.42 0.42 0.42 0.41 0.42 0.42 0.42 0.42 0.42 0.42 0.42 0.41 0.42 0.42 0.42 0.42 0.42 0.42 0.42 0.41 0.42 0.42 0.42 0.42 0.42 0.42 0.42 0.41 0.42 0.42 0.42 0.42 0.42 0.42 0.41 0.42 0.42 0.42 0.42 0.42 0.42 0.42 0.41 0.42 0.42 0.42 0.42 0.42 0.42 0.42 0.41 0.42 0.42 0.42 0.42 0.42 0.42 0.42 0.41 0.42 0.42 0.42 l 0.42,2.73 h 0.42 0.42 0.42 0.41 0.42 0.42 0.42 0.42 0.42 0.42 0.42 0.41 0.42 0.42 0.42 0.42 0.42 0.42 0.42 0.41 0.42 0.42 0.42 0.42 0.42 0.42 0.42 0.41 0.42 0.42 0.42 0.42 0.42 0.42 0.42 0.41 0.42 0.42 0.42 0.42 0.42 0.42 0.42 0.41 0.42 0.42 0.42 0.42 0.42 0.42 0.42 0.41 0.42 0.42 0.42 0.42 0.42 0.42 0.41 0.42 0.42 0.42 0.42 0.42 0.42 0.42 0.41 0.42 0.42 0.42 0.42 0.42 0.42 0.42 0.41 0.42 0.42 0.42 0.42 0.42 0.42 0.42 0.41 0.42 0.42 0.42 0.42 0.42 0.42 0.42 0.41 0.42 0.42 0.42 0.42 0.42 0.42 0.42 0.41 0.42 0.42 0.42 0.42 0.42 0.42 0.42 0.41 0.42 0.42 0.42 0.42 0.42 0.42 0.42 0.41 0.42 0.42 0.42 0.42 0.42 0.42 0.42 0.41 0.42 0.42 0.42 0.42 0.42 0.42 0.42 0.41 0.42 0.42 0.42 0.42 0.42 0.42 0.42 0.41 0.42 0.42 0.42 0.42 0.42 0.42 0.42 0.41 0.42 0.42 0.42 0.42 0.42 0.42 0.41 0.42 0.42 0.42 0.42 0.42 0.42 0.42 0.41 0.42 0.42 0.42 0.42 0.42 0.42 0.42 0.41 0.42 0.42 0.42 0.42 0.42 0.42 0.42 0.41 0.42 0.42 0.42 0.42 0.42 0.42 0.42 0.41 0.42 0.42 0.42 0.42 0.42 0.42 0.42 0.41 0.42 0.42 0.42 0.42 0.42 0.42 0.42 0.41 0.42 0.42 0.42 0.42 0.42 0.42 0.42 0.41 0.42 0.42 0.42 0.42 0.42 0.42 0.42 0.41 0.42 0.42 0.42 0.42 0.42 0.42 0.42 0.41 0.42 0.42 0.42 0.42 0.42 0.42 0.42 0.41 0.42 0.42 0.42 0.42 0.42 0.42 0.41 0.42 0.42 0.42 0.42 0.42 0.42 0.42 0.41 0.42 0.42 0.42 0.42 0.42 0.42 0.42 0.41 0.42 0.42 0.42 0.42 0.42 0.42 0.42 0.41 0.42 0.42 0.42 0.42 0.42 0.42 0.42 0.41 0.42 0.42 0.42 0.42 0.42 0.42 0.42 0.41 0.42 0.42 0.42 0.42 0.42 0.42 0.42 0.41 0.42 0.42 0.42 0.42 0.42 0.42 0.42 0.41 0.42 0.42 0.42 0.42 0.42 0.42 0.42 0.41 0.42 0.42 0.42 0.42 0.42 0.42 0.42 0.41 0.42 0.42 0.42 0.42 0.42 0.42 0.42 0.41 0.42 0.42 0.42 0.42 0.42 0.42 0.41 0.42 0.42 0.42 0.42 0.42 0.42 0.42 0.41 0.42 0.42 0.42 0.42 0.42 0.42 0.42 0.41 0.42 0.42 0.42 0.42 0.42 0.42 0.42 0.41 0.42 0.42 0.42 0.42 0.42 0.42 0.42 0.41 0.42 0.42 0.42 0.42 0.42 0.42 0.42 0.41 0.42 0.42 0.42 0.42 0.42 0.42 0.42 0.41 0.42 0.42 0.42 0.42 0.42 0.42 0.42 0.41 0.42 0.42 0.42 0.42 0.42 0.42 0.42 0.41 0.42 0.42 0.42 0.42 0.42 0.42 0.42 0.41 0.42 0.42 0.42 0.42 0.42 0.42 0.42 0.41 0.42 0.42 0.42 0.42 0.42 0.42 0.42 0.41 0.42 0.42 0.42 0.42 0.42 0.42 0.41 0.42 0.42 0.42 0.42 0.42 0.42 0.42 0.41 0.42 0.42 0.42 0.42 0.42 0.42 0.42 0.41 0.42 0.42 0.42 0.42 0.42 0.42 0.42 0.41 0.42 0.42 0.42 0.42 0.42 0.42 0.42 0.41 0.42 0.42 0.42 0.42 0.42 0.42 0.42 0.41 0.42 0.42 0.42 0.42 0.42 0.42 0.42 0.41 0.42 0.42 0.42 0.42 0.42 0.42 0.42 0.41 0.42 0.42 0.42 0.42 0.42 0.42 0.42 0.41 0.42 0.42 0.42 0.42 0.42 0.42 0.42 0.41 0.42 0.42 0.42 0.42 0.42 0.42 0.42 0.41 0.42 0.42 0.42 0.42 0.42 0.42 0.41 0.42 0.42 0.42 0.42 0.42 0.42 0.42 0.41 0.42 0.42 0.42 0.42 0.42 0.42 0.42 0.41 0.42 0.42 0.42 0.42 0.42 0.42 0.42 0.41 0.42 0.42 0.42 0.42 0.42 0.42 0.42 0.41 0.42 0.42 0.42 0.42 0.42 0.42 0.42 0.41 0.42 0.42 0.42 0.42 0.42 0.42 0.42 0.41 0.42 0.42 0.42 0.42 0.42 0.42 0.42 0.41 0.42 0.42 0.42 0.42 0.42 0.42 0.42 0.41 0.42 0.42 0.42 0.42 0.42 0.42 0.42 0.41 0.42 0.42 0.42 0.42 0.42 0.42 0.42 0.41 0.42 0.42 0.42 0.42 0.42 0.42 0.41 0.42 0.42 0.42 0.42 0.42 0.42 0.42 0.41 0.42 0.42 0.42 0.42 0.42 0.42 0.42 0.41 0.42 0.42 0.42 0.42 0.42 0.42 0.42 0.41 0.42 0.42 0.42 0.42 0.42 0.42 0.42 0.41 0.42 0.42 0.42 0.42 0.42 0.42 0.42 0.41 0.42 0.42 0.42 0.42 0.42 0.42 0.42 0.41 0.42 0.42 0.42 0.42 0.42 0.42 0.42 0.41 0.42 0.42 0.42 0.42 0.42 0.42 0.42 0.41 0.42 0.42 0.42 0.42 0.42 0.42 0.42 0.41 0.42 0.42 0.42 0.42 0.42 0.42 0.42 0.41 0.42 0.42 0.42 0.42 0.42 0.42 0.42 0.41 0.42 0.42 0.42 0.42 0.42 0.42 0.41 0.42 0.42 0.42 0.42 0.42 0.42 0.42 0.41 0.42 0.42 0.42 0.42 0.42 0.42 0.42 0.41 0.42 0.42 0.42 0.42 0.42 0.42 0.42 0.41 0.42 0.42 0.42 0.42 0.42 0.42 0.42 0.41 0.42 0.42 0.42 0.42 0.42 0.42 0.42 0.41 0.42 0.42 0.42 0.42 0.42 0.42 0.42 0.41 0.42 0.42 0.42 0.42 0.42 0.42 0.42 0.41 0.42 0.42 0.42 0.42 0.42 0.42 0.42 0.41 0.42 0.42 0.42 0.42 0.42 0.42 0.42 0.41 0.42 0.42 0.42 0.42 0.42 0.42 0.42 0.41 0.42 0.42 0.42 0.42 0.42 0.42 0.41 0.42 0.42 0.42 0.42 0.42 0.42 0.42 0.41 0.42 0.42 0.42 0.42 0.42 0.42 0.42 0.41 0.42 0.42 0.42 0.42 0.42 0.42 0.42 0.41 0.42 0.42 0.42 0.42 0.42 0.42 0.42 0.41 0.42 0.42 0.42 0.42 0.42 0.42 0.42 0.41 0.42 0.42 0.42 0.42 0.42 0.42 0.42 0.41 0.42 0.42 0.42 0.42 0.42 0.42 0.42 0.41 0.42 0.42 0.42 0.42 0.42 0.42 0.42 0.41 0.42 0.42 0.42 0.42 0.42 0.42 0.42 0.41 0.42 0.42 0.42 0.42 0.42 0.42 0.42 0.41 0.42 0.42 0.42 0.42 0.42 0.42 0.41 0.42 0.42 0.42 0.42 0.42 0.42 0.42 0.41 0.42 0.42 0.42 0.42 0.42 0.42 0.42 0.41 0.42 0.42 0.42 0.42 0.42 0.42 0.42 0.41 0.42 0.42 0.42 0.42 0.42 0.42 0.42 0.41 0.42 0.42 0.42 0.42 0.42 0.42 0.42 0.41 0.42 0.42 0.42 0.42 0.42 0.42 0.42 0.41 0.42 0.42 0.42 0.42 0.42 0.42 0.42 0.41 0.42 0.42 0.42 0.42 0.42 0.42 0.42 0.41 0.42 0.42 0.42 0.42 0.42 0.42 0.42 0.41 0.42 0.42 0.42 0.42 0.42 0.42 0.42 0.41 0.42 0.42 0.42 0.42 0.42 0.42 0.42 0.41 0.42 0.42 0.42 0.42 0.42 0.42 0.41 0.42 0.42 0.42 0.42 0.42 0.42 0.42 0.41 0.42 0.42 0.42 0.42 0.42 0.42 0.42 0.41 0.42 0.42 0.42 0.42 0.42 0.42 0.42 0.41 0.42 0.42 0.42 0.42 0.42 0.42 0.42 0.41 0.42 0.42 0.42 0.42 0.42 0.42 0.42 0.41 0.42 0.42 0.42 0.42 0.42 0.42 0.42 0.41 0.42 0.42 0.42 0.42 0.42 0.42 0.42 0.41 0.42 0.42 0.42 0.42 0.42 0.42 0.42 0.41 0.42 0.42 0.42 0.42 0.42 0.42 0.42 0.41 0.42 0.42 0.42 0.42 0.42 0.42 0.42 0.41 0.42 0.42 0.42 0.42 0.42 0.42 0.41 0.42 0.42 0.42 0.42 0.42 0.42 0.42 0.41 0.42 0.42 0.42"
           style="fill:none;stroke:#66c2a5;stroke-width:2.25;stroke-linecap:round;stroke-linejoin:round;stroke-miterlimit:10;stroke-dasharray:0, 9, 6.75, 9;stroke-dashoffset:0;stroke-opacity:1"
           id="path150" /><path
           d="m 114.73,82.86 h 0.42 0.42 0.42 0.42 0.42 0.41 0.42 0.42 0.42 0.42 0.42 0.42 0.42 0.41 0.42 0.42 0.42 0.42 0.42 0.42 0.42 0.41 0.42 0.42 0.42 0.42 0.42 0.42 0.42 0.41 0.42 0.42 0.42 0.42 0.42 0.42 0.42 0.41 0.42 0.42 0.42 0.42 0.42 0.42 0.42 0.41 0.42 0.42 0.42 0.42 0.42 0.42 0.41 0.42 0.42 0.42 0.42 0.42 0.42 0.42 0.41 0.42 0.42 0.42 0.42 0.42 0.42 0.42 0.41 0.42 0.42 0.42 0.42 0.42 0.42 0.42 0.41 0.42 0.42 0.42 0.42 0.42 0.42 0.42 0.41 0.42 0.42 0.42 0.42 0.42 0.42 0.42 0.41 0.42 0.42 0.42 0.42 0.42 0.42 0.42 0.41 0.42 0.42 0.42 0.42 0.42 0.42 0.42 0.41 0.42 0.42 0.42 0.42 0.42 0.42 0.42 0.41 0.42 0.42 0.42 0.42 0.42 0.42 0.42 0.41 0.42 0.42 0.42 0.42 0.42 0.42 0.42 0.41 0.42 0.42 0.42 0.42 0.42 0.42 0.41 0.42 0.42 0.42 0.42 0.42 0.42 0.42 0.41 0.42 0.42 0.42 0.42 0.42 0.42 0.42 0.41 0.42 0.42 0.42 0.42 0.42 0.42 0.42 0.41 0.42 0.42 0.42 0.42 0.42 0.42 0.42 0.41 0.42 0.42 0.42 0.42 0.42 0.42 0.42 0.41 0.42 0.42 0.42 0.42 0.42 0.42 0.42 0.41 0.42 0.42 0.42 0.42 0.42 0.42 0.42 0.41 0.42 0.42 0.42 0.42 0.42 0.42 0.42 0.41 0.42 0.42 0.42 0.42 0.42 0.42 0.42 0.41 0.42 0.42 0.42 0.42 0.42 0.42 0.42 0.41 0.42 0.42 0.42 0.42 0.42 0.42 0.41 0.42 0.42 0.42 0.42 0.42 0.42 0.42 0.41 0.42 0.42 0.42 0.42 0.42 0.42 0.42 0.41 0.42 0.42 0.42 0.42 0.42 0.42 0.42 0.41 0.42 0.42 0.42 0.42 0.42 0.42 0.42 0.41 0.42 l 0.42,23.64 h 0.42 0.42 0.42 0.42 0.42 0.41 0.42 0.42 0.42 0.42 0.42 0.42 0.42 0.41 0.42 0.42 0.42 0.42 0.42 0.42 0.42 0.41 0.42 0.42 0.42 0.42 0.42 0.42 0.42 0.41 0.42 0.42 0.42 0.42 0.42 0.42 0.42 0.41 0.42 0.42 0.42 0.42 0.42 0.42 0.42 0.41 0.42 0.42 0.42 0.42 0.42 0.42 0.42 0.41 0.42 0.42 0.42 0.42 0.42 0.42 0.41 0.42 0.42 0.42 0.42 0.42 0.42 0.42 0.41 0.42 0.42 0.42 0.42 0.42 0.42 0.42 0.41 0.42 0.42 0.42 0.42 0.42 0.42 0.42 0.41 0.42 0.42 0.42 0.42 0.42 0.42 0.42 0.41 0.42 0.42 0.42 0.42 0.42 0.42 0.42 0.41 0.42 0.42 0.42 0.42 0.42 0.42 0.42 0.41 0.42 0.42 0.42 0.42 0.42 0.42 0.42 0.41 0.42 0.42 0.42 0.42 0.42 0.42 0.42 0.41 0.42 0.42 0.42 0.42 0.42 0.42 0.42 0.41 0.42 0.42 0.42 0.42 0.42 0.42 0.42 0.41 0.42 0.42 0.42 0.42 0.42 0.42 0.41 0.42 0.42 0.42 0.42 0.42 0.42 0.42 0.41 0.42 0.42 0.42 0.42 0.42 0.42 0.42 0.41 0.42 0.42 0.42 0.42 0.42 0.42 0.42 0.41 0.42 0.42 0.42 0.42 0.42 0.42 0.42 0.41 0.42 0.42 0.42 0.42 0.42 0.42 0.42 0.41 0.42 0.42 0.42 0.42 0.42 0.42 0.42 0.41 0.42 0.42 0.42 0.42 0.42 0.42 0.42 0.41 0.42 0.42 0.42 0.42 0.42 0.42 0.42 0.41 0.42 0.42 0.42 0.42 0.42 0.42 0.42 0.41 0.42 0.42 0.42 0.42 0.42 0.42 0.42 0.41 0.42 0.42 0.42 0.42 0.42 0.42 0.41 0.42 0.42 0.42 0.42 0.42 0.42 0.42 0.41 0.42 0.42 0.42 0.42 0.42 0.42 0.42 0.41 0.42 0.42 0.42 0.42 0.42 0.42 0.42 0.41 0.42 0.42 0.42 0.42 0.42 0.42 0.42 0.41 0.42 0.42 0.42 0.42 0.42 0.42 0.42 0.41 0.42 0.42 0.42 0.42 0.42 0.42 0.42 0.41 0.42 0.42 0.42 0.42 0.42 0.42 0.42 0.41 0.42 0.42 0.42 0.42 0.42 0.42 0.42 0.41 0.42 0.42 0.42 0.42 0.42 0.42 0.42 0.41 0.42 0.42 0.42 0.42 0.42 0.42 0.42 0.41 0.42 0.42 0.42 0.42 0.42 0.42 0.42 0.41 0.42 0.42 0.42 0.42 0.42 0.42 0.41 0.42 0.42 0.42 0.42 0.42 0.42 0.42 0.41 0.42 0.42 0.42 0.42 0.42 0.42 0.42 0.41 0.42 0.42 0.42 0.42 0.42 0.42 0.42 0.41 0.42 0.42 0.42 0.42 0.42 0.42 0.42 0.41 0.42 0.42 0.42 0.42 0.42 0.42 0.42 0.41 0.42 0.42 0.42 0.42 0.42 0.42 0.42 0.41 0.42 0.42 0.42 0.42 0.42 0.42 0.42 0.41 0.42 0.42 0.42 0.42 0.42 0.42 0.42 0.41 0.42 0.42 0.42 0.42 0.42 0.42 0.42 0.41 0.42 0.42 0.42 0.42 0.42 0.42 0.42 0.41 0.42 0.42 0.42 0.42 0.42 0.42 0.41 0.42 0.42 0.42 0.42 0.42 0.42 0.42 0.41 0.42 0.42 0.42 0.42 0.42 0.42 0.42 0.41 0.42 0.42 0.42 0.42 0.42 0.42 0.42 0.41 0.42 0.42 0.42 0.42 0.42 0.42 0.42 0.41 0.42 0.42 0.42 0.42 0.42 0.42 0.42 0.41 0.42 0.42 0.42 0.42 0.42 0.42 0.42 0.41 0.42 0.42 0.42 0.42 0.42 0.42 0.42 0.41 0.42 0.42 0.42 0.42 0.42 0.42 0.42 0.41 0.42 0.42 0.42 0.42 0.42 0.42 0.42 0.41 0.42 0.42 0.42 0.42 0.42 0.42 0.42 0.41 0.42 0.42 0.42 0.42 0.42 0.42 0.41 0.42 0.42 0.42 0.42 0.42 0.42 0.42 0.41 0.42 0.42 0.42 0.42 0.42 0.42 0.42 0.41 0.42 0.42 0.42 0.42 0.42 0.42 0.42 0.41 0.42 0.42 0.42 0.42 0.42 0.42 0.42 0.41 0.42 0.42 0.42 0.42 0.42 0.42 0.42 0.41 0.42 0.42 0.42 0.42 0.42 0.42 0.42 0.41 0.42 0.42 0.42 0.42 0.42 0.42 0.42 0.41 0.42 0.42 0.42 0.42 0.42 0.42 0.42 0.41 0.42 0.42 0.42 0.42 0.42 0.42 0.42 0.41 0.42 0.42 0.42 0.42 0.42 0.42 0.42 0.41 0.42 0.42 0.42 0.42 0.42 0.42 0.42 0.41 0.42 0.42 0.42 0.42 0.42 0.42 0.41 0.42 0.42 0.42 0.42 0.42 0.42 0.42 0.41 0.42 0.42 0.42 0.42 0.42 0.42 0.42 l 0.41,13.82 h 0.42 0.42 0.42 0.42 0.42 0.42 0.42 0.41 0.42 0.42 0.42 0.42 0.42 0.42 0.42 0.41 0.42 0.42 0.42 0.42 0.42 0.42 0.42 0.41 0.42 0.42 0.42 0.42 0.42 0.42 0.42 0.41 0.42 0.42 0.42 0.42 0.42 0.42 0.42 0.41 0.42 0.42 0.42 0.42 0.42 0.42 0.42 0.41 0.42 0.42 0.42 0.42 0.42 0.42 0.42 0.41 0.42 0.42 0.42 0.42 0.42 0.42 0.42 0.41 0.42 0.42 0.42 0.42 0.42 0.42 0.41 0.42 0.42 0.42 0.42 0.42 0.42 0.42 0.41 0.42 0.42 0.42 0.42 0.42 0.42 0.42 0.41 0.42 0.42 0.42 0.42 0.42 0.42 0.42 0.41 0.42 0.42 0.42 0.42 0.42 0.42 0.42 0.41 0.42 0.42 0.42 0.42 0.42 0.42 0.42 0.41 0.42 0.42 0.42 0.42 0.42 0.42 0.42 0.41 0.42 0.42 0.42 0.42 0.42 0.42 0.42 0.41 0.42 0.42 0.42 0.42 0.42 0.42 0.42 0.41 0.42 0.42 0.42 0.42 0.42 0.42 0.42 0.41 0.42 0.42 0.42 0.42 0.42 0.42 0.42 0.41 0.42 0.42 0.42 0.42 0.42 0.42 0.42 0.41 0.42 0.42 0.42 0.42 0.42 0.42 0.41 0.42 0.42 0.42 0.42 0.42 0.42 0.42 0.41 0.42 0.42 0.42 0.42 0.42 0.42 0.42 0.41 0.42 0.42 0.42 0.42 0.42 0.42 0.42 0.41 0.42 0.42 0.42 0.42 0.42 0.42 0.42 0.41 0.42 0.42 0.42 0.42 0.42 0.42 0.42 0.41 0.42 0.42 0.42 0.42 0.42 0.42 0.42 0.41 0.42 0.42 0.42 0.42 0.42 0.42 0.42 0.41 0.42 0.42 0.42 0.42 0.42 0.42 0.42 0.41 0.42 0.42 0.42 0.42 0.42 0.42 0.42 0.41 0.42 0.42 0.42 0.42 0.42 0.42 0.42 0.41 0.42 0.42 0.42 0.42 0.42 0.42 0.41 0.42 0.42 0.42 0.42 0.42 0.42 0.42 0.41 0.42 0.42 0.42 0.42 0.42 0.42 0.42 0.41 0.42 0.42 0.42 0.42 0.42 0.42 0.42 0.41 0.42 0.42 0.42 0.42 0.42 0.42 0.42 0.41 0.42 0.42 0.42 0.42 0.42 0.42 0.42 0.41 0.42 0.42 0.42 0.42 0.42 0.42 0.42 0.41 0.42 0.42 0.42 0.42 0.42 0.42 0.42 0.41 0.42 0.42 0.42 0.42 0.42 0.42 0.42 0.41 0.42 0.42 0.42 0.42 0.42 0.42 0.42 0.41 0.42 0.42 0.42 0.42 0.42 0.42 0.42 0.41 0.42 0.42 0.42 0.42 0.42 0.42 0.41 0.42 0.42 0.42 0.42 0.42 0.42 0.42 0.41 0.42 0.42 0.42 0.42 0.42 0.42 0.42 0.41 0.42 0.42 0.42 0.42 0.42 0.42 0.42 0.41 0.42 0.42 0.42 0.42 0.42 0.42 0.42 0.41 0.42 0.42 0.42 0.42 0.42 0.42 0.42 0.41 0.42 0.42 0.42 0.42 0.42 0.42 0.42 0.41 0.42 0.42 0.42 0.42 0.42 0.42 0.42 0.41 0.42 0.42 0.42 0.42 0.42 0.42 0.42 0.41 0.42 0.42 0.42 0.42 0.42 0.42 0.42 0.41 0.42 0.42 0.42 0.42 0.42 0.42 0.42 0.41 0.42 0.42 0.42 0.42 0.42 0.42 0.42 0.41 0.42 0.42 0.42 0.42 0.42 0.42 0.41 0.42 0.42 0.42 0.42 0.42 0.42 0.42 0.41 0.42 0.42 0.42 0.42 0.42 0.42 0.42 0.41 0.42 0.42 0.42 0.42 0.42 0.42 0.42 0.41 0.42 0.42 0.42 0.42 0.42 0.42 0.42 0.41 0.42 0.42 0.42 0.42 0.42 0.42 0.42 0.41 0.42 0.42 0.42 0.42 0.42 0.42 0.42 0.41 0.42 0.42 0.42 0.42 0.42 0.42 0.42 0.41 0.42 0.42 0.42 0.42 0.42 0.42 0.42 0.41 0.42 0.42 0.42 0.42 0.42 0.42 0.42 0.41 0.42 0.42 0.42 0.42 0.42 0.42 0.42 0.41 0.42 0.42 0.42 0.42 0.42 0.42 0.41 0.42 0.42 0.42 0.42 0.42 0.42 0.42 0.41 0.42 0.42 0.42 0.42 0.42 0.42 0.42 0.41 0.42 0.42 0.42 0.42 0.42 0.42 0.42 0.41 0.42 0.42 0.42 0.42 0.42 0.42 0.42 0.41 0.42 0.42 0.42 0.42 0.42 0.42 0.42 0.41 0.42 0.42 0.42 0.42 0.42 0.42 0.42 0.41 0.42 0.42 0.42 0.42 0.42 0.42 0.42 0.41 0.42 0.42 0.42 0.42 0.42 0.42 0.42 0.41 0.42 0.42 0.42 0.42 0.42 0.42 0.42 0.41 0.42 0.42 0.42 0.42 0.42 0.42 0.42 0.41 0.42 0.42 0.42 0.42 0.42 0.42 0.41 0.42 0.42 0.42 0.42 0.42 0.42 0.42 0.41 0.42 0.42 0.42 0.42 0.42 0.42 0.42 0.41 0.42 0.42 0.42 0.42 0.42 0.42 0.42 0.41 0.42 0.42 0.42 0.42 0.42 0.42 0.42 0.41 0.42 0.42 0.42 0.42 0.42 0.42 0.42 0.41 0.42 0.42 0.42 0.42 0.42 0.42 0.42 0.41 0.42 0.42 0.42 0.42 0.42 0.42 0.42 0.41 0.42 0.42 0.42 0.42 0.42 0.42 0.42 0.41 0.42 0.42 0.42 0.42 0.42 0.42 0.42 0.41 0.42 0.42 0.42 0.42 0.42 0.42 0.42 0.41 0.42 0.42 0.42 0.42 0.42 0.42 0.42 0.41 0.42 0.42 0.42 0.42 0.42 0.42 0.41 0.42 0.42 0.42 0.42 0.42 0.42 0.42 0.41 0.42 0.42 0.42 0.42 0.42 0.42 0.42 0.41 0.42 0.42 0.42 0.42 0.42 0.42 0.42 0.41 0.42 0.42 0.42 0.42 0.42 0.42 0.42 0.41 0.42 0.42 0.42 0.42 0.42 0.42 0.42 0.41 0.42 0.42 0.42 0.42 0.42 0.42 0.42 0.41 0.42 0.42 0.42 0.42 0.42 0.42 0.42 0.41 0.42 0.42 0.42 0.42 0.42 0.42 0.42 0.41 0.42 0.42 0.42 0.42 0.42 0.42 0.42 0.41 0.42 0.42 0.42 0.42 0.42 0.42 0.42 0.41 0.42 0.42 0.42 0.42 0.42 0.42 0.41 0.42 0.42 0.42 0.42 0.42 0.42 0.42 0.41 0.42 0.42 0.42 0.42 0.42 0.42 0.42 0.41 0.42 0.42 0.42 0.42 0.42 0.42 0.42 0.41 0.42 0.42 0.42 0.42 0.42 0.42 0.42 0.41 0.42 0.42 0.42 0.42 0.42 0.42 0.42 0.41 0.42 0.42 0.42 0.42 0.42 0.42 0.42 0.41 0.42 0.42 0.42 0.42 0.42 0.42 0.42 0.41 0.42 0.42 0.42 0.42 0.42 0.42 0.42 0.41 0.42 0.42 0.42 0.42 0.42 0.42 0.42 0.41 0.42 0.42 0.42 0.42 0.42 0.42 0.42 0.41 0.42 0.42 0.42 0.42 0.42 0.42 0.41 0.42 0.42 0.42 0.42 0.42 0.42 0.42 0.41 0.42 0.42 0.42 0.42 0.42 0.42 0.42 0.41 0.42 0.42 0.42 0.42 0.42 0.42 0.42 0.41 0.42 0.42 0.42 0.42 0.42 0.42 0.42 0.41 0.42 0.42 0.42 0.42 0.42 0.42 0.42 0.41 0.42 0.42 0.42 0.42 0.42 0.42 0.42 0.41 0.42 0.42 0.42 0.42 0.42 0.42 0.42 0.41 0.42 0.42 0.42 0.42 0.42 0.42 0.42 0.41 0.42 0.42 0.42 0.42 0.42 0.42 0.42 0.41 0.42 0.42 0.42 0.42 0.42 0.42 0.42 0.41 0.42 0.42 0.42 0.42 0.42 0.42 0.42 0.41 0.42 0.42 0.42 0.42 0.42 0.42 0.41 0.42 0.42 0.42 0.42 0.42 0.42 0.42 0.41 0.42 0.42 0.42 0.42 0.42 0.42 0.42 0.41 0.42 0.42 0.42 0.42 0.42 0.42 0.42 0.41 0.42 0.42 0.42 0.42 0.42 0.42 0.42 0.41 0.42 0.42 0.42 0.42 0.42 0.42 0.42 0.41 0.42 0.42 0.42 0.42 0.42 0.42 0.42 0.41 0.42 0.42 0.42 0.42 0.42 0.42 0.42 0.41 0.42 0.42 0.42 0.42 0.42 0.42 0.42 0.41 0.42 0.42 0.42 0.42 0.42 0.42 0.42 0.41 0.42 0.42 0.42 0.42 0.42 0.42 0.42 0.41 0.42 0.42 0.42 0.42 0.42 0.42 0.41 0.42 0.42 0.42 0.42 0.42 0.42 0.42 0.41 0.42 0.42 0.42"
           style="fill:none;stroke:#8da0cb;stroke-width:2.25;stroke-linecap:round;stroke-linejoin:round;stroke-miterlimit:10;stroke-dasharray:0, 9, 6.75, 9;stroke-dashoffset:0;stroke-opacity:1"
           id="path152" /><path
           d="M 494.53,73.44 V 327.66"
           style="fill:none;stroke:#838b8b;stroke-width:1.5;stroke-linecap:round;stroke-linejoin:round;stroke-miterlimit:10;stroke-dasharray:0, 6;stroke-dashoffset:0;stroke-opacity:1"
           id="path154" /><path
           d="M 67.41,219.53 H 234.9 v 98.92 H 67.41 Z"
           style="fill:#ffffff;fill-opacity:1;fill-rule:nonzero;stroke:#000000;stroke-width:0.75;stroke-linecap:round;stroke-linejoin:round;stroke-miterlimit:10;stroke-dasharray:none;stroke-opacity:1"
           id="path156" /><text
           transform="matrix(1,0,0,-1,105.49,302.19)"
           style="font-variant:normal;font-weight:normal;font-size:12px;font-family:Helvetica;-inkscape-font-specification:Helvetica;writing-mode:lr-tb;fill:#000000;fill-opacity:1;fill-rule:nonzero;stroke:none"
           id="text160"><tspan
             x="0 3.336 13.332 20.004 26.676001 33.348 39.348 42.683998 51.348 54.012001 60.683998 66.683998 72.683998 75.348 78.683998 81.348 88.019997"
             y="0"
             id="tspan158">Images Classified</tspan></text><path
           d="m 80.73,269.26 h 21.6"
           style="fill:none;stroke:#fc8d62;stroke-width:1.5;stroke-linecap:round;stroke-linejoin:round;stroke-miterlimit:10;stroke-dasharray:none;stroke-opacity:1"
           id="path162" /><path
           d="m 80.73,254.86 h 21.6"
           style="fill:none;stroke:#66c2a5;stroke-width:1.5;stroke-linecap:round;stroke-linejoin:round;stroke-miterlimit:10;stroke-dasharray:none;stroke-opacity:1"
           id="path164" /><path
           d="m 80.73,240.46 h 21.6"
           style="fill:none;stroke:#8da0cb;stroke-width:1.5;stroke-linecap:round;stroke-linejoin:round;stroke-miterlimit:10;stroke-dasharray:none;stroke-opacity:1"
           id="path166" /><text
           transform="matrix(1,0,0,-1,84.48,283.66)"
           style="font-variant:normal;font-weight:normal;font-size:12px;font-family:Helvetica;-inkscape-font-specification:Helvetica;writing-mode:lr-tb;fill:#000000;fill-opacity:1;fill-rule:nonzero;stroke:none"
           id="text170"><tspan
             x="0 8.6639996 15.336 19.332001 23.327999 30 36 39.335999 42"
             y="0"
             id="tspan168">Correctly</tspan></text><text
           transform="matrix(1,0,0,-1,113.13,264.95)"
           style="font-variant:normal;font-weight:normal;font-size:12px;font-family:Helvetica;-inkscape-font-specification:Helvetica;writing-mode:lr-tb;fill:#000000;fill-opacity:1;fill-rule:nonzero;stroke:none"
           id="text174"><tspan
             x="0 8.0039997 14.676"
             y="0"
             id="tspan172">Bad</tspan></text><text
           transform="matrix(1,0,0,-1,113.13,250.55)"
           style="font-variant:normal;font-weight:normal;font-size:12px;font-family:Helvetica;-inkscape-font-specification:Helvetica;writing-mode:lr-tb;fill:#000000;fill-opacity:1;fill-rule:nonzero;stroke:none"
           id="text178"><tspan
             x="0 8.0039997 14.676 19.152 22.488001"
             y="0"
             id="tspan176">Earth</tspan></text><text
           transform="matrix(1,0,0,-1,113.13,236.15)"
           style="font-variant:normal;font-weight:normal;font-size:12px;font-family:Helvetica;-inkscape-font-specification:Helvetica;writing-mode:lr-tb;fill:#000000;fill-opacity:1;fill-rule:nonzero;stroke:none"
           id="text182"><tspan
             x="0 8.0039997 14.676 21.348"
             y="0"
             id="tspan180">Edge</tspan></text><path
           d="m 161.96,269.26 h 21.6"
           style="fill:none;stroke:#fc8d62;stroke-width:1.5;stroke-linecap:round;stroke-linejoin:round;stroke-miterlimit:10;stroke-dasharray:0, 6, 4.5, 6;stroke-dashoffset:0;stroke-opacity:1"
           id="path184" /><path
           d="m 161.96,254.86 h 21.6"
           style="fill:none;stroke:#66c2a5;stroke-width:1.5;stroke-linecap:round;stroke-linejoin:round;stroke-miterlimit:10;stroke-dasharray:0, 6, 4.5, 6;stroke-dashoffset:0;stroke-opacity:1"
           id="path186" /><path
           d="m 161.96,240.46 h 21.6"
           style="fill:none;stroke:#8da0cb;stroke-width:1.5;stroke-linecap:round;stroke-linejoin:round;stroke-miterlimit:10;stroke-dasharray:0, 6, 4.5, 6;stroke-dashoffset:0;stroke-opacity:1"
           id="path188" /><text
           transform="matrix(1,0,0,-1,162.04,283.66)"
           style="font-variant:normal;font-weight:normal;font-size:12px;font-family:Helvetica;-inkscape-font-specification:Helvetica;writing-mode:lr-tb;fill:#000000;fill-opacity:1;fill-rule:nonzero;stroke:none"
           id="text192"><tspan
             x="0 3.336 10.008 16.007999 22.68 26.676001 30.672001 37.344002 43.344002 46.68 49.344002"
             y="0"
             id="tspan190">Incorrectly</tspan></text><text
           transform="matrix(1,0,0,-1,194.36,264.95)"
           style="font-variant:normal;font-weight:normal;font-size:12px;font-family:Helvetica;-inkscape-font-specification:Helvetica;writing-mode:lr-tb;fill:#000000;fill-opacity:1;fill-rule:nonzero;stroke:none"
           id="text196"><tspan
             x="0 8.0039997 14.676"
             y="0"
             id="tspan194">Bad</tspan></text><text
           transform="matrix(1,0,0,-1,194.36,250.55)"
           style="font-variant:normal;font-weight:normal;font-size:12px;font-family:Helvetica;-inkscape-font-specification:Helvetica;writing-mode:lr-tb;fill:#000000;fill-opacity:1;fill-rule:nonzero;stroke:none"
           id="text200"><tspan
             x="0 8.0039997 14.676 19.152 22.488001"
             y="0"
             id="tspan198">Earth</tspan></text><text
           transform="matrix(1,0,0,-1,194.36,236.15)"
           style="font-variant:normal;font-weight:normal;font-size:12px;font-family:Helvetica;-inkscape-font-specification:Helvetica;writing-mode:lr-tb;fill:#000000;fill-opacity:1;fill-rule:nonzero;stroke:none"
           id="text204"><tspan
             x="0 8.0039997 14.676 21.348"
             y="0"
             id="tspan202">Edge</tspan></text></g></g></g></svg>
