<?xml version="1.0" encoding="UTF-8" standalone="no"?>
<svg
   xmlns:dc="http://purl.org/dc/elements/1.1/"
   xmlns:cc="http://creativecommons.org/ns#"
   xmlns:rdf="http://www.w3.org/1999/02/22-rdf-syntax-ns#"
   xmlns:svg="http://www.w3.org/2000/svg"
   xmlns="http://www.w3.org/2000/svg"
   version="1.1"
   id="svg160"
   xml:space="preserve"
   width="790.66669"
   height="457.33334"
   viewBox="0 0 790.66669 457.33334"><metadata
     id="metadata166"><rdf:RDF><cc:Work
         rdf:about=""><dc:format>image/svg+xml</dc:format><dc:type
           rdf:resource="http://purl.org/dc/dcmitype/StillImage" /><dc:title></dc:title></cc:Work></rdf:RDF></metadata><defs
     id="defs164"><clipPath
       clipPathUnits="userSpaceOnUse"
       id="clipPath178"><path
         d="m 44.64,44.64 h 536.4 V 324.78 H 44.64 Z"
         id="path176" /></clipPath><clipPath
       clipPathUnits="userSpaceOnUse"
       id="clipPath204"><path
         d="m 44.64,44.64 h 536.4 V 324.78 H 44.64 Z"
         id="path202" /></clipPath></defs><g
     id="g168"
     transform="matrix(1.3333333,0,0,-1.3333333,0,457.33333)"><g
       id="g170" /><g
       id="g172"><g
         id="g174"
         clip-path="url(#clipPath178)"><path
           d="m 0,55.02 h 1.96 3.68 3.68 3.68 3.68 3.68 3.68 3.68 3.68 3.67 3.68 3.68 3.68 3.68 3.68 3.68 3.68 3.68 3.68 3.67 3.68 3.68 3.68 3.68 3.68 3.68 3.68 3.68 3.68 3.67 3.68 3.68 3.68 3.68 3.68 3.68 3.68 3.68 3.68 3.67 3.68 3.68 3.68 3.68 3.68 3.68 3.68 3.68 3.68 3.68 3.67 3.68 3.68 3.68 3.68 3.68 3.68 3.68 3.68 3.68 3.67 3.68 l 3.68,0.01 h 3.68 l 3.68,0.01 3.68,0.01 3.68,0.02 3.68,0.03 3.68,0.04 3.68,0.07 3.67,0.08 3.68,0.12 3.68,0.17 3.68,0.24 3.68,0.32 3.68,0.43 3.68,0.57 3.68,0.76 3.68,0.99 3.68,1.27 3.67,1.63 3.68,2.06 3.68,2.56 3.68,3.17 3.68,3.85 3.68,4.65 3.68,5.53 3.68,6.51 3.68,7.56 3.68,8.67 3.67,9.82 3.68,10.97 3.68,12.09 3.68,13.14 3.68,14.07 3.68,14.83 3.68,15.39 3.68,15.68 3.68,15.68 3.68,15.35 3.67,14.67 3.68,13.64 3.68,12.25 3.68,10.53 3.68,8.53 3.68,6.28 3.68,3.84 3.68,1.29 3.68,-1.29 3.68,-3.84 3.67,-6.28 3.68,-8.53 3.68,-10.53 3.68,-12.25 3.68,-13.64 3.68,-14.67 3.68,-15.35 3.68,-15.68 3.68,-15.68 3.68,-15.39 3.67,-14.83 3.68,-14.07 3.68,-13.14 3.68,-12.09 3.68,-10.97 3.68,-9.82 3.68,-8.67 3.68,-7.56 3.68,-6.51 3.68,-5.53 3.68,-4.65 3.67,-3.85 3.68,-3.17 3.68,-2.56 3.68,-2.06 3.68,-1.63 3.68,-1.27 3.68,-0.99 3.68,-0.76 3.68,-0.57 3.68,-0.43 3.67,-0.32 3.68,-0.24 3.68,-0.17 3.68,-0.12 3.68,-0.08 3.68,-0.07 3.68,-0.04 3.68,-0.03 3.68,-0.02 3.68,-0.01 3.67,-0.01 h 3.68 l 3.68,-0.01 h 3.68 3.68 3.68 3.68 3.68 3.68 3.68 3.39"
           style="fill:none;stroke:#fc8d62;stroke-width:3;stroke-linecap:round;stroke-linejoin:round;stroke-miterlimit:10;stroke-dasharray:none;stroke-opacity:1"
           id="path180" /></g></g><g
       id="g182"><path
         d="m 44.64,44.64 h 536.4 V 324.78 H 44.64 V 44.64"
         style="fill:none;stroke:#000000;stroke-width:0.75;stroke-linecap:round;stroke-linejoin:round;stroke-miterlimit:10;stroke-dasharray:none;stroke-opacity:1"
         id="path184" /></g><g
       id="g186" /><g
       id="g188"><text
         transform="matrix(1,0,0,-1,251.81,18.72)"
         style="font-variant:normal;font-weight:normal;font-size:18px;font-family:Helvetica;-inkscape-font-specification:Helvetica;writing-mode:lr-tb;fill:#000000;fill-opacity:1;fill-rule:nonzero;stroke:none"
         id="text192"><tspan
           x="0 12.006 22.014 26.01 36.018002 41.021999 45.018002 55.026001 65.033997 70.038002 80.045998 90.054001 100.062 104.058 108.054 113.058"
           y="0"
           id="tspan190">Solution quality</tspan></text><text
         transform="matrix(0,1,1,0,27.36,110.17)"
         style="font-variant:normal;font-weight:normal;font-size:18px;font-family:Helvetica;-inkscape-font-specification:Helvetica;writing-mode:lr-tb;fill:#000000;fill-opacity:1;fill-rule:nonzero;stroke:none"
         id="text196"><tspan
           x="0 12.006 22.014 26.01 36.018002 41.021999 45.018002 55.026001 65.033997 70.038002 75.042 81.036003 91.043999 101.052 111.06 121.068 131.076 140.076"
           y="0"
           id="tspan194">Solution frequency</tspan></text></g><g
       id="g198"><g
         id="g200"
         clip-path="url(#clipPath204)"><path
           d="m 395.62,114.29 3.68,-3.57 3.68,-3.54 3.67,-3.46 3.68,-3.35 3.68,-3.23 3.68,-3.1 3.68,-2.96 3.68,-2.82 3.68,-2.67 3.68,-2.52 3.68,-2.39 3.68,-2.23 3.67,-2.1 3.68,-1.96 3.68,-1.82 3.68,-1.69 3.68,-1.56 3.68,-1.45 3.68,-1.32 3.68,-1.22 3.68,-1.11 3.68,-1.01 3.68,-0.91 3.67,-0.84 3.68,-0.75 3.68,-0.67 3.68,-0.6 3.68,-0.54 3.68,-0.48 3.68,-0.44 3.68,-0.4 3.68,-0.38 V 55.02 H 395.62 Z"
           style="fill:#f1b6da;fill-opacity:1;fill-rule:evenodd;stroke:none"
           id="path206" /><path
           d="m 0,55.04 h 1.96 l 3.68,0.01 3.68,0.01 3.68,0.01 3.68,0.01 3.68,0.01 3.68,0.02 3.68,0.02 3.68,0.02 3.67,0.03 3.68,0.03 3.68,0.04 3.68,0.05 3.68,0.05 3.68,0.07 3.68,0.07 3.68,0.09 3.68,0.1 3.68,0.11 3.67,0.13 3.68,0.16 3.68,0.17 3.68,0.21 3.68,0.23 3.68,0.26 3.68,0.3 3.68,0.34 3.68,0.38 3.68,0.43 3.67,0.49 3.68,0.54 3.68,0.61 3.68,0.67 3.68,0.75 3.68,0.84 3.68,0.91 3.68,1.01 3.68,1.11 3.68,1.22 3.67,1.32 3.68,1.44 3.68,1.57 3.68,1.69 3.68,1.82 3.68,1.96 3.68,2.09 3.68,2.24 3.68,2.38 3.68,2.53 3.68,2.67 3.67,2.82 3.68,2.95 3.68,3.09 3.68,3.22 3.68,3.35 3.68,3.47 3.68,3.57 3.68,3.66 3.68,3.75 3.68,3.82 3.67,3.88 3.68,3.91 3.68,3.93 3.68,3.93 3.68,3.91 3.68,3.87 3.68,3.8 3.68,3.72 3.68,3.62 3.68,3.48 3.67,3.34 3.68,3.16 3.68,2.96 3.68,2.75 3.68,2.52 3.68,2.26 3.68,2 3.68,1.72 3.68,1.42 3.68,1.12 3.67,0.8 3.68,0.49 3.68,0.16 3.68,-0.16 3.68,-0.49 3.68,-0.8 3.68,-1.12 3.68,-1.42 3.68,-1.72 3.68,-2 3.67,-2.26 3.68,-2.52 3.68,-2.75 3.68,-2.96 3.68,-3.16 3.68,-3.34 3.68,-3.48 3.68,-3.62 3.68,-3.72 3.68,-3.8 3.67,-3.87 3.68,-3.91 3.68,-3.93 3.68,-3.93 3.68,-3.91 3.68,-3.88 3.68,-3.82 3.68,-3.75 3.68,-3.66 3.68,-3.57 3.67,-3.47 3.68,-3.35 3.68,-3.22 3.68,-3.09 3.68,-2.95 3.68,-2.82 3.68,-2.67 3.68,-2.53 3.68,-2.38 3.68,-2.24 3.67,-2.09 3.68,-1.96 3.68,-1.82 3.68,-1.69 3.68,-1.57 3.68,-1.44 3.68,-1.32 3.68,-1.22 3.68,-1.11 3.68,-1.01 3.68,-0.91 3.67,-0.84 3.68,-0.75 3.68,-0.67 3.68,-0.61 3.68,-0.54 3.68,-0.49 3.68,-0.43 3.68,-0.38 3.68,-0.34 3.68,-0.3 3.67,-0.26 3.68,-0.23 3.68,-0.21 3.68,-0.17 3.68,-0.16 3.68,-0.13 3.68,-0.11 3.68,-0.1 3.68,-0.09 3.68,-0.07 3.67,-0.07 3.68,-0.05 3.68,-0.05 3.68,-0.04 3.68,-0.03 3.68,-0.03 3.68,-0.02 3.68,-0.02 3.68,-0.02 3.68,-0.01 3.39,-0.01"
           style="fill:none;stroke:#66c2a5;stroke-width:3;stroke-linecap:round;stroke-linejoin:round;stroke-miterlimit:10;stroke-dasharray:9, 15;stroke-dashoffset:0;stroke-opacity:1"
           id="path208" /><path
           d="M 303.64,44.64 V 324.78"
           style="fill:none;stroke:#a6d854;stroke-width:3;stroke-linecap:round;stroke-linejoin:round;stroke-miterlimit:10;stroke-dasharray:0, 12, 9, 12;stroke-dashoffset:0;stroke-opacity:1"
           id="path210" /><path
           d="M 395.62,44.64 V 324.78"
           style="fill:none;stroke:#e78ac3;stroke-width:3;stroke-linecap:round;stroke-linejoin:round;stroke-miterlimit:10;stroke-dasharray:3, 9, 15, 9;stroke-dashoffset:0;stroke-opacity:1"
           id="path212" /><path
           d="M 487.59,44.64 V 324.78"
           style="fill:none;stroke:#8da0cb;stroke-width:3;stroke-linecap:round;stroke-linejoin:round;stroke-miterlimit:10;stroke-dasharray:0, 12;stroke-dashoffset:0;stroke-opacity:1"
           id="path214" /><path
           d="M 57.6,307.5 H 96.48"
           style="fill:none;stroke:#66c2a5;stroke-width:2.25;stroke-linecap:round;stroke-linejoin:round;stroke-miterlimit:10;stroke-dasharray:6.75, 11.25;stroke-dashoffset:0;stroke-opacity:1"
           id="path216" /><path
           d="M 57.6,290.22 H 96.48"
           style="fill:none;stroke:#fc8d62;stroke-width:2.25;stroke-linecap:round;stroke-linejoin:round;stroke-miterlimit:10;stroke-dasharray:none;stroke-opacity:1"
           id="path218" /><path
           d="M 57.6,272.94 H 96.48"
           style="fill:none;stroke:#a6d854;stroke-width:2.25;stroke-linecap:round;stroke-linejoin:round;stroke-miterlimit:10;stroke-dasharray:0, 9, 6.75, 9;stroke-dashoffset:0;stroke-opacity:1"
           id="path220" /><path
           d="M 57.6,255.66 H 96.48"
           style="fill:none;stroke:#e78ac3;stroke-width:2.25;stroke-linecap:round;stroke-linejoin:round;stroke-miterlimit:10;stroke-dasharray:2.25, 6.75, 11.25, 6.75;stroke-dashoffset:0;stroke-opacity:1"
           id="path222" /><path
           d="M 57.6,238.38 H 96.48"
           style="fill:none;stroke:#8da0cb;stroke-width:2.25;stroke-linecap:round;stroke-linejoin:round;stroke-miterlimit:10;stroke-dasharray:0, 9;stroke-dashoffset:0;stroke-opacity:1"
           id="path224" /><text
           transform="matrix(1,0,0,-1,109.44,302.47)"
           style="font-variant:normal;font-weight:normal;font-size:14px;font-family:Helvetica;-inkscape-font-specification:Helvetica;writing-mode:lr-tb;fill:#000000;fill-opacity:1;fill-rule:nonzero;stroke:none"
           id="text228"><tspan
             x="0 10.108 14.77 22.344 32.452 40.236 44.127998 51.911999 55.02 62.02 65.912003 70.783997 73.891998 81.396004 89.18 93.071999 96.18 103.964"
             y="0"
             id="tspan226">Crowd distribution</tspan></text><text
           transform="matrix(1,0,0,-1,109.44,285.19)"
           style="font-variant:normal;font-weight:normal;font-size:14px;font-family:Helvetica;-inkscape-font-specification:Helvetica;writing-mode:lr-tb;fill:#000000;fill-opacity:1;fill-rule:nonzero;stroke:none"
           id="text232"><tspan
             x="0 9.3380003 16.337999 24.122 31.906 37.127998 41.02 44.911999 52.695999 55.804001 62.804001 66.695999 71.568001 74.676003 82.18 89.963997 93.856003 96.963997 104.748"
             y="0"
             id="tspan230">Expert distribution</tspan></text><text
           transform="matrix(1,0,0,-1,109.44,267.91)"
           style="font-variant:normal;font-weight:normal;font-size:14px;font-family:Helvetica;-inkscape-font-specification:Helvetica;writing-mode:lr-tb;fill:#000000;fill-opacity:1;fill-rule:nonzero;stroke:none"
           id="text236"><tspan
             x="0 11.662 19.445999 27.23 35.014 38.905998 46.689999 50.582001 54.473999 61.473999 66.136002 73.709999 83.818001 91.601997 95.494003 103.278 106.386 113.386 117.278 122.15 125.258 132.76199 140.54601 144.438 147.54601 155.33"
             y="0"
             id="tspan234">Mean of crowd distribution</tspan></text><text
           transform="matrix(1,0,0,-1,109.44,250.63)"
           style="font-variant:normal;font-weight:normal;font-size:14px;font-family:Helvetica;-inkscape-font-specification:Helvetica;writing-mode:lr-tb;fill:#000000;fill-opacity:1;fill-rule:nonzero;stroke:none"
           id="text240"><tspan
             x="0 11.662 19.445999 27.23 35.014 38.905998 46.689999 50.582001 54.473999 61.838001 68.837997 76.622002 84.405998 89.627998 93.519997 97.412003 105.196 108.304 115.304 119.196 124.068 127.176 134.67999 142.464 146.356 149.464 157.248"
             y="0"
             id="tspan238">Mean of expert distribution</tspan></text><text
           transform="matrix(1,0,0,-1,109.44,233.35)"
           style="font-variant:normal;font-weight:normal;font-size:14px;font-family:Helvetica;-inkscape-font-specification:Helvetica;writing-mode:lr-tb;fill:#000000;fill-opacity:1;fill-rule:nonzero;stroke:none"
           id="text244"><tspan
             x="0 10.108 13.216 21 28.784 32.675999 36.568001 40.459999 48.243999 51.352001 54.459999 58.352001 66.136002 70.028 73.919998 80.919998 85.582001 93.155998 103.264 111.048 114.94 122.724 125.832 132.832 136.724 141.59599 144.70399 152.20799 159.992 163.884 166.992 174.776"
             y="0"
             id="tspan242">Right tail of crowd distribution</tspan></text></g></g></g></svg>
