<?xml version="1.0" encoding="UTF-8" standalone="no"?>
<svg
   xmlns:dc="http://purl.org/dc/elements/1.1/"
   xmlns:cc="http://creativecommons.org/ns#"
   xmlns:rdf="http://www.w3.org/1999/02/22-rdf-syntax-ns#"
   xmlns:svg="http://www.w3.org/2000/svg"
   xmlns="http://www.w3.org/2000/svg"
   version="1.1"
   id="svg206"
   xml:space="preserve"
   width="790.66669"
   height="457.33334"
   viewBox="0 0 790.66669 457.33334"><metadata
     id="metadata212"><rdf:RDF><cc:Work
         rdf:about=""><dc:format>image/svg+xml</dc:format><dc:type
           rdf:resource="http://purl.org/dc/dcmitype/StillImage" /><dc:title></dc:title></cc:Work></rdf:RDF></metadata><defs
     id="defs210"><clipPath
       clipPathUnits="userSpaceOnUse"
       id="clipPath224"><path
         d="M 44.64,44.64 H 563.76 V 324.78 H 44.64 Z"
         id="path222" /></clipPath><clipPath
       clipPathUnits="userSpaceOnUse"
       id="clipPath250"><path
         d="M 44.64,44.64 H 563.76 V 324.78 H 44.64 Z"
         id="path248" /></clipPath></defs><g
     id="g214"
     transform="matrix(1.3333333,0,0,-1.3333333,0,457.33333)"><g
       id="g216" /><g
       id="g218"><g
         id="g220"
         clip-path="url(#clipPath224)"><path
           d="m 0,55.02 h 3.34 3.56 3.56 3.56 3.56 3.56 3.56 3.56 3.56 3.56 3.56 3.56 3.56 3.56 3.57 3.56 3.56 3.56 3.56 3.56 3.56 3.56 3.56 3.56 3.56 3.56 3.56 3.56 3.56 3.56 3.56 3.56 3.56 3.56 3.57 3.56 3.56 3.56 3.56 3.56 3.56 3.56 3.56 3.56 3.56 3.56 3.56 3.56 3.56 3.56 3.56 3.56 3.56 3.56 3.56 3.57 3.56 3.56 3.56 3.56 3.56 3.56 l 3.56,0.01 h 3.56 l 3.56,0.01 3.56,0.01 3.56,0.02 3.56,0.03 3.56,0.04 3.56,0.07 3.56,0.08 3.56,0.12 3.56,0.17 3.56,0.24 3.56,0.32 3.57,0.43 3.56,0.57 3.56,0.76 3.56,0.99 3.56,1.27 3.56,1.63 3.56,2.06 3.56,2.56 3.56,3.17 3.56,3.85 3.56,4.65 3.56,5.53 3.56,6.51 3.56,7.56 3.56,8.67 3.56,9.82 3.56,10.97 3.56,12.09 3.56,13.14 3.56,14.07 3.57,14.83 3.56,15.39 3.56,15.68 3.56,15.68 3.56,15.35 3.56,14.67 3.56,13.64 3.56,12.25 3.56,10.53 3.56,8.53 3.56,6.28 3.56,3.84 3.56,1.29 3.56,-1.29 3.56,-3.84 3.56,-6.28 3.56,-8.53 3.56,-10.53 3.56,-12.25 3.56,-13.64 3.57,-14.67 3.56,-15.35 3.56,-15.68 3.56,-15.68 3.56,-15.39 3.56,-14.83 3.56,-14.07 3.56,-13.14 3.56,-12.09 3.56,-10.97 3.56,-9.82 3.56,-8.67 3.56,-7.56 3.56,-6.51 3.56,-5.53 3.56,-4.65 3.56,-3.85 3.56,-3.17 3.56,-2.56 3.56,-2.06 3.56,-1.63 3.57,-1.27 3.56,-0.99 3.56,-0.76 3.56,-0.57 3.56,-0.43 3.56,-0.32 3.56,-0.24 3.56,-0.17 3.56,-0.12 3.56,-0.08 3.56,-0.07 3.56,-0.04 3.56,-0.03 3.56,-0.02 3.56,-0.01 3.56,-0.01 h 3.56 l 3.56,-0.01 h 3.56 3.56 3.57 3.56 3.56 3.56 3.56 3.56 3.56 3.56 3.56 3.56 3.18"
           style="fill:none;stroke:#fc8d62;stroke-width:3;stroke-linecap:round;stroke-linejoin:round;stroke-miterlimit:10;stroke-dasharray:none;stroke-opacity:1"
           id="path226" /></g></g><g
       id="g228"><path
         d="M 44.64,44.64 H 563.76 V 324.78 H 44.64 V 44.64"
         style="fill:none;stroke:#000000;stroke-width:0.75;stroke-linecap:round;stroke-linejoin:round;stroke-miterlimit:10;stroke-dasharray:none;stroke-opacity:1"
         id="path230" /></g><g
       id="g232" /><g
       id="g234"><text
         transform="matrix(1,0,0,-1,263.51,18.72)"
         style="font-variant:normal;font-weight:normal;font-size:12px;font-family:Helvetica;-inkscape-font-specification:Helvetica;writing-mode:lr-tb;fill:#000000;fill-opacity:1;fill-rule:nonzero;stroke:none"
         id="text238"><tspan
           x="0 8.0039997 14.676 17.34 24.011999 27.348 30.011999 36.683998 43.355999 46.692001 53.363998 60.035999 66.708 69.372002 72.036003 75.372002"
           y="0"
           id="tspan236">Solution quality</tspan></text><text
         transform="matrix(0,1,1,0,27.36,135.02)"
         style="font-variant:normal;font-weight:normal;font-size:12px;font-family:Helvetica;-inkscape-font-specification:Helvetica;writing-mode:lr-tb;fill:#000000;fill-opacity:1;fill-rule:nonzero;stroke:none"
         id="text242"><tspan
           x="0 8.0039997 14.676 17.34 24.011999 27.348 30.011999 36.683998 43.355999 46.692001 50.028 54.023998 60.695999 67.367996 74.040001 80.711998 87.384003 93.384003"
           y="0"
           id="tspan240">Solution frequency</tspan></text></g><g
       id="g244"><g
         id="g246"
         clip-path="url(#clipPath250)"><path
           d="m 384.31,114.29 3.56,-3.57 3.56,-3.54 3.56,-3.46 3.56,-3.35 3.56,-3.23 3.56,-3.1 3.56,-2.96 3.57,-2.82 3.56,-2.67 3.56,-2.52 3.56,-2.39 3.56,-2.23 3.56,-2.1 3.56,-1.96 3.56,-1.82 3.56,-1.69 3.56,-1.56 3.56,-1.45 3.56,-1.32 3.56,-1.22 3.56,-1.11 3.56,-1.01 3.56,-0.91 3.56,-0.84 3.56,-0.75 3.56,-0.67 3.56,-0.6 3.56,-0.54 3.57,-0.48 3.56,-0.44 3.56,-0.4 3.56,-0.38 V 55.02 H 384.31 Z"
           style="fill:#f1b6da;fill-opacity:1;fill-rule:evenodd;stroke:none"
           id="path252" /><path
           d="m 0,55.04 h 3.34 l 3.56,0.01 3.56,0.01 3.56,0.01 3.56,0.01 3.56,0.01 3.56,0.02 3.56,0.02 3.56,0.02 3.56,0.03 3.56,0.03 3.56,0.04 3.56,0.05 3.56,0.05 3.57,0.07 3.56,0.07 3.56,0.09 3.56,0.1 3.56,0.11 3.56,0.13 3.56,0.16 3.56,0.17 3.56,0.21 3.56,0.23 3.56,0.26 3.56,0.3 3.56,0.34 3.56,0.38 3.56,0.43 3.56,0.49 3.56,0.54 3.56,0.61 3.56,0.67 3.56,0.75 3.57,0.84 3.56,0.91 3.56,1.01 3.56,1.11 3.56,1.22 3.56,1.32 3.56,1.44 3.56,1.57 3.56,1.69 3.56,1.82 3.56,1.96 3.56,2.09 3.56,2.24 3.56,2.38 3.56,2.53 3.56,2.67 3.56,2.82 3.56,2.95 3.56,3.09 3.56,3.22 3.56,3.35 3.57,3.47 3.56,3.57 3.56,3.66 3.56,3.75 3.56,3.82 3.56,3.88 3.56,3.91 3.56,3.93 3.56,3.93 3.56,3.91 3.56,3.87 3.56,3.8 3.56,3.72 3.56,3.62 3.56,3.48 3.56,3.34 3.56,3.16 3.56,2.96 3.56,2.75 3.56,2.52 3.57,2.26 3.56,2 3.56,1.72 3.56,1.42 3.56,1.12 3.56,0.8 3.56,0.49 3.56,0.16 3.56,-0.16 3.56,-0.49 3.56,-0.8 3.56,-1.12 3.56,-1.42 3.56,-1.72 3.56,-2 3.56,-2.26 3.56,-2.52 3.56,-2.75 3.56,-2.96 3.56,-3.16 3.57,-3.34 3.56,-3.48 3.56,-3.62 3.56,-3.72 3.56,-3.8 3.56,-3.87 3.56,-3.91 3.56,-3.93 3.56,-3.93 3.56,-3.91 3.56,-3.88 3.56,-3.82 3.56,-3.75 3.56,-3.66 3.56,-3.57 3.56,-3.47 3.56,-3.35 3.56,-3.22 3.56,-3.09 3.56,-2.95 3.57,-2.82 3.56,-2.67 3.56,-2.53 3.56,-2.38 3.56,-2.24 3.56,-2.09 3.56,-1.96 3.56,-1.82 3.56,-1.69 3.56,-1.57 3.56,-1.44 3.56,-1.32 3.56,-1.22 3.56,-1.11 3.56,-1.01 3.56,-0.91 3.56,-0.84 3.56,-0.75 3.56,-0.67 3.56,-0.61 3.56,-0.54 3.57,-0.49 3.56,-0.43 3.56,-0.38 3.56,-0.34 3.56,-0.3 3.56,-0.26 3.56,-0.23 3.56,-0.21 3.56,-0.17 3.56,-0.16 3.56,-0.13 3.56,-0.11 3.56,-0.1 3.56,-0.09 3.56,-0.07 3.56,-0.07 3.56,-0.05 3.56,-0.05 3.56,-0.04 3.56,-0.03 3.57,-0.03 3.56,-0.02 3.56,-0.02 3.56,-0.02 3.56,-0.01 3.56,-0.01 3.56,-0.01 3.56,-0.01 3.56,-0.01 h 3.56 3.18"
           style="fill:none;stroke:#66c2a5;stroke-width:3;stroke-linecap:round;stroke-linejoin:round;stroke-miterlimit:10;stroke-dasharray:9, 15;stroke-dashoffset:0;stroke-opacity:1"
           id="path254" /><path
           d="M 295.3,44.64 V 324.78"
           style="fill:none;stroke:#a6d854;stroke-width:1.5;stroke-linecap:round;stroke-linejoin:round;stroke-miterlimit:10;stroke-dasharray:0, 6, 4.5, 6;stroke-dashoffset:0;stroke-opacity:1"
           id="path256" /><path
           d="M 384.31,44.64 V 324.78"
           style="fill:none;stroke:#e78ac3;stroke-width:1.5;stroke-linecap:round;stroke-linejoin:round;stroke-miterlimit:10;stroke-dasharray:1.5, 4.5, 7.5, 4.5;stroke-dashoffset:0;stroke-opacity:1"
           id="path258" /><path
           d="M 473.32,44.64 V 324.78"
           style="fill:none;stroke:#8da0cb;stroke-width:1.5;stroke-linecap:round;stroke-linejoin:round;stroke-miterlimit:10;stroke-dasharray:0, 6;stroke-dashoffset:0;stroke-opacity:1"
           id="path260" /><path
           d="m 60.63,307.58 h 43.2"
           style="fill:none;stroke:#66c2a5;stroke-width:1.5;stroke-linecap:round;stroke-linejoin:round;stroke-miterlimit:10;stroke-dasharray:4.5, 7.5;stroke-dashoffset:0;stroke-opacity:1"
           id="path262" /><path
           d="m 60.63,293.18 h 43.2"
           style="fill:none;stroke:#fc8d62;stroke-width:1.5;stroke-linecap:round;stroke-linejoin:round;stroke-miterlimit:10;stroke-dasharray:none;stroke-opacity:1"
           id="path264" /><path
           d="m 60.63,278.78 h 43.2"
           style="fill:none;stroke:#a6d854;stroke-width:1.5;stroke-linecap:round;stroke-linejoin:round;stroke-miterlimit:10;stroke-dasharray:0, 6, 4.5, 6;stroke-dashoffset:0;stroke-opacity:1"
           id="path266" /><path
           d="m 60.63,264.38 h 43.2"
           style="fill:none;stroke:#e78ac3;stroke-width:1.5;stroke-linecap:round;stroke-linejoin:round;stroke-miterlimit:10;stroke-dasharray:1.5, 4.5, 7.5, 4.5;stroke-dashoffset:0;stroke-opacity:1"
           id="path268" /><path
           d="m 60.63,249.98 h 43.2"
           style="fill:none;stroke:#8da0cb;stroke-width:1.5;stroke-linecap:round;stroke-linejoin:round;stroke-miterlimit:10;stroke-dasharray:0, 6;stroke-dashoffset:0;stroke-opacity:1"
           id="path270" /><text
           transform="matrix(1,0,0,-1,114.63,303.27)"
           style="font-variant:normal;font-weight:normal;font-size:12px;font-family:Helvetica;-inkscape-font-specification:Helvetica;writing-mode:lr-tb;fill:#000000;fill-opacity:1;fill-rule:nonzero;stroke:none"
           id="text274"><tspan
             x="0 8.6639996 12.66 19.152 27.816 34.487999 37.824001 44.495998 47.16 53.16 56.495998 60.672001 63.335999 69.767998 76.440002 79.776001 82.440002 89.112"
             y="0"
             id="tspan272">Crowd distribution</tspan></text><text
           transform="matrix(1,0,0,-1,114.63,288.87)"
           style="font-variant:normal;font-weight:normal;font-size:12px;font-family:Helvetica;-inkscape-font-specification:Helvetica;writing-mode:lr-tb;fill:#000000;fill-opacity:1;fill-rule:nonzero;stroke:none"
           id="text278"><tspan
             x="0 8.0039997 14.004 20.676001 27.348 31.823999 35.16 38.495998 45.167999 47.832001 53.832001 57.167999 61.344002 64.008003 70.440002 77.112 80.447998 83.112 89.783997"
             y="0"
             id="tspan276">Expert distribution</tspan></text><text
           transform="matrix(1,0,0,-1,114.63,274.47)"
           style="font-variant:normal;font-weight:normal;font-size:12px;font-family:Helvetica;-inkscape-font-specification:Helvetica;writing-mode:lr-tb;fill:#000000;fill-opacity:1;fill-rule:nonzero;stroke:none"
           id="text282"><tspan
             x="0 9.9960003 16.667999 23.34 30.011999 33.348 40.02 43.355999 46.692001 52.692001 56.688 63.18 71.844002 78.515999 81.851997 88.524002 91.188004 97.188004 100.524 104.7 107.364 113.796 120.468 123.804 126.468 133.14"
             y="0"
             id="tspan280">Mean of crowd distribution</tspan></text><text
           transform="matrix(1,0,0,-1,114.63,260.07)"
           style="font-variant:normal;font-weight:normal;font-size:12px;font-family:Helvetica;-inkscape-font-specification:Helvetica;writing-mode:lr-tb;fill:#000000;fill-opacity:1;fill-rule:nonzero;stroke:none"
           id="text286"><tspan
             x="0 9.9960003 16.667999 23.34 30.011999 33.348 40.02 43.355999 46.692001 53.004002 59.004002 65.676003 72.348 76.823997 80.160004 83.496002 90.167999 92.832001 98.832001 102.168 106.344 109.008 115.44 122.112 125.448 128.112 134.784"
             y="0"
             id="tspan284">Mean of expert distribution</tspan></text><text
           transform="matrix(1,0,0,-1,114.63,245.67)"
           style="font-variant:normal;font-weight:normal;font-size:12px;font-family:Helvetica;-inkscape-font-specification:Helvetica;writing-mode:lr-tb;fill:#000000;fill-opacity:1;fill-rule:nonzero;stroke:none"
           id="text290"><tspan
             x="0 8.6639996 11.328 18 24.672001 28.007999 31.344 34.68 41.352001 44.015999 46.68 50.015999 56.688 60.023998 63.360001 69.360001 73.356003 79.848 88.512001 95.183998 98.519997 105.192 107.856 113.856 117.192 121.368 124.032 130.464 137.136 140.472 143.136 149.808"
             y="0"
             id="tspan288">Right tail of crowd distribution</tspan></text></g></g></g></svg>
